fira-sans_ultralight-italic.sfdir
StartChar: exclam
Encoding: 33 33 2126
Width: 240
Flags: MW
HStem: -10 64<80.5 96> 662 20G<162 195 195 195>
VStem: 56 65<14 29.5>
LayerCount: 2
Back
Fore
SplineSet
96 209 m 1
 162 682 l 1
 195 682 l 1
 129 209 l 1
 96 209 l 1
90 54 m 0
 110 54 121 41 121 24 c 0
 121 4 106 -10 86 -10 c 0
 68 -10 56 3 56 19 c 0
 56 40 71 54 90 54 c 0
EndSplineSet
EndChar

StartChar: quotedbl
Encoding: 34 34 993
Width: 336
Flags: MW
HStem: 662 20G<138 174 174 174 280 316 316 316>
VStem: 108 208
LayerCount: 2
Fore
SplineSet
138 682 m 1
 174 682 l 1
 135 438 l 1
 108 438 l 1
 138 682 l 1
280 682 m 1
 316 682 l 1
 278 438 l 1
 251 438 l 1
 280 682 l 1
EndSplineSet
EndChar
StartChar: numbersign
Encoding: 35 35 2128
Width: 492
Flags: MW
HStem: 0 21G<30 66 30 30 263 300 263 263> 192 31<10 83 6 91 127 316 10 119 361 431> 455 31<83 155 80 163 83 191 199 388 433 505>
VStem: 6 503<192 486>
LayerCount: 2
Back
Fore
SplineSet
505 455 m 1
 424 455 l 1
 361 223 l 1
 435 223 l 1
 431 192 l 1
 352 192 l 1
 300 0 l 1
 263 0 l 1
 316 192 l 1
 119 192 l 1
 66 0 l 1
 30 0 l 1
 83 192 l 1
 6 192 l 1
 10 223 l 1
 91 223 l 1
 155 455 l 1
 80 455 l 1
 83 486 l 1
 163 486 l 1
 211 662 l 1
 247 662 l 1
 199 486 l 1
 396 486 l 1
 444 662 l 1
 481 662 l 1
 433 486 l 1
 509 486 l 1
 505 455 l 1
324 223 m 1
 388 455 l 1
 191 455 l 1
 127 223 l 1
 324 223 l 1
EndSplineSet
Substitution2: "'onum' Oldstyle Figures lookup 26 subtable" numbersign.osf
Substitution2: "'tnum' Tabular Numbers lookup 25 subtable" numbersign.tf
AlternateSubs2: "'aalt' Access All Alternates lookup 1 subtable" numbersign.tf numbersign.osf
EndChar

StartChar: percent
Encoding: 37 37 1113
Width: 769
Flags: MW
HStem: -10 28<502.5 585 502.5 594> -1 21G<107 107> 278 28<523 607> 358 28<183.5 266 183.5 275> 646 28<204.5 288>
VStem: 93 34<456.5 512 456.5 524.5> 345 33<520 575> 412 34<88.5 144 88.5 156.5> 663 33<152 207>
LayerCount: 2
Fore
SplineSet
694 680 m 1xbf80
 134 -19 l 1
 107 -1 l 1x7f80
 668 698 l 1
 694 680 l 1xbf80
255 674 m 0
 331 674 378 625 378 546 c 0
 378 470 335 358 215 358 c 0
 140 358 93 407 93 487 c 0
 93 562 136 674 255 674 c 0
256 646 m 0
 153 646 127 540 127 484 c 0
 127 429 152 386 215 386 c 0
 317 386 345 493 345 547 c 0
 345 603 320 646 256 646 c 0
574 306 m 0
 650 306 696 257 696 178 c 0
 696 102 654 -10 534 -10 c 0xbf80
 459 -10 412 39 412 119 c 0
 412 194 454 306 574 306 c 0
575 278 m 0
 471 278 446 172 446 116 c 0
 446 61 471 18 534 18 c 0xbf80
 636 18 663 125 663 179 c 0
 663 235 639 278 575 278 c 0
EndSplineSet
Substitution2: "'onum' Oldstyle Figures lookup 22 subtable" percent.osf
Substitution2: "'tnum' Tabular Numbers lookup 21 subtable" percent.tf
AlternateSubs2: "'aalt' Access All Alternates lookup 1 subtable" percent.tf percent.osf
EndChar

StartChar: ampersand
Encoding: 38 38 1221
Width: 729
Flags: MW
HStem: -10 21G<210 316> -10 31<218.5 310 218.5 316> 663 30<301.5 382.5>
VStem: 86 35<115.5 185 115.5 194> 179 34<509 558.5 509 578.5> 465 35<532.5 596>
LayerCount: 2
Fore
SplineSet
351 693 m 0x7c
 439 693 500 638 500 566 c 0
 500 487 458 438 307 361 c 1
 502 152 l 1
 543 217 571 275 598 338 c 1
 629 326 l 1
 598 258 566 193 522 130 c 1
 633 10 l 1xbc
 604 -9 l 1
 501 104 l 1
 442 39 371 -10 261 -10 c 0
 159 -10 86 60 86 152 c 0
 86 236 125 302 258 369 c 1
 208 426 179 475 179 528 c 0
 179 629 252 693 351 693 c 0x7c
351 663 m 0
 248 663 213 589 213 528 c 0
 213 490 228 448 287 382 c 1
 431 454 465 499 465 566 c 0
 465 626 414 663 351 663 c 0
278 348 m 1
 155 287 121 219 121 151 c 0
 121 80 176 21 261 21 c 0
 359 21 423 63 480 127 c 1
 278 348 l 1
EndSplineSet
EndChar
StartChar: quotesingle
Encoding: 39 39 2133
Width: 193
Flags: MW
HStem: 662 20G<138 174 174 174>
VStem: 108 66
LayerCount: 2
Back
Fore
SplineSet
108 438 m 1
 138 682 l 1
 174 682 l 1
 135 438 l 1
 108 438 l 1
EndSplineSet
EndChar

StartChar: parenleft
Encoding: 40 40 1009
Width: 324
Flags: MW
HStem: -131 964<183 317>
VStem: 67.38 33.42
LayerCount: 2
Fore
SplineSet
338 817 m 1
 231 686 140 569 109 348 c 0
 79 129 136 12 207 -119 c 1
 183 -131 l 1
 106 4 44 122 76 352 c 0
 108 581 203 698 317 833 c 1
 338 817 l 1
EndSplineSet
Substitution2: "'case' Case-Sensitive Forms lookup 25 subtable" parenleft.case
Substitution2: "'dnom' Denominators lookup 14 subtable" parenleft.dnom
Substitution2: "'numr' Numerators lookup 13 subtable" parenleft.numr
Substitution2: "'sups' Superscript lookup 12 subtable" parenleftsuperior
Substitution2: "'subs' Subscript lookup 11 subtable" uni208D
AlternateSubs2: "'aalt' Access All Alternates lookup 1 subtable" uni208D parenleftsuperior parenleft.numr parenleft.dnom parenleft.case
EndChar
StartChar: parenright
Encoding: 41 41 2151
Width: 324
Flags: MW
HStem: -133 964<32 166>
VStem: 247.54 33.51
LayerCount: 2
Back
Fore
SplineSet
166 831 m 1
 243 696 305 578 272 348 c 0
 240 119 146 2 32 -133 c 1
 10 -117 l 1
 117 14 208 132 239 352 c 0
 270 571 212 688 142 819 c 1
 166 831 l 1
EndSplineSet
Substitution2: "'case' Case-Sensitive Forms lookup 29 subtable" parenright.case
Substitution2: "'dnom' Denominators lookup 17 subtable" parenright.dnom
Substitution2: "'numr' Numerators lookup 16 subtable" parenright.numr
Substitution2: "'sups' Superscript lookup 15 subtable" uni207E
Substitution2: "'subs' Subscript lookup 14 subtable" uni208E
AlternateSubs2: "'aalt' Access All Alternates lookup 1 subtable" uni208E uni207E parenright.numr parenright.dnom parenright.case
EndChar

StartChar: asterisk
Encoding: 42 42 980
Width: 433
Flags: MW
HStem: 553 20G<247 247> 714 20G<267 301 301 301>
VStem: 91 346<597 597>
LayerCount: 2
Fore
SplineSet
280 552 m 1
 357 425 l 1
 328 405 l 1
 256 536 l 1
 148 405 l 1
 122 425 l 1
 236 551 l 1
 91 597 l 1
 103 626 l 1
 247 573 l 1
 267 734 l 1
 301 734 l 1
 275 575 l 1
 431 628 l 1
 437 597 l 1
 280 552 l 1
EndSplineSet
EndChar

StartChar: plus
Encoding: 43 43 1115
Width: 488
Flags: MW
HStem: 315 32<86 235 82 240 274 422 86 270>
VStem: 82 344<315 347>
LayerCount: 2
Fore
SplineSet
274 347 m 1
 426 347 l 1
 422 315 l 1
 270 315 l 1
 248 161 l 1
 213 161 l 1
 235 315 l 1
 82 315 l 1
 86 347 l 1
 240 347 l 1
 262 500 l 1
 296 500 l 1
 274 347 l 1
EndSplineSet
Substitution2: "'onum' Oldstyle Figures lookup 22 subtable" plus.osf
Substitution2: "'tnum' Tabular Numbers lookup 21 subtable" plus.tf
Substitution2: "'dnom' Denominators lookup 14 subtable" plus.dnom
Substitution2: "'numr' Numerators lookup 13 subtable" plus.numr
Substitution2: "'sups' Superscript lookup 12 subtable" plussuperior
Substitution2: "'subs' Subscript lookup 11 subtable" uni208A
AlternateSubs2: "'aalt' Access All Alternates lookup 1 subtable" uni208A plussuperior plus.numr plus.dnom plus.tf plus.osf
EndChar
StartChar: comma
Encoding: 44 44 2123
Width: 184
Flags: MW
HStem: -6 21G<39 39>
VStem: 24 65<17.5 29.5>
LayerCount: 2
Back
Fore
SplineSet
59 54 m 0
 78 54 89 41 89 24 c 0
 89 11 83 -2 71 -22 c 2
 6 -141 l 1
 -20 -141 l 1
 39 -6 l 1
 29 -2 24 8 24 20 c 0
 24 39 39 54 59 54 c 0
EndSplineSet
EndChar

StartChar: period
Encoding: 46 46 990
Width: 184
Flags: MW
HStem: -10 64<49 64.5>
VStem: 24 65<14 29.5>
LayerCount: 2
Fore
SplineSet
59 54 m 0
 78 54 89 41 89 24 c 0
 89 4 75 -10 54 -10 c 0
 36 -10 24 3 24 19 c 0
 24 40 39 54 59 54 c 0
EndSplineSet
EndChar
StartChar: slash
Encoding: 47 47 2135
Width: 520
Flags: MW
HStem: -97 897<108 436>
VStem: 79 386
LayerCount: 2
Back
Fore
SplineSet
436 800 m 1
 465 792 l 1
 108 -97 l 1
 79 -89 l 1
 436 800 l 1
EndSplineSet
Substitution2: "'frac' Diagonal Fractions lookup 18 subtable" fraction
Substitution2: "'aalt' Access All Alternates lookup 0 subtable" fraction
EndChar

StartChar: zero
Encoding: 48 48 879
Width: 544
Flags: MW
HStem: -10 31<195.5 289.5 195.5 334> 643 31<275.5 369.5>
VStem: 75 35<149.5 232 149.5 304.5> 454 35<432.5 515>
LayerCount: 2
Fore
SplineSet
328 674 m 0
 432 674 489 598 489 445 c 0
 489 272 432 -10 236 -10 c 0
 132 -10 75 67 75 220 c 0
 75 389 132 674 328 674 c 0
328 643 m 0
 223 643 149 542 119 330 c 0
 113 287 110 249 110 215 c 0
 110 84 154 21 237 21 c 0
 342 21 415 121 445 332 c 0
 451 377 454 415 454 450 c 0
 454 580 411 643 328 643 c 0
EndSplineSet
Substitution2: "'zero' Slashed Zero lookup 28 subtable" zero.zero
Substitution2: "'onum' Oldstyle Figures lookup 22 subtable" zero.osf
Substitution2: "'tnum' Tabular Numbers lookup 21 subtable" zero.tf
Substitution2: "'frac' Diagonal Fractions lookup 16 subtable" zero.numr
Substitution2: "'dnom' Denominators lookup 14 subtable" zero.dnom
Substitution2: "'numr' Numerators lookup 13 subtable" zero.numr
Substitution2: "'sups' Superscript lookup 12 subtable" zerosuperior
Substitution2: "'subs' Subscript lookup 11 subtable" zeroinferior
AlternateSubs2: "'aalt' Access All Alternates lookup 1 subtable" zeroinferior zerosuperior zero.numr zero.dnom zero.tf zero.osf zero.zero
EndChar

StartChar: one
Encoding: 49 49 880
Width: 398
Flags: MW
HStem: 0 21G<198 232 198 198>
VStem: 88 237<542 662>
LayerCount: 2
Fore
SplineSet
232 0 m 1
 198 0 l 1
 286 621 l 1
 102 514 l 1
 88 542 l 1
 298 662 l 1
 325 662 l 1
 232 0 l 1
EndSplineSet
Substitution2: "'onum' Oldstyle Figures lookup 22 subtable" one.osf
Substitution2: "'tnum' Tabular Numbers lookup 21 subtable" one.tf
Substitution2: "'frac' Diagonal Fractions lookup 16 subtable" one.numr
Substitution2: "'dnom' Denominators lookup 14 subtable" one.dnom
Substitution2: "'numr' Numerators lookup 13 subtable" one.numr
Substitution2: "'sups' Superscript lookup 12 subtable" onesuperior
Substitution2: "'subs' Subscript lookup 11 subtable" oneinferior
AlternateSubs2: "'aalt' Access All Alternates lookup 1 subtable" oneinferior onesuperior one.numr one.dnom one.tf one.osf
EndChar
StartChar: two
Encoding: 50 50 2019
Width: 467
Flags: MW
HStem: 0 32.5 643 31<237.5 310.5>
VStem: 396 35<474 562>
LayerCount: 2
Back
Fore
SplineSet
273 674 m 0
 374 674 431 615 431 525 c 0
 431 413 375 332 57 32 c 1
 380 33 l 1
 369 0 l 1
 8 0 l 1
 13 33 l 1
 353 352 396 424 396 524 c 0
 396 600 349 643 272 643 c 0
 203 643 153 612 108 564 c 1
 84 586 l 1
 143 648 201 674 273 674 c 0
EndSplineSet
Substitution2: "'onum' Oldstyle Figures lookup 26 subtable" two.osf
Substitution2: "'tnum' Tabular Numbers lookup 25 subtable" two.tf
Substitution2: "'frac' Diagonal Fractions lookup 19 subtable" two.numr
Substitution2: "'dnom' Denominators lookup 17 subtable" two.dnom
Substitution2: "'numr' Numerators lookup 16 subtable" two.numr
Substitution2: "'sups' Superscript lookup 15 subtable" uni00B2
Substitution2: "'subs' Subscript lookup 14 subtable" uni2082
AlternateSubs2: "'aalt' Access All Alternates lookup 1 subtable" uni2082 uni00B2 two.numr two.dnom two.tf two.osf
EndChar

StartChar: three
Encoding: 51 51 882
Width: 477
Flags: MW
HStem: -10 31<140.5 246.5 140.5 254.5> 336 30<192 223 223 224 183 223> 645 29<242 309.5>
VStem: 364 35<172.5 254.5> 393 35<497.5 569>
LayerCount: 2
Fore
SplineSet
273 674 m 0xe8
 371 674 428 616 428 534 c 0xe8
 428 461 381 367 269 353 c 1
 343 352 399 303 399 207 c 0
 399 117 338 -10 171 -10 c 0
 93 -10 40 19 -2 74 c 1
 24 94 l 1
 64 38 110 21 171 21 c 0
 322 21 364 136 364 209 c 0xf0
 364 300 310 336 224 336 c 2
 183 336 l 1
 192 366 l 1
 223 366 l 2
 338 366 393 458 393 535 c 0
 393 603 347 645 272 645 c 0
 212 645 165 624 108 578 c 1
 89 601 l 1
 145 648 200 674 273 674 c 0xe8
EndSplineSet
Substitution2: "'onum' Oldstyle Figures lookup 22 subtable" three.osf
Substitution2: "'tnum' Tabular Numbers lookup 21 subtable" three.tf
Substitution2: "'frac' Diagonal Fractions lookup 16 subtable" three.numr
Substitution2: "'dnom' Denominators lookup 14 subtable" three.dnom
Substitution2: "'numr' Numerators lookup 13 subtable" three.numr
Substitution2: "'sups' Superscript lookup 12 subtable" threesuperior
Substitution2: "'subs' Subscript lookup 11 subtable" threeinferior
AlternateSubs2: "'aalt' Access All Alternates lookup 1 subtable" threeinferior threesuperior three.numr three.dnom three.tf three.osf
EndChar
StartChar: four
Encoding: 52 52 2021
Width: 508
Flags: MW
HStem: 0 21G<307 340 307 307> 182 31<80 332 370 458 80 366>
VStem: 38 424<182 213>
LayerCount: 2
Back
Fore
SplineSet
462 213 m 1
 458 182 l 1
 366 182 l 1
 340 0 l 1
 307 0 l 1
 332 182 l 1
 38 182 l 1
 42 209 l 1
 310 674 l 1
 339 662 l 1
 80 213 l 1
 337 213 l 1
 370 418 l 1
 399 418 l 1
 370 213 l 1
 462 213 l 1
EndSplineSet
Substitution2: "'onum' Oldstyle Figures lookup 26 subtable" four.osf
Substitution2: "'tnum' Tabular Numbers lookup 25 subtable" four.tf
Substitution2: "'frac' Diagonal Fractions lookup 19 subtable" four.numr
Substitution2: "'dnom' Denominators lookup 17 subtable" four.dnom
Substitution2: "'numr' Numerators lookup 16 subtable" four.numr
Substitution2: "'sups' Superscript lookup 15 subtable" uni2074
Substitution2: "'subs' Subscript lookup 14 subtable" uni2084
AlternateSubs2: "'aalt' Access All Alternates lookup 1 subtable" uni2084 uni2074 four.numr four.dnom four.tf four.osf
EndChar
StartChar: five
Encoding: 53 53 2022
Width: 476
Flags: MW
HStem: -10 31<150.5 258.5 150.5 270> 388 30<231 293> 632 30<171 447 171 171>
VStem: 383 35<200.5 290>
LayerCount: 2
Back
Fore
SplineSet
457 662 m 1
 447 632 l 1
 171 632 l 1
 135 382 l 1
 166 401 205 418 257 418 c 0
 359 418 418 348 418 244 c 0
 418 143 356 -10 184 -10 c 0
 105 -10 52 19 12 68 c 1
 38 88 l 1
 73 44 116 21 185 21 c 0
 332 21 383 157 383 244 c 0
 383 336 332 388 254 388 c 0
 202 388 169 375 126 350 c 1
 98 350 l 1
 141 662 l 1
 457 662 l 1
EndSplineSet
Substitution2: "'onum' Oldstyle Figures lookup 26 subtable" five.osf
Substitution2: "'tnum' Tabular Numbers lookup 25 subtable" five.tf
Substitution2: "'frac' Diagonal Fractions lookup 19 subtable" five.numr
Substitution2: "'dnom' Denominators lookup 17 subtable" five.dnom
Substitution2: "'numr' Numerators lookup 16 subtable" five.numr
Substitution2: "'sups' Superscript lookup 15 subtable" uni2075
Substitution2: "'subs' Subscript lookup 14 subtable" uni2085
AlternateSubs2: "'aalt' Access All Alternates lookup 1 subtable" uni2085 uni2075 five.numr five.dnom five.tf five.osf
EndChar

StartChar: six
Encoding: 54 54 885
Width: 516
Flags: MW
HStem: -10 31<189.5 307 189.5 316.5> 399 30<266.5 338> 644 30<297 376.5>
VStem: 70 35<146.5 212.5 146.5 219> 422 35<222.5 310.5>
LayerCount: 2
Fore
SplineSet
306 429 m 0
 390 429 457 375 457 266 c 0
 457 157 395 -10 238 -10 c 0
 115 -10 70 82 70 205 c 0
 70 233 73 262 77 293 c 0
 111 532 218 674 359 674 c 0
 408 674 439 659 469 636 c 1
 450 612 l 1
 423 632 395 644 358 644 c 0
 236 644 145 506 115 323 c 1
 162 388 227 429 306 429 c 0
238 21 m 0
 376 21 422 180 422 265 c 0
 422 356 372 399 304 399 c 0
 227 399 163 349 109 273 c 1
 106 248 105 224 105 201 c 0
 105 92 141 21 238 21 c 0
EndSplineSet
Substitution2: "'onum' Oldstyle Figures lookup 22 subtable" six.osf
Substitution2: "'tnum' Tabular Numbers lookup 21 subtable" six.tf
Substitution2: "'frac' Diagonal Fractions lookup 16 subtable" six.numr
Substitution2: "'dnom' Denominators lookup 14 subtable" six.dnom
Substitution2: "'numr' Numerators lookup 13 subtable" six.numr
Substitution2: "'sups' Superscript lookup 12 subtable" sixsuperior
Substitution2: "'subs' Subscript lookup 11 subtable" sixinferior
AlternateSubs2: "'aalt' Access All Alternates lookup 1 subtable" sixinferior sixsuperior six.numr six.dnom six.tf six.osf
EndChar

StartChar: seven
Encoding: 55 55 886
Width: 431
Flags: MW
HStem: -6 21G<86 86> 631 31<90 405 87 448>
VStem: 53 395
LayerCount: 2
Fore
SplineSet
445 635 m 1
 86 -6 l 1
 53 5 l 1
 405 631 l 1
 87 631 l 1
 90 662 l 1
 448 662 l 1
 445 635 l 1
EndSplineSet
Substitution2: "'onum' Oldstyle Figures lookup 22 subtable" seven.osf
Substitution2: "'tnum' Tabular Numbers lookup 21 subtable" seven.tf
Substitution2: "'frac' Diagonal Fractions lookup 16 subtable" seven.numr
Substitution2: "'dnom' Denominators lookup 14 subtable" seven.dnom
Substitution2: "'numr' Numerators lookup 13 subtable" seven.numr
Substitution2: "'sups' Superscript lookup 12 subtable" sevensuperior
Substitution2: "'subs' Subscript lookup 11 subtable" seveninferior
AlternateSubs2: "'aalt' Access All Alternates lookup 1 subtable" seveninferior sevensuperior seven.numr seven.dnom seven.tf seven.osf
EndChar
StartChar: nine
Encoding: 57 57 2026
Width: 512
Flags: MW
HStem: 252 31<203.5 273> 644 30<236.5 353.5>
VStem: 84 35<381.5 469 381.5 480.5> 435 35<465.5 530>
LayerCount: 2
Back
Fore
SplineSet
308 674 m 0
 419 674 470 599 470 478 c 0
 470 275 401 67 87 -17 c 1
 80 11 l 1
 264 68 384 157 424 352 c 1
 372 287 308 252 238 252 c 0
 146 252 84 321 84 428 c 0
 84 533 146 674 308 674 c 0
242 283 m 0
 315 283 373 325 430 397 c 1
 434 427 435 453 435 478 c 0
 435 582 398 644 309 644 c 0
 164 644 119 512 119 426 c 0
 119 337 165 283 242 283 c 0
EndSplineSet
Substitution2: "'onum' Oldstyle Figures lookup 26 subtable" nine.osf
Substitution2: "'tnum' Tabular Numbers lookup 25 subtable" nine.tf
Substitution2: "'frac' Diagonal Fractions lookup 19 subtable" nine.numr
Substitution2: "'dnom' Denominators lookup 17 subtable" nine.dnom
Substitution2: "'numr' Numerators lookup 16 subtable" nine.numr
Substitution2: "'sups' Superscript lookup 15 subtable" uni2079
Substitution2: "'subs' Subscript lookup 14 subtable" uni2089
AlternateSubs2: "'aalt' Access All Alternates lookup 1 subtable" uni2089 uni2079 nine.numr nine.dnom nine.tf nine.osf
EndChar
StartChar: colon
Encoding: 58 58 2122
Width: 184
Flags: MW
HStem: -10 64<49 64.5> 396 64<106.5 122>
VStem: 24 65<14 29.5> 82 65<420.5 436>
LayerCount: 2
Back
Fore
SplineSet
116 460 m 0xd0
 136 460 147 447 147 430 c 0
 147 411 132 396 112 396 c 0
 93 396 82 409 82 426 c 0
 82 446 97 460 116 460 c 0xd0
59 54 m 0xe0
 78 54 89 41 89 24 c 0
 89 4 75 -10 54 -10 c 0
 36 -10 24 3 24 19 c 0
 24 40 39 54 59 54 c 0xe0
EndSplineSet
EndChar
StartChar: less
Encoding: 60 60 2261
Width: 494
GlyphClass: 2
Flags: MW
HStem: 150 363<392 442>
VStem: 82 370<320 483>
LayerCount: 2
Back
Fore
SplineSet
442 513 m 1
 452 483 l 1
 120 333 l 1
 409 179 l 1
 392 150 l 1
 82 320 l 1
 85 346 l 1
 442 513 l 1
EndSplineSet
Substitution2: "'onum' Oldstyle Figures lookup 26 subtable" less.osf
Substitution2: "'tnum' Tabular Numbers lookup 25 subtable" less.tf
AlternateSubs2: "'aalt' Access All Alternates lookup 1 subtable" less.tf less.osf
EndChar

StartChar: equal
Encoding: 61 61 1095
Width: 489
Flags: MW
HStem: 233 33<75 411 71 415> 396 32<98 434 94 439>
VStem: 71 368<233 428>
LayerCount: 2
Fore
SplineSet
98 428 m 1
 439 428 l 1
 434 396 l 1
 94 396 l 1
 98 428 l 1
75 266 m 1
 415 266 l 1
 411 233 l 1
 71 233 l 1
 75 266 l 1
EndSplineSet
Substitution2: "'onum' Oldstyle Figures lookup 22 subtable" equal.osf
Substitution2: "'tnum' Tabular Numbers lookup 21 subtable" equal.tf
Substitution2: "'dnom' Denominators lookup 14 subtable" equal.dnom
Substitution2: "'numr' Numerators lookup 13 subtable" equal.numr
Substitution2: "'sups' Superscript lookup 12 subtable" equalsuperior
AlternateSubs2: "'aalt' Access All Alternates lookup 1 subtable" equalsuperior equal.numr equal.dnom equal.tf equal.osf
EndChar

StartChar: greater
Encoding: 62 62 1098
Width: 494
Flags: MW
HStem: 150 363<71 122>
VStem: 61 372<179 346>
LayerCount: 2
Fore
SplineSet
433 346 m 1
 429 320 l 1
 71 150 l 1
 61 179 l 1
 394 333 l 1
 104 483 l 1
 122 513 l 1
 433 346 l 1
EndSplineSet
Substitution2: "'onum' Oldstyle Figures lookup 22 subtable" greater.osf
Substitution2: "'tnum' Tabular Numbers lookup 21 subtable" greater.tf
AlternateSubs2: "'aalt' Access All Alternates lookup 1 subtable" greater.tf greater.osf
EndChar
StartChar: question
Encoding: 63 63 2130
Width: 439
Flags: MW
HStem: -11 64<175.5 191> 662 31<255.5 323.5>
VStem: 150 65<13 28.5> 171 34<262.5 337.5 260.5 347.5> 397 35<497 599>
LayerCount: 2
Back
Fore
SplineSet
290 693 m 0xd8
 382 693 432 642 432 573 c 0
 432 402 205 404 205 271 c 0
 205 250 209 235 212 222 c 1
 181 214 l 1
 175 233 171 253 171 272 c 0
 171 423 397 422 397 572 c 0
 397 626 357 662 290 662 c 0
 221 662 174 637 120 585 c 1
 98 606 l 1
 158 665 215 693 290 693 c 0xd8
185 53 m 0xe8
 204 53 215 40 215 23 c 0
 215 3 201 -11 181 -11 c 0
 162 -11 150 2 150 18 c 0
 150 39 166 53 185 53 c 0xe8
EndSplineSet
EndChar

StartChar: at
Encoding: 64 64 1220
Width: 1020
Flags: MW
HStem: -200 31<368 510.5 368 514.5> 15 29<691 786 684 798.5> 17 30<424.5 489> 448 31<476 573> 661 32<410.5 680.5>
VStem: 87 34<70 276 70 282.5> 314 35<136 232 136 245.5> 619 29.02 900 35<289.5 445.5>
LayerCount: 2
Fore
SplineSet
575 693 m 0xdf80
 813 693 935 546 935 358 c 0
 935 201 874 15 723 15 c 0xdf80
 659 15 622 59 619 127 c 1
 578 56 524 17 454 17 c 0xbf80
 375 17 314 73 314 185 c 0
 314 306 380 479 553 479 c 0
 605 479 650 463 686 444 c 1
 651 185 l 2
 643 121 646 44 722 44 c 0
 850 44 900 222 900 357 c 0
 900 534 786 661 575 661 c 0
 246 661 121 376 121 176 c 0
 121 -36 264 -169 472 -169 c 0
 549 -169 607 -157 664 -136 c 1
 671 -166 l 1
 613 -185 558 -200 471 -200 c 0
 248 -200 87 -55 87 175 c 0
 87 390 219 693 575 693 c 0xdf80
457 47 m 0xbf80
 527 47 587 105 615 170 c 1
 652 424 l 1
 621 440 592 448 554 448 c 0
 398 448 349 283 349 181 c 0
 349 91 392 47 457 47 c 0xbf80
EndSplineSet
EndChar

StartChar: D
Encoding: 68 68 20
Width: 623
GlyphClass: 2
Flags: MW
HStem: 0 32<122 217> 650 32<208 208 208 303>
VStem: 532 35<336 525.5>
AnchorPoint: "Anchor-11" 0 0 basechar 0
AnchorPoint: "Anchor-10" 0 0 basechar 0
AnchorPoint: "Anchor-9" 356 682 basechar 0
AnchorPoint: "Anchor-8" 0 0 basechar 0
LayerCount: 2
Fore
SplineSet
307 682 m 2
 438 682 567 638 567 429 c 0
 567 221 478 0 217 0 c 2
 82 0 l 1
 178 682 l 1
 307 682 l 2
208 650 m 1
 122 32 l 1
 221 32 l 2
 456 32 532 242 532 430 c 0
 532 621 416 650 303 650 c 2
 208 650 l 1
EndSplineSet
Substitution2: "'c2sc' Capitals to Small Capitals lookup 23 subtable" d.sc
Substitution2: "'aalt' Access All Alternates lookup 0 subtable" d.sc
Position2: "'cpsp' Capital Spacing lookup 0 subtable" dx=5 dy=0 dh=10 dv=0
EndChar

StartChar: E
Encoding: 69 69 24
Width: 495
GlyphClass: 2
Flags: MW
HStem: 0 32<122 417> 343 31<170 416 165 420> 650 32<208 499 208 208>
VStem: 82 425
AnchorPoint: "Anchor-11" 246 0 basechar 0
AnchorPoint: "Anchor-10" 85 521 basechar 0
AnchorPoint: "Anchor-9" 347 682 basechar 0
AnchorPoint: "Anchor-8" 402 0 basechar 0
LayerCount: 2
Fore
SplineSet
499 650 m 1
 208 650 l 1
 170 374 l 1
 420 374 l 1
 416 343 l 1
 165 343 l 1
 122 32 l 1
 423 32 l 1
 417 0 l 1
 82 0 l 1
 178 682 l 1
 507 682 l 1
 499 650 l 1
EndSplineSet
Substitution2: "'c2sc' Capitals to Small Capitals lookup 23 subtable" e.sc
Substitution2: "'aalt' Access All Alternates lookup 0 subtable" e.sc
Position2: "'cpsp' Capital Spacing lookup 0 subtable" dx=5 dy=0 dh=10 dv=0
EndChar
StartChar: F
Encoding: 70 70 93
Width: 473
GlyphClass: 2
Flags: MW
HStem: 0 21G<82 117 82 82> 329 31<168 410 163 414> 650 32<208 493 208 208>
VStem: 82 420
AnchorPoint: "Anchor-14" 0 0 basechar 0
AnchorPoint: "Anchor-13" 0 0 basechar 0
AnchorPoint: "Anchor-12" 340 682 basechar 0
AnchorPoint: "Anchor-11" 0 0 basechar 0
AnchorPoint: "Anchor-10" 0 0 basechar 0
LayerCount: 2
Back
Fore
SplineSet
502 682 m 1
 493 650 l 1
 208 650 l 1
 168 360 l 1
 414 360 l 1
 410 329 l 1
 163 329 l 1
 117 0 l 1
 82 0 l 1
 178 682 l 1
 502 682 l 1
EndSplineSet
Substitution2: "'c2sc' Capitals to Small Capitals lookup 27 subtable" f.sc
Substitution2: "'aalt' Access All Alternates lookup 0 subtable" f.sc
Position2: "'cpsp' Capital Spacing lookup 0 subtable" dx=5 dy=0 dh=10 dv=0
EndChar

StartChar: H
Encoding: 72 72 40
Width: 663
GlyphClass: 2
Flags: MW
HStem: 0 21G<82 117 82 82 472 472 472 507> 344 32<170 521 165 525> 662 20G<178 213 213 213 568 603 603 603>
VStem: 82 521
AnchorPoint: "Anchor-11" 0 0 basechar 0
AnchorPoint: "Anchor-10" 85 521 basechar 0
AnchorPoint: "Anchor-9" 389 682 basechar 0
AnchorPoint: "Anchor-8" 0 0 basechar 0
LayerCount: 2
Fore
SplineSet
521 344 m 1
 165 344 l 1
 117 0 l 1
 82 0 l 1
 178 682 l 1
 213 682 l 1
 170 376 l 1
 525 376 l 1
 568 682 l 1
 603 682 l 1
 507 0 l 1
 472 0 l 1
 521 344 l 1
EndSplineSet
Substitution2: "'c2sc' Capitals to Small Capitals lookup 23 subtable" h.sc
Substitution2: "'aalt' Access All Alternates lookup 0 subtable" h.sc
Position2: "'cpsp' Capital Spacing lookup 0 subtable" dx=5 dy=0 dh=10 dv=0
EndChar
StartChar: I
Encoding: 73 73 115
Width: 272
GlyphClass: 2
Flags: MW
HStem: 0 21G<82 117 82 82> 662 20G<178 213 213 213>
VStem: 82 131
AnchorPoint: "Anchor-14" 0 0 basechar 0
AnchorPoint: "Anchor-13" 0 0 basechar 0
AnchorPoint: "Anchor-12" 196 682 basechar 0
AnchorPoint: "Anchor-11" 116 0 basechar 0
AnchorPoint: "Anchor-10" 100 0 basechar 0
LayerCount: 2
Back
Fore
SplineSet
213 682 m 1
 117 0 l 1
 82 0 l 1
 178 682 l 1
 213 682 l 1
EndSplineSet
Substitution2: "'c2sc' Capitals to Small Capitals lookup 27 subtable" i.sc
Substitution2: "'aalt' Access All Alternates lookup 0 subtable" i.sc
Position2: "'cpsp' Capital Spacing lookup 0 subtable" dx=5 dy=0 dh=10 dv=0
EndChar

StartChar: J
Encoding: 74 74 54
Width: 281
GlyphClass: 2
Flags: MW
HStem: 662 20G<192 227 227 227>
VStem: -30 257
AnchorPoint: "Anchor-11" 0 0 basechar 0
AnchorPoint: "Anchor-10" 0 0 basechar 0
AnchorPoint: "Anchor-9" 207 682 basechar 0
AnchorPoint: "Anchor-8" 0 0 basechar 0
LayerCount: 2
Fore
SplineSet
144 88 m 1
 128 -18 97 -57 -21 -106 c 1
 -30 -79 l 1
 67 -36 96 -1 109 93 c 2
 192 682 l 1
 227 682 l 1
 144 88 l 1
EndSplineSet
Substitution2: "'c2sc' Capitals to Small Capitals lookup 23 subtable" j.sc
Substitution2: "'aalt' Access All Alternates lookup 0 subtable" j.sc
Position2: "'cpsp' Capital Spacing lookup 0 subtable" dx=5 dy=0 dh=10 dv=0
EndChar
StartChar: K
Encoding: 75 75 137
Width: 518
GlyphClass: 2
Flags: MW
HStem: 0 21G<82 117 82 82 439 439 439 481> 662 20G<178 213 213 213 517 561 561 561>
VStem: 82 479
AnchorPoint: "Anchor-14" 0 0 basechar 0
AnchorPoint: "Anchor-13" 0 0 basechar 0
AnchorPoint: "Anchor-12" 351 682 basechar 0
AnchorPoint: "Anchor-11" 0 0 basechar 0
AnchorPoint: "Anchor-10" 264 0 basechar 0
LayerCount: 2
Back
Fore
SplineSet
213 682 m 1
 117 0 l 1
 82 0 l 1
 178 682 l 1
 213 682 l 1
561 682 m 1
 214 365 l 1
 481 0 l 1
 439 0 l 1
 172 367 l 1
 517 682 l 1
 561 682 l 1
EndSplineSet
Substitution2: "'c2sc' Capitals to Small Capitals lookup 27 subtable" k.sc
Substitution2: "'aalt' Access All Alternates lookup 0 subtable" k.sc
Position2: "'cpsp' Capital Spacing lookup 0 subtable" dx=5 dy=0 dh=10 dv=0
EndChar
StartChar: L
Encoding: 76 76 141
Width: 457
GlyphClass: 2
Flags: MW
HStem: 0 33<122 399> 662 20G<178 213 213 213>
VStem: 82 329<0 33>
AnchorPoint: "Anchor-14" 368 356 basechar 0
AnchorPoint: "Anchor-13" 252 682 basechar 0
AnchorPoint: "Anchor-12" 196 682 basechar 0
AnchorPoint: "Anchor-11" 0 0 basechar 0
AnchorPoint: "Anchor-10" 240 0 basechar 0
LayerCount: 2
Back
Fore
SplineSet
213 682 m 1
 122 33 l 1
 411 33 l 1
 399 0 l 1
 82 0 l 1
 178 682 l 1
 213 682 l 1
EndSplineSet
Substitution2: "'c2sc' Capitals to Small Capitals lookup 27 subtable" l.sc
Substitution2: "'aalt' Access All Alternates lookup 0 subtable" l.sc
Position2: "'cpsp' Capital Spacing lookup 0 subtable" dx=5 dy=0 dh=10 dv=0
EndChar

StartChar: N
Encoding: 78 78 65
Width: 665
GlyphClass: 2
Flags: MW
HStem: 0 37<487 487 487 509 466 487> 648 34<201 201>
VStem: 82 523
AnchorPoint: "Anchor-11" 296 0 basechar 0
AnchorPoint: "Anchor-10" 0 0 basechar 0
AnchorPoint: "Anchor-9" 399 682 basechar 0
AnchorPoint: "Anchor-8" 0 0 basechar 0
LayerCount: 2
Fore
SplineSet
509 0 m 1
 466 0 l 1
 201 648 l 1
 199 602 193 549 176 429 c 2
 115 0 l 1
 82 0 l 1
 178 682 l 1
 222 682 l 1
 487 37 l 1
 489 82 496 147 509 238 c 2
 571 682 l 1
 605 682 l 1
 509 0 l 1
EndSplineSet
Substitution2: "'c2sc' Capitals to Small Capitals lookup 23 subtable" n.sc
Substitution2: "'aalt' Access All Alternates lookup 0 subtable" n.sc
Position2: "'cpsp' Capital Spacing lookup 0 subtable" dx=5 dy=0 dh=10 dv=0
EndChar
StartChar: O
Encoding: 79 79 170
Width: 690
GlyphClass: 2
Flags: MW
HStem: -10 32<250 422.5 250 432> 661 32<294 464>
VStem: 79 36<179.5 336 179.5 345> 598 36<348.5 505>
AnchorPoint: "Anchor-14" 0 0 basechar 0
AnchorPoint: "Anchor-13" 596 682 basechar 0
AnchorPoint: "Anchor-12" 404 682 basechar 0
AnchorPoint: "Anchor-11" 0 0 basechar 0
AnchorPoint: "Anchor-10" 309 0 basechar 0
LayerCount: 2
Back
Fore
SplineSet
405 693 m 0
 545 693 634 601 634 426 c 0
 634 249 555 -10 309 -10 c 0
 168 -10 79 85 79 259 c 0
 79 431 162 693 405 693 c 0
404 661 m 0
 184 661 115 414 115 258 c 0
 115 101 191 22 309 22 c 0
 536 22 598 271 598 426 c 0
 598 584 524 661 404 661 c 0
EndSplineSet
Substitution2: "Single Substitution lookup 41 subtable" ordmasculine
Substitution2: "'c2sc' Capitals to Small Capitals lookup 27 subtable" o.sc
AlternateSubs2: "'aalt' Access All Alternates lookup 1 subtable" ordmasculine o.sc
Position2: "'cpsp' Capital Spacing lookup 0 subtable" dx=5 dy=0 dh=10 dv=0
EndChar

StartChar: P
Encoding: 80 80 83
Width: 562
GlyphClass: 2
Flags: MW
HStem: 0 21G<82 117 82 82> 276 32<160 264 156 268> 651 31<208 321 208 208>
VStem: 506 36<463 564.5>
LayerCount: 2
Fore
SplineSet
323 682 m 2
 463 682 542 631 542 515 c 0
 542 396 480 276 264 276 c 2
 156 276 l 1
 117 0 l 1
 82 0 l 1
 178 682 l 1
 323 682 l 2
268 308 m 2
 457 308 506 411 506 515 c 0
 506 614 440 651 321 651 c 2
 208 651 l 1
 160 308 l 1
 268 308 l 2
EndSplineSet
Substitution2: "'c2sc' Capitals to Small Capitals lookup 23 subtable" p.sc
Substitution2: "'aalt' Access All Alternates lookup 0 subtable" p.sc
Position2: "'cpsp' Capital Spacing lookup 0 subtable" dx=5 dy=0 dh=10 dv=0
EndChar

StartChar: Q
Encoding: 81 81 85
Width: 675
GlyphClass: 2
Flags: MW
HStem: -10 21<238.5 369> -10 32<250 369> 661 32<294 464>
VStem: 79 36<178.5 335 178.5 345> 598 36<350 506>
LayerCount: 2
Fore
SplineSet
634 426 m 0x78
 634 274 575 61 405 11 c 1
 475 8 545 -11 593 -59 c 1xb8
 567 -86 l 1
 504 -24 429 -10 309 -10 c 0
 168 -10 79 85 79 259 c 0
 79 431 162 693 405 693 c 0
 545 693 634 601 634 426 c 0x78
115 256 m 0
 115 101 191 22 309 22 c 0
 536 22 598 271 598 428 c 0
 598 584 524 661 404 661 c 0
 184 661 115 414 115 256 c 0
EndSplineSet
Substitution2: "'c2sc' Capitals to Small Capitals lookup 23 subtable" q.sc
Substitution2: "'aalt' Access All Alternates lookup 0 subtable" q.sc
Position2: "'cpsp' Capital Spacing lookup 0 subtable" dx=5 dy=0 dh=10 dv=0
EndChar

StartChar: T
Encoding: 84 84 96
Width: 479
GlyphClass: 2
Flags: MW
HStem: 0 21G<185 220 185 185> 649 33<74 277 69 528 312 518 312 312>
VStem: 69 459<649 682>
AnchorPoint: "Anchor-11" 203 0 basechar 0
AnchorPoint: "Anchor-10" 0 0 basechar 0
AnchorPoint: "Anchor-9" 290 682 basechar 0
AnchorPoint: "Anchor-8" 0 0 basechar 0
LayerCount: 2
Fore
SplineSet
518 649 m 1
 312 649 l 1
 220 0 l 1
 185 0 l 1
 277 649 l 1
 69 649 l 1
 74 682 l 1
 528 682 l 1
 518 649 l 1
EndSplineSet
Substitution2: "'c2sc' Capitals to Small Capitals lookup 23 subtable" t.sc
Substitution2: "'aalt' Access All Alternates lookup 0 subtable" t.sc
Position2: "'cpsp' Capital Spacing lookup 0 subtable" dx=5 dy=0 dh=10 dv=0
EndChar
StartChar: V
Encoding: 86 86 282
Width: 539
GlyphClass: 2
Flags: MW
HStem: 0 34<236 236 236 253 210 236> 662 20G<83 119 119 119 537 574 574 574>
VStem: 83 491<682 682>
LayerCount: 2
Back
Fore
SplineSet
574 682 m 1
 253 0 l 1
 210 0 l 1
 83 682 l 1
 119 682 l 1
 236 34 l 1
 537 682 l 1
 574 682 l 1
EndSplineSet
Substitution2: "'c2sc' Capitals to Small Capitals lookup 27 subtable" v.sc
Substitution2: "'aalt' Access All Alternates lookup 0 subtable" v.sc
Position2: "'cpsp' Capital Spacing lookup 0 subtable" dx=5 dy=0 dh=10 dv=0
EndChar
StartChar: W
Encoding: 87 87 285
Width: 798
GlyphClass: 2
Flags: MW
HStem: 0 36<552 552 552 568 527 552> 646 36<453 453>
VStem: 93 729<682 682>
AnchorPoint: "Anchor-14" 0 0 basechar 0
AnchorPoint: "Anchor-13" 0 0 basechar 0
AnchorPoint: "Anchor-12" 458 682 basechar 0
AnchorPoint: "Anchor-11" 0 0 basechar 0
AnchorPoint: "Anchor-10" 0 0 basechar 0
LayerCount: 2
Back
Fore
SplineSet
822 682 m 1
 568 0 l 1
 527 0 l 1
 453 646 l 1
 196 0 l 1
 155 0 l 1
 93 682 l 1
 129 682 l 1
 182 38 l 1
 436 682 l 1
 479 682 l 1
 552 36 l 1
 787 682 l 1
 822 682 l 1
EndSplineSet
Substitution2: "'c2sc' Capitals to Small Capitals lookup 27 subtable" w.sc
Substitution2: "'aalt' Access All Alternates lookup 0 subtable" w.sc
Position2: "'cpsp' Capital Spacing lookup 0 subtable" dx=5 dy=0 dh=10 dv=0
EndChar
StartChar: X
Encoding: 88 88 292
Width: 492
GlyphClass: 2
Flags: MW
HStem: 0 21G<-23 16 -23 -23 407 444 407 407> 662 20G<95 134 134 134 470 509 509 509>
VStem: -23 532
LayerCount: 2
Back
Fore
SplineSet
281 370 m 1
 280 369 l 1
 444 0 l 1
 407 0 l 1
 256 342 l 1
 16 0 l 1
 -23 0 l 1
 238 370 l 1
 239 371 l 1
 95 682 l 1
 134 682 l 1
 262 395 l 1
 470 682 l 1
 509 682 l 1
 281 370 l 1
EndSplineSet
Substitution2: "'c2sc' Capitals to Small Capitals lookup 27 subtable" x.sc
Substitution2: "'aalt' Access All Alternates lookup 0 subtable" x.sc
Position2: "'cpsp' Capital Spacing lookup 0 subtable" dx=5 dy=0 dh=10 dv=0
EndChar
StartChar: Y
Encoding: 89 89 293
Width: 503
GlyphClass: 2
Flags: MW
HStem: 0 21G<198 233 198 198> 662 20G<78 116 116 116 503 543 543 543>
VStem: 78 465<682 682>
AnchorPoint: "Anchor-14" 0 0 basechar 0
AnchorPoint: "Anchor-13" 0 0 basechar 0
AnchorPoint: "Anchor-12" 307 682 basechar 0
AnchorPoint: "Anchor-11" 0 0 basechar 0
AnchorPoint: "Anchor-10" 216 0 basechar 0
LayerCount: 2
Back
Fore
SplineSet
543 682 m 1
 272 271 l 1
 233 0 l 1
 198 0 l 1
 236 270 l 1
 78 682 l 1
 116 682 l 1
 257 304 l 1
 503 682 l 1
 543 682 l 1
EndSplineSet
Substitution2: "'c2sc' Capitals to Small Capitals lookup 27 subtable" y.sc
Substitution2: "'aalt' Access All Alternates lookup 0 subtable" y.sc
Position2: "'cpsp' Capital Spacing lookup 0 subtable" dx=5 dy=0 dh=10 dv=0
EndChar

StartChar: Z
Encoding: 90 90 124
Width: 511
GlyphClass: 2
Flags: MW
HStem: 0 33<50 409> 650 32<136 474 132 521>
VStem: 2 519
AnchorPoint: "Anchor-11" 0 0 basechar 0
AnchorPoint: "Anchor-10" 0 0 basechar 0
AnchorPoint: "Anchor-9" 316 682 basechar 0
AnchorPoint: "Anchor-8" 0 0 basechar 0
LayerCount: 2
Fore
SplineSet
517 652 m 1
 50 33 l 1
 419 33 l 1
 409 0 l 1
 2 0 l 1
 7 31 l 1
 474 650 l 1
 132 650 l 1
 136 682 l 1
 521 682 l 1
 517 652 l 1
EndSplineSet
Substitution2: "'c2sc' Capitals to Small Capitals lookup 23 subtable" z.sc
Substitution2: "'aalt' Access All Alternates lookup 0 subtable" z.sc
Position2: "'cpsp' Capital Spacing lookup 0 subtable" dx=5 dy=0 dh=10 dv=0
EndChar
StartChar: bracketleft
Encoding: 91 91 2148
Width: 313
Flags: MW
HStem: -109 26<80 183> 774 26<201 308 201 201>
VStem: 46 265
LayerCount: 2
Back
Fore
SplineSet
311 800 m 1
 308 774 l 1
 201 774 l 1
 80 -83 l 1
 187 -83 l 1
 183 -109 l 1
 46 -109 l 1
 174 800 l 1
 311 800 l 1
EndSplineSet
Substitution2: "'case' Case-Sensitive Forms lookup 29 subtable" bracketleft.case
Substitution2: "'aalt' Access All Alternates lookup 0 subtable" bracketleft.case
EndChar
StartChar: backslash
Encoding: 92 92 2119
Width: 520
Flags: MW
HStem: -97 896<234 310>
VStem: 203 138
LayerCount: 2
Back
Fore
SplineSet
234 799 m 1
 341 -89 l 1
 310 -97 l 1
 203 792 l 1
 234 799 l 1
EndSplineSet
EndChar
StartChar: bracketright
Encoding: 93 93 2149
Width: 313
Flags: MW
HStem: -109 26<29 136 29 164 26 136> 774 26<154 257 151 292>
VStem: 26 266
LayerCount: 2
Back
Fore
SplineSet
292 800 m 1
 164 -109 l 1
 26 -109 l 1
 29 -83 l 1
 136 -83 l 1
 257 774 l 1
 151 774 l 1
 154 800 l 1
 292 800 l 1
EndSplineSet
Substitution2: "'case' Case-Sensitive Forms lookup 29 subtable" bracketright.case
Substitution2: "'aalt' Access All Alternates lookup 0 subtable" bracketright.case
EndChar
StartChar: asciicircum
Encoding: 94 94 2389
Width: 524
GlyphClass: 2
Flags: MW
HStem: 527 300<106 354 106 354 329 494 329 452>
VStem: 106 388<527 527>
LayerCount: 2
Back
Fore
SplineSet
354 827 m 1
 494 527 l 1
 452 527 l 1
 337 786 l 1
 149 527 l 1
 106 527 l 1
 329 827 l 1
 354 827 l 1
EndSplineSet
EndChar
StartChar: underscore
Encoding: 95 95 2137
Width: 520
Flags: MW
HStem: -107 31<-15 437 -10 433>
VStem: -15 452<-107 -76>
LayerCount: 2
Back
Fore
SplineSet
-15 -107 m 1
 -10 -76 l 1
 437 -76 l 1
 433 -107 l 1
 -15 -107 l 1
EndSplineSet
EndChar
StartChar: grave
Encoding: 96 96 2524
Width: 256
Flags: MW
HStem: 714 20G<97 97>
VStem: 97 185<672 734>
LayerCount: 2
Back
Fore
SplineSet
117 769 m 1
 282 672 l 1
 269 650 l 1
 97 734 l 1
 117 769 l 1
EndSplineSet
Substitution2: "'case' Case-Sensitive Forms lookup 29 subtable" grave.case
Substitution2: "'smcp' Lowercase to Small Capitals lookup 28 subtable" grave.sc
Substitution2: "'c2sc' Capitals to Small Capitals lookup 27 subtable" grave.sc
AlternateSubs2: "'aalt' Access All Alternates lookup 1 subtable" grave.sc grave.case
EndChar

StartChar: a
Encoding: 97 97 134
Width: 553
GlyphClass: 2
Flags: MW
HStem: -10 31<187.5 261> 502 29<242.5 350.5>
VStem: 64 35<138 255.5 138 262.5> 391 31
AnchorPoint: "Anchor-11" 0 0 basechar 0
AnchorPoint: "Anchor-10" 0 0 basechar 0
AnchorPoint: "Anchor-9" 333 520 basechar 0
AnchorPoint: "Anchor-8" 454 -10 basechar 0
LayerCount: 2
Fore
SplineSet
324 531 m 0
 396 531 438 512 481 488 c 1
 425 110 l 2
 423 94 422 82 422 71 c 0
 422 36 434 24 455 15 c 1
 445 -10 l 1
 408 1 385 21 391 89 c 1
 353 30 296 -10 226 -10 c 0
 125 -10 64 65 64 193 c 0
 64 332 133 531 324 531 c 0
326 502 m 0
 159 502 99 317 99 194 c 0
 99 82 146 21 229 21 c 0
 298 21 351 64 397 141 c 1
 445 472 l 1
 414 490 375 502 326 502 c 0
EndSplineSet
Substitution2: "Single Substitution lookup 30 subtable" ordfeminine
Substitution2: "'smcp' Lowercase to Small Capitals lookup 24 subtable" a.sc
AlternateSubs2: "'aalt' Access All Alternates lookup 1 subtable" ordfeminine a.sc
EndChar
StartChar: b
Encoding: 98 98 371
Width: 567
GlyphClass: 2
Flags: MW
HStem: -10 31<214.5 331 214.5 342.5> 500 31<312 386.5> 719 20G<216 216>
VStem: 469 35<280 394>
AnchorPoint: "Anchor-14" 0 0 basechar 0
AnchorPoint: "Anchor-13" 0 0 basechar 0
AnchorPoint: "Anchor-12" 359 734 basechar 0
AnchorPoint: "Anchor-11" 0 0 basechar 0
AnchorPoint: "Anchor-10" 246 0 basechar 0
LayerCount: 2
Back
Fore
SplineSet
216 739 m 1
 175 445 l 1
 220 495 277 531 347 531 c 0
 449 531 504 463 504 339 c 0
 504 199 443 -10 242 -10 c 0
 184 -10 143 -1 81 23 c 1
 182 734 l 1
 216 739 l 1
346 500 m 0
 270 500 219 460 168 403 c 1
 119 45 l 1
 152 31 187 21 242 21 c 0
 420 21 469 219 469 341 c 0
 469 447 427 500 346 500 c 0
EndSplineSet
Substitution2: "'smcp' Lowercase to Small Capitals lookup 28 subtable" b.sc
Substitution2: "'aalt' Access All Alternates lookup 0 subtable" b.sc
EndChar

StartChar: c
Encoding: 99 99 147
Width: 462
GlyphClass: 2
Flags: MW
HStem: -10 31<204 274.5 204 278> 500 31<238.5 345>
VStem: 65 35<139 258 139 265.5>
AnchorPoint: "Anchor-11" 246 0 basechar 0
AnchorPoint: "Anchor-10" 0 0 basechar 0
AnchorPoint: "Anchor-9" 324 520 basechar 0
AnchorPoint: "Anchor-8" 0 0 basechar 0
LayerCount: 2
Fore
SplineSet
320 531 m 0
 375 531 418 515 453 480 c 1
 432 458 l 1
 404 486 369 500 321 500 c 0
 156 500 100 318 100 198 c 0
 100 80 160 21 248 21 c 0
 301 21 343 40 382 68 c 1
 399 43 l 1
 356 10 306 -10 250 -10 c 0
 135 -10 65 63 65 198 c 0
 65 333 132 531 320 531 c 0
EndSplineSet
Substitution2: "'smcp' Lowercase to Small Capitals lookup 24 subtable" c.sc
Substitution2: "'aalt' Access All Alternates lookup 0 subtable" c.sc
EndChar

StartChar: d
Encoding: 100 100 153
Width: 576
GlyphClass: 2
Flags: MW
HStem: -10 31<189.5 270.5> 0 21G 501 30<237.5 352> 714 20G<530 530> 719 20G<496 496>
VStem: 69 35<138 256.5 138 261>
LayerCount: 2
Fore
SplineSet
530 734 m 1xb4
 426 0 l 1
 397 0 l 1x6c
 409 120 l 1
 372 54 315 -10 226 -10 c 0
 130 -10 69 65 69 193 c 0
 69 329 131 531 314 531 c 0
 392 531 433 491 456 454 c 1
 496 739 l 1xac
 530 734 l 1xb4
316 501 m 0
 159 501 104 319 104 194 c 0
 104 82 151 21 228 21 c 0xac
 314 21 366 87 418 179 c 1
 450 414 l 1
 426 461 388 501 316 501 c 0
EndSplineSet
Substitution2: "'smcp' Lowercase to Small Capitals lookup 24 subtable" d.sc
Substitution2: "'aalt' Access All Alternates lookup 0 subtable" d.sc
EndChar

StartChar: f
Encoding: 102 102 167
Width: 311
GlyphClass: 2
Flags: MW
HStem: -197 21G<-32 -32> 491 29<65 150 60 154 187 323> 709 30<283.5 332.5>
VStem: -43 473
LayerCount: 2
Fore
SplineSet
314 709 m 0
 253 709 210 681 200 612 c 2
 187 520 l 1
 332 520 l 1
 323 491 l 1
 183 491 l 1
 116 8 l 2
 98 -125 56 -156 -32 -197 c 1
 -43 -170 l 1
 31 -134 66 -106 83 11 c 2
 150 491 l 1
 60 491 l 1
 65 520 l 1
 154 520 l 1
 167 616 l 2
 178 695 235 739 316 739 c 0
 357 739 392 727 430 705 c 1
 414 680 l 1
 378 700 351 709 314 709 c 0
EndSplineSet
Substitution2: "'smcp' Lowercase to Small Capitals lookup 24 subtable" f.sc
Substitution2: "'aalt' Access All Alternates lookup 0 subtable" f.sc
EndChar

StartChar: h
Encoding: 104 104 173
Width: 582
GlyphClass: 2
Flags: MW
HStem: 0 21G<77 111 77 77 402 436 402 402> 501 30<331.5 401.5> 720 20G<215 215>
VStem: 456.85 34.23
AnchorPoint: "Anchor-11" 252 0 basechar 0
AnchorPoint: "Anchor-10" 0 0 basechar 0
AnchorPoint: "Anchor-9" 363 734 basechar 0
AnchorPoint: "Anchor-8" 0 0 basechar 0
LayerCount: 2
Fore
SplineSet
371 531 m 0
 464 531 503 471 488 369 c 2
 436 0 l 1
 402 0 l 1
 454 367 l 2
 467 459 437 501 366 501 c 0
 282 501 213 422 155 310 c 1
 111 0 l 1
 77 0 l 1
 181 734 l 1
 215 740 l 1
 163 372 l 1
 215 472 292 531 371 531 c 0
EndSplineSet
Substitution2: "'smcp' Lowercase to Small Capitals lookup 24 subtable" h.sc
Substitution2: "'aalt' Access All Alternates lookup 0 subtable" h.sc
EndChar

StartChar: i
Encoding: 105 105 176
Width: 261
GlyphClass: 2
Flags: MW
HStem: 0 21G<77 111 77 77> 500 20G<151 185 185 185> 679 55<186.5 199.5>
VStem: 165 56
AnchorPoint: "Anchor-11" 0 0 basechar 0
AnchorPoint: "Anchor-10" 0 0 basechar 0
AnchorPoint: "Anchor-9" 168 520 basechar 0
AnchorPoint: "Anchor-8" 121 0 basechar 0
LayerCount: 2
Fore
SplineSet
195 734 m 0
 214 734 223 721 221 705 c 0
 219 690 208 679 191 679 c 0
 173 679 163 692 165 709 c 0
 167 723 178 734 195 734 c 0
111 0 m 1
 77 0 l 1
 151 520 l 1
 185 520 l 1
 111 0 l 1
EndSplineSet
Substitution2: "'smcp' Lowercase to Small Capitals lookup 24 subtable" i.sc
Substitution2: "'locl' Localized Forms in Latin lookup 10 subtable" i.loclTRK
Substitution2: "'locl' Localized Forms in Latin lookup 8 subtable" i.loclTRK
Substitution2: "'locl' Localized Forms in Latin lookup 6 subtable" i.loclTRK
Substitution2: "'locl' Localized Forms in Latin lookup 3 subtable" i.loclTRK
Substitution2: "'locl' Localized Forms in Latin lookup 2 subtable" i.loclTRK
AlternateSubs2: "'aalt' Access All Alternates lookup 1 subtable" i.loclTRK i.sc
EndChar
StartChar: j
Encoding: 106 106 497
Width: 262
GlyphClass: 2
Flags: MW
HStem: -197 21G<-36 -36> 500 20G<151 185 185 185> 679 55<187.5 200.5>
VStem: 166 56
AnchorPoint: "Anchor-14" 0 0 basechar 0
AnchorPoint: "Anchor-13" 0 0 basechar 0
AnchorPoint: "Anchor-12" 197 734 basechar 0
AnchorPoint: "Anchor-11" 0 0 basechar 0
AnchorPoint: "Anchor-10" 63 -194 basechar 0
LayerCount: 2
Back
Fore
SplineSet
196 734 m 0
 215 734 224 721 222 705 c 0
 220 690 209 679 192 679 c 0
 174 679 164 692 166 709 c 0
 168 723 179 734 196 734 c 0
185 520 m 1
 112 8 l 2
 94 -125 52 -156 -36 -197 c 1
 -46 -171 l 1
 28 -135 63 -106 79 11 c 2
 151 520 l 1
 185 520 l 1
EndSplineSet
Substitution2: "'smcp' Lowercase to Small Capitals lookup 28 subtable" j.sc
Substitution2: "'aalt' Access All Alternates lookup 0 subtable" j.sc
EndChar

StartChar: k
Encoding: 107 107 191
Width: 506
GlyphClass: 2
Flags: MW
HStem: 0 21G<77 111 77 77 385 422 385 385> 502 29<331.5 395> 719 20G<215 215>
VStem: 447 35<382.5 445>
AnchorPoint: "Anchor-11" 242 0 basechar 0
AnchorPoint: "Anchor-10" 0 0 basechar 0
AnchorPoint: "Anchor-9" 0 0 basechar 0
AnchorPoint: "Anchor-8" 0 0 basechar 0
LayerCount: 2
Fore
SplineSet
162 368 m 1
 223 484 295 531 368 531 c 0
 436 531 482 492 482 424 c 0
 482 338 418 275 303 239 c 1
 422 0 l 1
 385 0 l 1
 261 252 l 1
 381 285 447 343 447 422 c 0
 447 468 425 502 365 502 c 0
 281 502 211 421 152 297 c 1
 111 0 l 1
 77 0 l 1
 181 734 l 1
 215 739 l 1
 162 368 l 1
EndSplineSet
Substitution2: "'smcp' Lowercase to Small Capitals lookup 24 subtable" k.sc
Substitution2: "'aalt' Access All Alternates lookup 0 subtable" k.sc
EndChar
StartChar: l
Encoding: 108 108 511
Width: 278
GlyphClass: 2
Flags: MW
HStem: -10 31<139 161.5> 719 20G<210 210>
VStem: 84 33<78 82>
AnchorPoint: "Anchor-14" 280 375 basechar 0
AnchorPoint: "Anchor-13" 238 734 basechar 0
AnchorPoint: "Anchor-12" 193 734 basechar 0
AnchorPoint: "Anchor-11" 0 0 basechar 0
AnchorPoint: "Anchor-10" 146 0 basechar 0
LayerCount: 2
Back
Fore
SplineSet
210 739 m 1
 117 78 l 2
 112 40 122 21 156 21 c 0
 170 21 184 25 196 29 c 1
 204 1 l 1
 189 -5 170 -10 153 -10 c 0
 102 -10 75 18 84 82 c 2
 176 734 l 1
 210 739 l 1
EndSplineSet
Substitution2: "'smcp' Lowercase to Small Capitals lookup 28 subtable" l.sc
Substitution2: "'sups' Superscript lookup 15 subtable" uni02E1
AlternateSubs2: "'aalt' Access All Alternates lookup 1 subtable" uni02E1 l.sc
EndChar

StartChar: n
Encoding: 110 110 201
Width: 582
GlyphClass: 2
Flags: MW
HStem: 0 21G<77 111 77 77 402 436 402 402> 500 20G<151 179 179 179> 501 30<331.5 401.5>
VStem: 456.85 34.23
AnchorPoint: "Anchor-11" 252 0 basechar 0
AnchorPoint: "Anchor-10" 141 520 basechar 0
AnchorPoint: "Anchor-9" 334 520 basechar 0
AnchorPoint: "Anchor-8" 0 0 basechar 0
LayerCount: 2
Fore
SplineSet
371 531 m 0xb0
 464 531 503 471 488 369 c 2
 436 0 l 1
 402 0 l 1
 454 367 l 2
 467 459 437 501 366 501 c 0xb0
 284 501 213 422 155 310 c 1
 111 0 l 1
 77 0 l 1
 151 520 l 1
 179 520 l 1xd0
 162 371 l 1
 215 471 292 531 371 531 c 0xb0
EndSplineSet
Substitution2: "'smcp' Lowercase to Small Capitals lookup 24 subtable" n.sc
Substitution2: "'aalt' Access All Alternates lookup 0 subtable" n.sc
EndChar
StartChar: o
Encoding: 111 111 551
Width: 562
GlyphClass: 2
Flags: MW
HStem: -10 31<198.5 327.5 198.5 341.5> 501 30<233 364>
VStem: 64 35<139 253.5 139 264.5> 463 35<266 383>
AnchorPoint: "Anchor-14" 0 0 basechar 0
AnchorPoint: "Anchor-13" 493 520 basechar 0
AnchorPoint: "Anchor-12" 319 520 basechar 0
AnchorPoint: "Anchor-11" 0 0 basechar 0
AnchorPoint: "Anchor-10" 245 0 basechar 0
LayerCount: 2
Back
Fore
SplineSet
318 531 m 0
 431 531 498 459 498 327 c 0
 498 196 438 -10 245 -10 c 0
 130 -10 64 66 64 198 c 0
 64 331 127 531 318 531 c 0
317 501 m 0
 149 501 99 311 99 196 c 0
 99 82 152 21 245 21 c 0
 410 21 463 206 463 326 c 0
 463 440 411 501 317 501 c 0
EndSplineSet
Substitution2: "Single Substitution lookup 41 subtable" ordmasculine
Substitution2: "'smcp' Lowercase to Small Capitals lookup 28 subtable" o.sc
AlternateSubs2: "'aalt' Access All Alternates lookup 1 subtable" ordmasculine o.sc
EndChar

StartChar: p
Encoding: 112 112 220
Width: 571
GlyphClass: 2
Flags: MW
HStem: -200 21G<49 49> -10 31<217 330 213.5 341.5> 500 20 500 31<311.5 385.5>
VStem: 469 34<280 394>
LayerCount: 2
Fore
SplineSet
346 531 m 0xd8
 448 531 503 463 503 339 c 0
 503 199 442 -10 241 -10 c 0
 193 -10 157 -4 112 12 c 1
 84 -196 l 1
 49 -200 l 1
 151 520 l 1
 180 520 l 1xe8
 171 444 l 1
 221 497 277 531 346 531 c 0xd8
345 500 m 0
 269 500 219 460 167 403 c 1
 118 45 l 1
 151 31 186 21 241 21 c 0
 419 21 469 219 469 341 c 0
 469 447 426 500 345 500 c 0
EndSplineSet
Substitution2: "'smcp' Lowercase to Small Capitals lookup 24 subtable" p.sc
Substitution2: "'aalt' Access All Alternates lookup 0 subtable" p.sc
EndChar

StartChar: q
Encoding: 113 113 222
Width: 560
GlyphClass: 2
Flags: MW
HStem: -200 21G<355 355> -10 31<187.5 261> 502 29<242.5 350.5>
VStem: 64 35<138 255.5 138 262.5>
LayerCount: 2
Fore
SplineSet
324 531 m 0
 396 531 438 512 481 488 c 1
 387 -196 l 1
 355 -200 l 1
 394 88 l 1
 356 30 296 -10 226 -10 c 0
 125 -10 64 65 64 193 c 0
 64 332 133 531 324 531 c 0
326 502 m 0
 159 502 99 317 99 194 c 0
 99 82 146 21 229 21 c 0
 298 21 355 64 400 141 c 1
 445 472 l 1
 414 490 375 502 326 502 c 0
EndSplineSet
Substitution2: "'smcp' Lowercase to Small Capitals lookup 24 subtable" q.sc
Substitution2: "'aalt' Access All Alternates lookup 0 subtable" q.sc
EndChar

StartChar: s
Encoding: 115 115 227
Width: 461
GlyphClass: 2
Flags: MW
HStem: -10 31<157.5 237.5 157.5 262> 500 31<217.5 286>
VStem: 86 35<375 430 375 436.5> 352 35<102.5 169>
AnchorPoint: "Anchor-11" 193 0 basechar 0
AnchorPoint: "Anchor-10" 0 0 basechar 0
AnchorPoint: "Anchor-9" 267 520 basechar 0
AnchorPoint: "Anchor-8" 0 0 basechar 0
LayerCount: 2
Fore
SplineSet
259 531 m 0
 319 531 367 513 410 476 c 1
 388 452 l 1
 350 485 313 500 259 500 c 0
 176 500 121 461 121 399 c 0
 121 351 145 320 241 291 c 0
 347 258 387 214 387 142 c 0
 387 63 330 -10 194 -10 c 0
 110 -10 58 19 17 57 c 1
 38 80 l 1
 80 43 123 21 192 21 c 0
 283 21 352 58 352 141 c 0
 352 197 325 231 226 263 c 1
 117 297 86 338 86 398 c 0
 86 475 158 531 259 531 c 0
EndSplineSet
Substitution2: "'smcp' Lowercase to Small Capitals lookup 24 subtable" s.sc
Substitution2: "'aalt' Access All Alternates lookup 0 subtable" s.sc
EndChar

StartChar: t
Encoding: 116 116 234
Width: 327
GlyphClass: 2
Flags: MW
HStem: -10 30<164.5 210.5 164.5 210.5> 491 29<60 141 56 146 179 312>
VStem: 56 265<491 520>
AnchorPoint: "Anchor-11" 186 0 basechar 0
AnchorPoint: "Anchor-10" 0 0 basechar 0
AnchorPoint: "Anchor-9" 0 0 basechar 0
AnchorPoint: "Anchor-8" 0 0 basechar 0
LayerCount: 2
Fore
SplineSet
123 121 m 2
 114 55 135 20 194 20 c 0
 227 20 258 32 286 47 c 1
 299 20 l 1
 266 2 231 -10 190 -10 c 0
 120 -10 77 33 89 119 c 2
 141 491 l 1
 56 491 l 1
 60 520 l 1
 146 520 l 1
 172 650 l 1
 198 653 l 1
 179 520 l 1
 321 520 l 1
 312 491 l 1
 175 491 l 1
 123 121 l 2
EndSplineSet
Substitution2: "'smcp' Lowercase to Small Capitals lookup 24 subtable" t.sc
Substitution2: "'aalt' Access All Alternates lookup 0 subtable" t.sc
EndChar

StartChar: v
Encoding: 118 118 250
Width: 454
GlyphClass: 2
Flags: MW
HStem: 0 30<197 197 197 216 172 197> 500 20G<56 93 93 93 433 472 472 472>
VStem: 56 416<520 520>
LayerCount: 2
Fore
SplineSet
216 0 m 1
 172 0 l 1
 56 520 l 1
 93 520 l 1
 197 30 l 1
 433 520 l 1
 472 520 l 1
 216 0 l 1
EndSplineSet
Substitution2: "'smcp' Lowercase to Small Capitals lookup 24 subtable" v.sc
Substitution2: "'aalt' Access All Alternates lookup 0 subtable" v.sc
EndChar
StartChar: w
Encoding: 119 119 690
Width: 685
GlyphClass: 2
Flags: MW
HStem: 0 30<467 467 467 486 441 467> 487 33<377 377>
VStem: 66 626<520 520>
AnchorPoint: "Anchor-14" 0 0 basechar 0
AnchorPoint: "Anchor-13" 0 0 basechar 0
AnchorPoint: "Anchor-12" 381 520 basechar 0
AnchorPoint: "Anchor-11" 0 0 basechar 0
AnchorPoint: "Anchor-10" 309 0 basechar 0
LayerCount: 2
Back
Fore
SplineSet
692 520 m 1
 486 0 l 1
 441 0 l 1
 377 487 l 1
 176 0 l 1
 129 0 l 1
 66 520 l 1
 100 520 l 1
 157 31 l 1
 360 520 l 1
 402 520 l 1
 467 30 l 1
 658 520 l 1
 692 520 l 1
EndSplineSet
Substitution2: "'smcp' Lowercase to Small Capitals lookup 28 subtable" w.sc
Substitution2: "'aalt' Access All Alternates lookup 0 subtable" w.sc
EndChar

StartChar: x
Encoding: 120 120 256
Width: 440
GlyphClass: 2
Flags: MW
HStem: 0 21G<-23 17 -23 -23 350 388 350 350> 500 20G<76 114 114 114 398 438 438 438>
VStem: -23 461
LayerCount: 2
Fore
SplineSet
243 277 m 1
 388 0 l 1
 350 0 l 1
 218 256 l 1
 17 0 l 1
 -23 0 l 1
 201 280 l 1
 76 520 l 1
 114 520 l 1
 225 301 l 1
 398 520 l 1
 438 520 l 1
 243 277 l 1
EndSplineSet
Substitution2: "'smcp' Lowercase to Small Capitals lookup 24 subtable" x.sc
Substitution2: "'aalt' Access All Alternates lookup 0 subtable" x.sc
EndChar
StartChar: y
Encoding: 121 121 699
Width: 450
GlyphClass: 2
Flags: MW
HStem: -198 21G<-5 -5> 0 21G<167 167> 0 25 500 20G<56 92 92 92 430 468 468 468>
VStem: -8 476
AnchorPoint: "Anchor-14" 0 0 basechar 0
AnchorPoint: "Anchor-13" 0 0 basechar 0
AnchorPoint: "Anchor-12" 255 520 basechar 0
AnchorPoint: "Anchor-11" 0 0 basechar 0
AnchorPoint: "Anchor-10" 158 -194 basechar 0
LayerCount: 2
Back
Fore
SplineSet
468 520 m 1xd8
 215 -3 l 2
 159 -118 113 -167 -5 -198 c 1
 -8 -170 l 1
 101 -140 131 -98 182 1 c 1
 167 0 l 1
 56 520 l 1
 92 520 l 1
 194 25 l 1xb8
 430 520 l 1
 468 520 l 1xd8
EndSplineSet
Substitution2: "'smcp' Lowercase to Small Capitals lookup 28 subtable" y.sc
Substitution2: "'aalt' Access All Alternates lookup 0 subtable" y.sc
EndChar

StartChar: z
Encoding: 122 122 262
Width: 411
GlyphClass: 2
Flags: MW
HStem: 0 31<42 331> 489 31<91 365 87 414>
VStem: -7 421
AnchorPoint: "Anchor-11" 0 0 basechar 0
AnchorPoint: "Anchor-10" 0 0 basechar 0
AnchorPoint: "Anchor-9" 251 520 basechar 0
AnchorPoint: "Anchor-8" 0 0 basechar 0
LayerCount: 2
Fore
SplineSet
409 493 m 1
 42 31 l 1
 339 31 l 1
 331 0 l 1
 -7 0 l 1
 -3 28 l 1
 365 489 l 1
 87 489 l 1
 91 520 l 1
 414 520 l 1
 409 493 l 1
EndSplineSet
Substitution2: "'smcp' Lowercase to Small Capitals lookup 24 subtable" z.sc
Substitution2: "'aalt' Access All Alternates lookup 0 subtable" z.sc
EndChar
StartChar: braceleft
Encoding: 123 123 2146
Width: 328
Flags: MW
HStem: -125 26<168.5 197> 333 32<71 92> 797 26<297 327>
VStem: 99 31<-15 -13> 139 31.17
LayerCount: 2
Back
Fore
SplineSet
329 823 m 1
 327 797 l 1
 267 797 240 767 232 709 c 2
 195 446 l 2
 186 379 160 359 107 349 c 1
 154 339 178 319 168 250 c 2xf8
 130 -13 l 2
 122 -72 138 -99 199 -99 c 1
 197 -125 l 1
 132 -125 89 -91 99 -15 c 2xf0
 139 263 l 2
 146 316 117 333 67 333 c 1
 71 365 l 1
 118 365 155 384 163 437 c 2
 202 715 l 2xf8
 213 791 258 823 329 823 c 1
EndSplineSet
Substitution2: "'case' Case-Sensitive Forms lookup 29 subtable" braceleft.case
Substitution2: "'aalt' Access All Alternates lookup 0 subtable" braceleft.case
EndChar

StartChar: bar
Encoding: 124 124 1218
Width: 409
Flags: MW
HStem: -99 901<138 297 138 297>
VStem: 138 159
LayerCount: 2
Fore
SplineSet
171 -99 m 1
 138 -99 l 1
 264 802 l 1
 297 802 l 1
 171 -99 l 1
EndSplineSet
EndChar

StartChar: braceright
Encoding: 125 125 1006
Width: 328
Flags: MW
HStem: -125 26<26 56 26 60> 334 31<261 282> 797 26<156 184.5>
VStem: 183.77 31.23 223 31<711 713>
LayerCount: 2
Fore
SplineSet
26 -99 m 1
 86 -99 113 -69 122 -11 c 1
 158 252 l 2
 167 319 194 339 246 349 c 1
 199 360 176 380 186 448 c 2xf8
 223 711 l 2
 231 770 215 797 154 797 c 1
 156 823 l 1
 221 823 264 789 254 713 c 2xe8
 215 435 l 2
 207 382 236 365 286 365 c 1
 282 334 l 1
 235 334 198 314 190 261 c 2
 151 -17 l 2xf8
 140 -93 95 -125 25 -125 c 1
 26 -99 l 1
EndSplineSet
Substitution2: "'case' Case-Sensitive Forms lookup 25 subtable" braceright.case
Substitution2: "'aalt' Access All Alternates lookup 0 subtable" braceright.case
EndChar

StartChar: asciitilde
Encoding: 126 126 1089
Width: 460
Flags: MW
HStem: 273 33<288.5 328.5 288.5 331.5> 329 33<149 189.5>
VStem: 69 338<301 333>
LayerCount: 2
Fore
SplineSet
167 362 m 0
 227 362 265 306 312 306 c 0
 345 306 361 324 385 349 c 1
 407 333 l 1
 377 297 352 273 311 273 c 0xe0
 255 273 212 329 167 329 c 0
 131 329 114 311 90 286 c 1
 69 301 l 1
 99 337 124 362 167 362 c 0
EndSplineSet
Substitution2: "'onum' Oldstyle Figures lookup 22 subtable" asciitilde.osf
Substitution2: "'tnum' Tabular Numbers lookup 21 subtable" asciitilde.tf
AlternateSubs2: "'aalt' Access All Alternates lookup 1 subtable" asciitilde.tf asciitilde.osf
EndChar

StartChar: exclamdown
Encoding: 161 161 988
Width: 239
Flags: MW
HStem: -194 21G<42 75 42 42> 396 64<137.5 153>
VStem: 112 65<420.5 436>
LayerCount: 2
Fore
SplineSet
147 460 m 0
 166 460 177 447 177 430 c 0
 177 411 163 396 143 396 c 0
 124 396 112 409 112 426 c 0
 112 446 128 460 147 460 c 0
75 -194 m 1
 42 -194 l 1
 105 251 l 1
 138 251 l 1
 75 -194 l 1
EndSplineSet
Substitution2: "'case' Case-Sensitive Forms lookup 25 subtable" exclamdown.case
Substitution2: "'aalt' Access All Alternates lookup 0 subtable" exclamdown.case
EndChar
StartChar: cent
Encoding: 162 162 2204
Width: 462
GlyphClass: 2
Flags: MW
HStem: -10 31<249 249> -8 29<218 218> 500 31<325 325 325 343>
VStem: 64 35<138.5 258 138.5 262.5>
LayerCount: 2
Back
Fore
SplineSet
318 500 m 0xb0
 155 500 99 318 99 198 c 0
 99 79 157 21 248 21 c 0
 300 21 342 40 381 68 c 1
 398 43 l 1
 356 10 307 -9 249 -10 c 1xb0
 230 -147 l 1
 199 -147 l 1
 218 -8 l 1x70
 125 3 64 75 64 198 c 0
 64 327 126 514 296 530 c 1
 316 677 l 1
 346 677 l 1
 325 531 l 1
 377 529 418 513 452 480 c 1
 431 458 l 1
 403 484 368 500 318 500 c 0xb0
EndSplineSet
Substitution2: "'onum' Oldstyle Figures lookup 26 subtable" cent.osf
Substitution2: "'tnum' Tabular Numbers lookup 25 subtable" cent.tf
AlternateSubs2: "'aalt' Access All Alternates lookup 1 subtable" cent.tf cent.osf
EndChar
StartChar: sterling
Encoding: 163 163 2213
Width: 506
GlyphClass: 2
Flags: MW
HStem: 0 32<75 398> 338 30<93 154 88 158 192 405 93 187> 643 31<315.5 386.5>
VStem: 22 478
LayerCount: 2
Back
Fore
SplineSet
358 674 m 0
 424 674 466 650 500 603 c 1
 475 585 l 1
 447 624 415 643 358 643 c 0
 273 643 222 583 210 502 c 2
 192 368 l 1
 410 368 l 1
 405 338 l 1
 187 338 l 1
 161 147 l 2
 151 80 126 56 75 32 c 1
 408 32 l 1
 398 0 l 1
 22 0 l 1
 25 31 l 1
 89 61 118 85 127 147 c 2
 154 338 l 1
 88 338 l 1
 93 368 l 1
 158 368 l 1
 177 505 l 2
 190 599 252 674 358 674 c 0
EndSplineSet
Substitution2: "'onum' Oldstyle Figures lookup 26 subtable" sterling.osf
Substitution2: "'tnum' Tabular Numbers lookup 25 subtable" sterling.tf
AlternateSubs2: "'aalt' Access All Alternates lookup 1 subtable" sterling.tf sterling.osf
EndChar

StartChar: yen
Encoding: 165 165 1068
Width: 494
Flags: MW
HStem: 0 21G<194 229 194 194> 160 31<88 217 84 221 256 385> 303 30<108 227 108 237 104 227 291 405>
VStem: 75 457<662 662>
LayerCount: 2
Fore
SplineSet
291 333 m 1
 409 333 l 1
 405 303 l 1
 272 303 l 1
 256 191 l 1
 389 191 l 1
 385 160 l 1
 252 160 l 1
 229 0 l 1
 194 0 l 1
 217 160 l 1
 84 160 l 1
 88 191 l 1
 221 191 l 1
 237 303 l 1
 104 303 l 1
 108 333 l 1
 227 333 l 1
 75 662 l 1
 115 662 l 1
 259 336 l 1
 493 662 l 1
 532 662 l 1
 291 333 l 1
EndSplineSet
Substitution2: "'onum' Oldstyle Figures lookup 22 subtable" yen.osf
Substitution2: "'tnum' Tabular Numbers lookup 21 subtable" yen.tf
AlternateSubs2: "'aalt' Access All Alternates lookup 1 subtable" yen.tf yen.osf
EndChar
StartChar: brokenbar
Encoding: 166 166 2377
Width: 409
GlyphClass: 2
Flags: MW
HStem: -64 831<143 292 143 292>
VStem: 143 149
LayerCount: 2
Back
Fore
SplineSet
292 767 m 1
 242 408 l 1
 209 408 l 1
 259 767 l 1
 292 767 l 1
226 297 m 1
 176 -64 l 1
 143 -64 l 1
 193 297 l 1
 226 297 l 1
EndSplineSet
EndChar
StartChar: section
Encoding: 167 167 2383
Width: 532
GlyphClass: 2
Flags: MW
HStem: -66 31<185.5 261.5> 643 30<282 352.5>
VStem: 100 35<290 337.5 290 341> 159 34<524 565 518.5 584> 354 34<45.5 87.5 25 91.5> 410 33<277.5 317.5>
LayerCount: 2
Back
Fore
SplineSet
326 643 m 0
 227 643 193 589 193 541 c 0
 193 496 221 466 312 433 c 0
 405 401 443 359 443 298 c 0xfc
 443 240 417 201 342 158 c 1
 373 135 388 107 388 68 c 0
 388 -18 312 -66 211 -66 c 0
 146 -66 102 -49 57 -21 c 1
 76 5 l 1
 116 -23 159 -35 212 -35 c 0
 322 -35 354 23 354 68 c 0
 354 115 326 142 241 175 c 0
 147 208 100 248 100 311 c 0xe8
 100 371 133 410 206 452 c 1
 172 477 159 506 159 542 c 0
 159 626 237 673 327 673 c 0
 394 673 433 654 474 628 c 1
 453 602 l 1
 414 629 379 643 326 643 c 0
410 298 m 0xec
 410 337 388 373 302 405 c 0
 272 416 248 426 228 437 c 1
 162 398 135 364 135 311 c 0
 135 269 163 236 253 201 c 0
 279 192 301 183 319 173 c 1
 395 217 410 257 410 298 c 0xec
EndSplineSet
Substitution2: "'onum' Oldstyle Figures lookup 26 subtable" section.osf
Substitution2: "'tnum' Tabular Numbers lookup 25 subtable" section.tf
AlternateSubs2: "'aalt' Access All Alternates lookup 1 subtable" section.tf section.osf
EndChar

StartChar: dieresis
Encoding: 168 168 1257
Width: 290
Flags: MW
HStem: 669 54<112.5 125 287 299.5>
VStem: 91 55 265 55
AnchorPoint: "Anchor-12" 199 643 basemark 0
LayerCount: 2
Fore
SplineSet
120 723 m 0
 138 723 148 710 146 694 c 0
 144 680 133 669 117 669 c 0
 100 669 89 682 91 698 c 0
 93 712 105 723 120 723 c 0
295 723 m 0
 313 723 323 710 320 694 c 0
 318 680 307 669 292 669 c 0
 274 669 263 682 265 698 c 1
 268 712 279 723 295 723 c 0
EndSplineSet
Substitution2: "'case' Case-Sensitive Forms lookup 25 subtable" dieresis.case
Substitution2: "'smcp' Lowercase to Small Capitals lookup 24 subtable" dieresis.sc
Substitution2: "'c2sc' Capitals to Small Capitals lookup 23 subtable" dieresis.sc
AlternateSubs2: "'aalt' Access All Alternates lookup 1 subtable" dieresis.sc dieresis.case
EndChar
StartChar: ordfeminine
Encoding: 170 170 1056
Width: 500
GlyphClass: 2
Flags: MW
HStem: 0 32<48 392 52 388> 276 30<197 248.5> 489 29<290 294 294 375> 652 30<281.5 332.5>
VStem: 106 35<359.5 408 359.5 424> 359 31.4 387 34<584.5 608.5>
LayerCount: 2
Back
Fore
SplineSet
301 682 m 0xfa
 384 682 421 651 421 589 c 0
 421 580 420 571 419 561 c 2xfa
 393 368 l 2
 388 335 387 312 416 299 c 1
 407 276 l 1
 376 285 360 299 359 341 c 1xfc
 322 297 276 276 221 276 c 0
 147 276 106 321 106 382 c 0
 106 466 180 518 290 518 c 2
 380 518 l 1
 385 560 l 2
 387 570 387 578 387 586 c 0
 387 631 365 652 300 652 c 0
 263 652 225 643 184 629 c 1
 176 657 l 1
 220 673 259 682 301 682 c 0xfa
375 489 m 1
 294 489 l 2
 176 489 141 434 141 382 c 0
 141 337 172 306 222 306 c 0
 282 306 328 336 361 383 c 1
 375 489 l 1
48 0 m 1xfc
 52 32 l 1
 392 32 l 1
 388 0 l 1
 48 0 l 1xfc
EndSplineSet
EndChar

StartChar: guillemotleft
Encoding: 171 171 1036
Width: 541
Flags: MW
HStem: 68 441<212 272 272 410>
VStem: 86 405<277 494>
LayerCount: 2
Fore
SplineSet
293 494 m 1
 126 288 l 1
 235 83 l 1
 212 68 l 1
 86 277 l 1
 88 299 l 1
 272 509 l 1
 293 494 l 1
491 494 m 1
 323 288 l 1
 433 83 l 1
 410 68 l 1
 283 277 l 1
 286 299 l 1
 470 509 l 1
 491 494 l 1
EndSplineSet
Substitution2: "'case' Case-Sensitive Forms lookup 25 subtable" guillemotleft.case
Substitution2: "'aalt' Access All Alternates lookup 0 subtable" guillemotleft.case
EndChar

StartChar: logicalnot
Encoding: 172 172 1105
Width: 498
Flags: MW
HStem: 304 33<85 394 80 435>
VStem: 80 355<304 337>
LayerCount: 2
Fore
SplineSet
413 188 m 1
 378 188 l 1
 394 304 l 1
 80 304 l 1
 85 337 l 1
 435 337 l 1
 413 188 l 1
EndSplineSet
Substitution2: "'onum' Oldstyle Figures lookup 22 subtable" logicalnot.osf
Substitution2: "'tnum' Tabular Numbers lookup 21 subtable" logicalnot.tf
AlternateSubs2: "'aalt' Access All Alternates lookup 1 subtable" logicalnot.tf logicalnot.osf
EndChar

StartChar: softhyphen
Encoding: 173 173 1028
Width: 399
Flags: MW
HStem: 297 32<83 330 79 334>
VStem: 79 255<297 329>
LayerCount: 2
Fore
SplineSet
83 329 m 1
 334 329 l 1
 330 297 l 1
 79 297 l 1
 83 329 l 1
EndSplineSet
Substitution2: "'case' Case-Sensitive Forms lookup 25 subtable" softhyphen.case
Substitution2: "'aalt' Access All Alternates lookup 0 subtable" softhyphen.case
EndChar
StartChar: uni00AD
Encoding: 173 173 2169
Width: 399
Flags: MW
HStem: 297 32<79 334 83 330>
VStem: 79 255<297 329>
LayerCount: 2
Back
Fore
SplineSet
79 297 m 1
 83 329 l 1
 334 329 l 1
 330 297 l 1
 79 297 l 1
EndSplineSet
Substitution2: "'case' Case-Sensitive Forms lookup 29 subtable" uni00AD.case
Substitution2: "'aalt' Access All Alternates lookup 0 subtable" uni00AD.case
EndChar

StartChar: macron
Encoding: 175 175 1261
Width: 277
Flags: MW
HStem: 682 32<89 312 94 306>
VStem: 89 223<682 714>
LayerCount: 2
Fore
SplineSet
89 682 m 1
 94 714 l 1
 312 714 l 1
 306 682 l 1
 89 682 l 1
EndSplineSet
Substitution2: "'case' Case-Sensitive Forms lookup 25 subtable" macron.case
Substitution2: "'smcp' Lowercase to Small Capitals lookup 24 subtable" macron.sc
Substitution2: "'c2sc' Capitals to Small Capitals lookup 23 subtable" macron.sc
AlternateSubs2: "'aalt' Access All Alternates lookup 1 subtable" macron.sc macron.case
EndChar

StartChar: degree
Encoding: 176 176 1227
Width: 519
Flags: MW
HStem: 405 31<212.5 275.5 212.5 280.5> 662 31<247.5 310.5>
VStem: 367 33
LayerCount: 2
Fore
SplineSet
242 405 m 0
 169 405 106 460 119 552 c 0
 131 638 207 693 278 693 c 0
 357 693 413 636 400 546 c 1
 389 461 319 405 242 405 c 0
242 436 m 0
 309 436 358 484 367 551 c 0
 376 617 343 662 278 662 c 0
 217 662 162 615 152 547 c 0
 143 482 183 436 242 436 c 0
EndSplineSet
Substitution2: "'onum' Oldstyle Figures lookup 22 subtable" degree.osf
Substitution2: "'tnum' Tabular Numbers lookup 21 subtable" degree.tf
AlternateSubs2: "'aalt' Access All Alternates lookup 1 subtable" degree.tf degree.osf
EndChar

StartChar: plusminus
Encoding: 177 177 1117
Width: 489
Flags: MW
HStem: 0 32<42 378 38 383> 316 32<87 235 82 240 274 422 87 270>
VStem: 38 389<0 348>
LayerCount: 2
Fore
SplineSet
274 348 m 1
 427 348 l 1
 422 316 l 1
 270 316 l 1
 248 162 l 1
 213 162 l 1
 235 316 l 1
 82 316 l 1
 87 348 l 1
 240 348 l 1
 262 502 l 1
 296 502 l 1
 274 348 l 1
42 32 m 1
 383 32 l 1
 378 0 l 1
 38 0 l 1
 42 32 l 1
EndSplineSet
Substitution2: "'onum' Oldstyle Figures lookup 22 subtable" plusminus.osf
Substitution2: "'tnum' Tabular Numbers lookup 21 subtable" plusminus.tf
AlternateSubs2: "'aalt' Access All Alternates lookup 1 subtable" plusminus.tf plusminus.osf
EndChar
StartChar: uni00B2
Encoding: 178 178 2110
Width: 400
Flags: MW
HStem: 323 29.5 663 20G 710 30<202.5 249>
VStem: 296 34
LayerCount: 2
Back
Fore
SplineSet
226 740 m 0
 300 740 338 687 330 625 c 0
 318 541 265 499 99 352 c 1
 302 353 l 1
 292 323 l 1
 53 323 l 1
 56 353 l 1
 241 517 286 555 296 627 c 0
 303 677 274 710 224 710 c 0xb0
 181 710 146 691 120 663 c 1xf0
 96 683 l 1
 138 724 178 740 226 740 c 0
EndSplineSet
EndChar

StartChar: threesuperior
Encoding: 179 179 973
Width: 400
Flags: MW
HStem: 316 29<147 199.5 147 206.5> 526 28<178 196 196 198 170 196> 713 29<209.5 253.5>
VStem: 284 32 302 33
LayerCount: 2
Fore
SplineSet
229 742 m 0xe8
 301 742 343 699 335 637 c 1xe8
 327 583 288 549 236 542 c 1
 287 540 326 503 316 436 c 0
 306 365 248 316 165 316 c 0
 114 316 78 336 50 370 c 1
 73 386 l 1
 100 354 130 345 164 345 c 0
 235 345 276 384 284 440 c 0
 293 503 257 526 198 526 c 2xf0
 170 526 l 1
 178 554 l 1
 196 554 l 2
 240 554 293 579 302 640 c 0
 309 687 278 713 229 713 c 0
 190 713 161 703 123 675 c 1
 106 697 l 1
 144 726 179 742 229 742 c 0xe8
EndSplineSet
EndChar
StartChar: acute
Encoding: 180 180 2517
Width: 258
Flags: MW
HStem: 650 119
VStem: 88 205<673 734>
LayerCount: 2
Back
Fore
SplineSet
281 769 m 1
 293 734 l 1
 97 650 l 1
 88 673 l 1
 281 769 l 1
EndSplineSet
Substitution2: "'case' Case-Sensitive Forms lookup 29 subtable" acute.case
Substitution2: "'smcp' Lowercase to Small Capitals lookup 28 subtable" acute.sc
Substitution2: "'c2sc' Capitals to Small Capitals lookup 27 subtable" acute.sc
Substitution2: "'locl' Localized Forms in Latin lookup 7 subtable" acute.loclPLK
AlternateSubs2: "'aalt' Access All Alternates lookup 1 subtable" acute.loclPLK acute.sc acute.case
EndChar
StartChar: uni00B5
Encoding: 181 181 2264
Width: 582
GlyphClass: 2
Flags: MW
HStem: -196 21G<49 49> -10 31<195 261 195 264> -6 21G<421 421> -1 21G<451 451> 500 20G<151 185 185 185 464 497 497 497>
VStem: 411 30.62
LayerCount: 2
Back
Fore
SplineSet
448 173 m 2xcc
 437 96 441 46 451 -1 c 1x9c
 421 -6 l 1xac
 411 35 408 61 411 111 c 1
 363 44 306 -10 222 -10 c 0
 158 -10 127 18 114 54 c 1
 112 15 108 -20 101 -70 c 2
 83 -194 l 1
 49 -196 l 1
 151 520 l 1
 185 520 l 1
 132 145 l 2
 118 52 166 21 224 21 c 0
 298 21 360 74 412 156 c 1
 464 520 l 1
 497 520 l 1
 448 173 l 2xcc
EndSplineSet
EndChar
StartChar: paragraph
Encoding: 182 182 2380
Width: 690
GlyphClass: 2
Flags: MW
HStem: -200 21G<261 261 432 432> 651 31
VStem: 139.2 450.8
LayerCount: 2
Back
Fore
SplineSet
389 681 m 1
 590 682 l 1
 467 -194 l 1
 432 -200 l 1
 552 651 l 1
 414 651 l 1
 295 -194 l 1
 261 -200 l 1
 332 303 l 1
 170 308 127 393 142 495 c 0
 159 614 247 681 388 681 c 1
 387 674 l 1
 389 681 l 1
EndSplineSet
EndChar
StartChar: periodcentered
Encoding: 183 183 2120
Width: 184
Flags: MW
HStem: 292 65<91.5 107>
VStem: 66 65<316.5 332>
LayerCount: 2
Back
Fore
SplineSet
101 357 m 0
 120 357 131 344 131 326 c 0
 131 307 117 292 97 292 c 0
 78 292 66 305 66 322 c 0
 66 342 82 357 101 357 c 0
EndSplineSet
EndChar
StartChar: cedilla
Encoding: 184 184 2520
Width: 224
Flags: MW
HStem: -218 30<24.5 55.5 24.5 64> -198 21G<-34 -34> -93 23
VStem: 104 35
LayerCount: 2
Back
Fore
SplineSet
70 16 m 1x70
 55 -70 l 1
 112 -74 139 -95 139 -136 c 0
 139 -188 91 -218 37 -218 c 0xb0
 4 -218 -18 -208 -34 -198 c 1x70
 -19 -174 l 1
 -6 -182 12 -188 37 -188 c 0xb0
 74 -188 103 -173 104 -138 c 0
 105 -107 84 -94 22 -93 c 1
 45 16 l 1
 70 16 l 1x70
EndSplineSet
Substitution2: "'case' Case-Sensitive Forms lookup 29 subtable" cedilla.case
Substitution2: "'smcp' Lowercase to Small Capitals lookup 28 subtable" cedilla.sc
Substitution2: "'c2sc' Capitals to Small Capitals lookup 27 subtable" cedilla.sc
AlternateSubs2: "'aalt' Access All Alternates lookup 1 subtable" cedilla.sc cedilla.case
EndChar

StartChar: onesuperior
Encoding: 185 185 971
Width: 400
Flags: MW
HStem: 697 37<239 277> 714 20G<251 277 277 277>
VStem: 112 165<659 734>
LayerCount: 2
Fore
SplineSet
219 323 m 1x60
 187 323 l 1
 239 697 l 1
 126 635 l 1
 112 659 l 1xa0
 251 734 l 1
 277 734 l 1
 219 323 l 1x60
EndSplineSet
EndChar
StartChar: uni00B9
Encoding: 185 185 2109
Width: 400
Flags: MW
HStem: 697 37<239 277> 714 20G<251 277 277 277>
VStem: 112 165<659 734>
LayerCount: 2
Back
Fore
SplineSet
277 734 m 1x60
 219 323 l 1
 187 323 l 1
 239 697 l 1
 126 635 l 1
 112 659 l 1xa0
 251 734 l 1
 277 734 l 1x60
EndSplineSet
EndChar

StartChar: ordmasculine
Encoding: 186 186 416
Width: 500
GlyphClass: 2
Flags: MW
HStem: 0 32<49 385 45 389> 276 30<216 317.5 216 326.5> 653 29<241 342.5>
VStem: 104 35<393 477.5 393 486> 419 35<484.5 568.5>
LayerCount: 2
Fore
SplineSet
305 682 m 0
 399 682 454 628 454 525 c 0
 454 421 402 276 251 276 c 0
 157 276 104 335 104 435 c 0
 104 537 155 682 305 682 c 0
306 653 m 0
 176 653 139 520 139 435 c 0
 139 351 180 306 252 306 c 0
 383 306 419 442 419 527 c 0
 419 610 379 653 306 653 c 0
49 32 m 1
 389 32 l 1
 385 0 l 1
 45 0 l 1
 49 32 l 1
EndSplineSet
EndChar
StartChar: guillemotright
Encoding: 187 187 2178
Width: 531
Flags: MW
HStem: 68 441<79 139 139 267>
VStem: 58 395<83 299>
LayerCount: 2
Back
Fore
SplineSet
327 509 m 1
 453 299 l 1
 451 277 l 1
 267 68 l 1
 245 83 l 1
 413 288 l 1
 304 494 l 1
 327 509 l 1
139 509 m 1
 265 299 l 1
 263 277 l 1
 79 68 l 1
 58 83 l 1
 225 288 l 1
 116 494 l 1
 139 509 l 1
EndSplineSet
Substitution2: "'case' Case-Sensitive Forms lookup 29 subtable" guillemotright.case
Substitution2: "'aalt' Access All Alternates lookup 0 subtable" guillemotright.case
EndChar
StartChar: onequarter
Encoding: 188 188 2066
Width: 901
Flags: MW
HStem: 0 137<713 733 578 745 713 713> 108 29<578 729 765 819 578 760> 645 37<232 270> 662 20G<244 270 270 270> 725 20G<709 709>
VStem: 105 718<137 607>
LayerCount: 2
Back
Fore
SplineSet
709 745 m 1x5c
 735 732 l 1
 214 -66 l 1
 189 -53 l 1
 709 745 l 1x5c
212 271 m 1
 180 271 l 1
 232 645 l 1
 119 583 l 1
 105 607 l 1x6c
 244 682 l 1
 270 682 l 1
 212 271 l 1
823 137 m 1
 819 108 l 1
 760 108 l 1x5c
 745 0 l 1
 713 0 l 1x9c
 729 108 l 1
 540 108 l 1
 543 133 l 1
 713 419 l 1
 740 408 l 1
 578 137 l 1
 733 137 l 1
 755 259 l 1
 782 259 l 1
 765 137 l 1
 823 137 l 1
EndSplineSet
EndChar
StartChar: onehalf
Encoding: 189 189 2063
Width: 901
Flags: MW
HStem: 0 29.5 387 30<694.5 741> 645 37<232 270> 662 20G<244 270 270 270> 725 20G<709 709>
VStem: 788 34
LayerCount: 2
Back
Fore
SplineSet
709 745 m 1xdc
 735 732 l 1
 214 -66 l 1
 189 -53 l 1
 709 745 l 1xdc
270 682 m 1
 212 271 l 1
 180 271 l 1
 232 645 l 1
 119 583 l 1
 105 607 l 1xec
 244 682 l 1
 270 682 l 1
718 417 m 0
 792 417 830 364 822 302 c 0
 810 218 757 176 591 29 c 1
 794 30 l 1
 784 0 l 1
 545 0 l 1
 548 30 l 1
 733 194 778 232 788 304 c 0
 795 354 766 387 716 387 c 0
 673 387 638 368 612 340 c 1
 588 360 l 1
 630 401 670 417 718 417 c 0
EndSplineSet
EndChar
StartChar: threequarters
Encoding: 190 190 2067
Width: 901
Flags: MW
HStem: 0 137<713 733 578 745 713 713> 108 29<578 729 765 819 578 760> 264 29<140 192.5 140 199.5> 474 28<171 189 189 191 163 189> 661 29<202.5 246.5> 725 20G<709 709>
VStem: 277 32 295 33
LayerCount: 2
Back
Fore
SplineSet
709 745 m 1x7d
 735 732 l 1
 214 -66 l 1
 189 -53 l 1
 709 745 l 1x7d
309 384 m 0x7e
 299 313 241 264 158 264 c 0
 107 264 71 284 43 318 c 1
 66 334 l 1
 93 302 123 293 157 293 c 0
 228 293 269 332 277 388 c 0
 286 451 250 474 191 474 c 2x7e
 163 474 l 1
 171 502 l 1
 189 502 l 2
 233 502 286 527 295 588 c 0
 302 635 271 661 222 661 c 0
 183 661 154 651 116 623 c 1
 99 645 l 1
 137 674 172 690 222 690 c 0
 294 690 336 647 328 585 c 0x7d
 320 531 281 497 229 490 c 1
 280 488 319 451 309 384 c 0x7e
823 137 m 1x7d
 819 108 l 1
 760 108 l 1x7d
 745 0 l 1
 713 0 l 1xbd
 729 108 l 1
 540 108 l 1
 543 133 l 1
 713 419 l 1
 740 408 l 1
 578 137 l 1
 733 137 l 1
 755 259 l 1
 782 259 l 1
 765 137 l 1
 823 137 l 1x7d
EndSplineSet
EndChar

StartChar: questiondown
Encoding: 191 191 992
Width: 439
Flags: MW
HStem: -200 30<111.5 179.5 111.5 182.5> 440 64<244 259.5>
VStem: 3 35<-107 -4.5 -107 4.5> 219 65<464.5 480> 230 34<154.5 230 145.5 231.5>
LayerCount: 2
Fore
SplineSet
250 440 m 0xf0
 230 440 219 453 219 470 c 0
 219 490 234 504 254 504 c 0
 273 504 284 491 284 475 c 0
 284 454 269 440 250 440 c 0xf0
145 -200 m 0
 53 -200 3 -149 3 -81 c 0
 3 90 230 88 230 221 c 0
 230 242 226 258 223 271 c 1
 254 278 l 1
 260 259 264 239 264 221 c 0xa8
 264 70 38 71 38 -80 c 0
 38 -134 78 -170 145 -170 c 0
 214 -170 260 -144 315 -92 c 1
 337 -113 l 1
 277 -173 220 -200 145 -200 c 0
EndSplineSet
Substitution2: "'case' Case-Sensitive Forms lookup 25 subtable" questiondown.case
Substitution2: "'aalt' Access All Alternates lookup 0 subtable" questiondown.case
EndChar
StartChar: Atilde
Encoding: 195 195 32
Width: 559
GlyphClass: 2
Flags: MW
HStem: 0 21G<-13 23 -13 -13 462 498 462 462> 197 32<132 417 132 423 117 417> 654 28<335 335> 800 30<396.5 428.5 396.5 433.5> 843 30<305 305>
VStem: -13 515
AnchorPoint: "Anchor-14" 0 0 basechar 0
AnchorPoint: "Anchor-13" 0 0 basechar 0
AnchorPoint: "Anchor-12" 363 874 basechar 0
AnchorPoint: "Anchor-11" 505 0 basechar 0
AnchorPoint: "Anchor-10" 242 0 basechar 0
LayerCount: 2
Back
Fore
SplineSet
305 843 m 0
 274 842 264 832 240 806 c 1
 220 821 l 1
 246 854 271 873 305 873 c 0xfc
 346 873 375 830 418 830 c 0
 439 830 457 842 482 874 c 1
 502 859 l 1
 473 816 446 800 421 800 c 0
 364 800 342 844 305 843 c 0
317 682 m 1
 360 682 l 1
 498 0 l 1
 462 0 l 1
 423 197 l 1
 117 197 l 1
 23 0 l 1
 -13 0 l 1
 317 682 l 1
132 229 m 1
 417 229 l 1
 335 654 l 1
 132 229 l 1
EndSplineSet
Substitution2: "'c2sc' Capitals to Small Capitals lookup 27 subtable" atilde.sc
Substitution2: "'aalt' Access All Alternates lookup 0 subtable" atilde.sc
Position2: "'cpsp' Capital Spacing lookup 0 subtable" dx=5 dy=0 dh=10 dv=0
EndChar

StartChar: Adieresis
Encoding: 196 196 5
Width: 559
GlyphClass: 2
Flags: MW
HStem: 0 21G<-13 23 -13 -13 462 462 462 498> 197 32<132 418 132 424 117 418> 654 28<335 335> 795 54<264.5 277 439 451.5>
VStem: 243 55 417 55
AnchorPoint: "Anchor-11" 0 0 basechar 0
AnchorPoint: "Anchor-10" 195 520 basechar 0
AnchorPoint: "Anchor-9" 351 769 basechar 0
AnchorPoint: "Anchor-8" 505 0 basechar 0
LayerCount: 2
Fore
SplineSet
269 795 m 0
 252 795 241 808 243 824 c 0
 245 838 257 849 272 849 c 0
 290 849 300 836 298 820 c 0
 296 806 285 795 269 795 c 0
444 795 m 0
 426 795 415 808 417 824 c 1
 420 838 431 849 447 849 c 0
 465 849 475 836 472 820 c 0
 470 806 459 795 444 795 c 0
424 197 m 1
 117 197 l 1
 23 0 l 1
 -13 0 l 1
 317 682 l 1
 360 682 l 1
 498 0 l 1
 462 0 l 1
 424 197 l 1
418 229 m 1
 335 654 l 1
 132 229 l 1
 418 229 l 1
EndSplineSet
Substitution2: "'c2sc' Capitals to Small Capitals lookup 23 subtable" adieresis.sc
Substitution2: "'aalt' Access All Alternates lookup 0 subtable" adieresis.sc
Position2: "'cpsp' Capital Spacing lookup 0 subtable" dx=5 dy=0 dh=10 dv=0
EndChar
StartChar: Aring
Encoding: 197 197 29
Width: 559
GlyphClass: 2
Flags: MW
HStem: 0 21G<-13 23 -13 -13 462 498 462 462> 197 32<132 417 132 423 117 417> 654 28<335 335> 765 26<338.5 375.5 338.5 380.5> 910 26<350.5 387>
VStem: 274 31<824.5 859 824.5 868> 420 31<843 876.5>
AnchorPoint: "Anchor-14" 0 0 basechar 0
AnchorPoint: "Anchor-13" 0 0 basechar 0
AnchorPoint: "Anchor-12" 373 936 basechar 0
AnchorPoint: "Anchor-11" 505 0 basechar 0
AnchorPoint: "Anchor-10" 242 0 basechar 0
LayerCount: 2
Back
Fore
SplineSet
353 765 m 0
 305 765 274 797 274 839 c 0
 274 897 318 936 373 936 c 0
 421 936 451 905 451 862 c 0
 451 804 408 765 353 765 c 0
372 910 m 0
 329 910 305 878 305 840 c 0
 305 809 323 791 354 791 c 0
 397 791 420 825 420 861 c 0
 420 892 402 910 372 910 c 0
462 0 m 1
 423 197 l 1
 117 197 l 1
 23 0 l 1
 -13 0 l 1
 317 682 l 1
 360 682 l 1
 498 0 l 1
 462 0 l 1
132 229 m 1
 417 229 l 1
 335 654 l 1
 132 229 l 1
EndSplineSet
Substitution2: "'c2sc' Capitals to Small Capitals lookup 27 subtable" aring.sc
Substitution2: "'aalt' Access All Alternates lookup 0 subtable" aring.sc
Position2: "'cpsp' Capital Spacing lookup 0 subtable" dx=5 dy=0 dh=10 dv=0
EndChar

StartChar: AE
Encoding: 198 198 11
Width: 760
GlyphClass: 2
Flags: MW
HStem: 0 32<458 682 428 688> 192 31<125 401 125 405 108 401> 343 31<420 672 420 420> 650 32<382 382 382 717>
VStem: -29 755<0 682>
AnchorPoint: "Anchor-11" 0 0 basechar 0
AnchorPoint: "Anchor-10" 0 0 basechar 0
AnchorPoint: "Anchor-9" 503 682 basechar 0
AnchorPoint: "Anchor-8" 0 0 basechar 0
LayerCount: 2
Fore
SplineSet
382 650 m 1
 416 374 l 1
 676 374 l 1
 672 343 l 1
 420 343 l 1
 458 32 l 1
 688 32 l 1
 682 0 l 1
 428 0 l 1
 405 192 l 1
 108 192 l 1
 8 0 l 1
 -29 0 l 1
 330 682 l 1
 726 682 l 1
 717 650 l 1
 382 650 l 1
350 654 m 1
 125 223 l 1
 401 223 l 1
 350 654 l 1
EndSplineSet
Substitution2: "'c2sc' Capitals to Small Capitals lookup 23 subtable" ae.sc
Substitution2: "'aalt' Access All Alternates lookup 0 subtable" ae.sc
Position2: "'cpsp' Capital Spacing lookup 0 subtable" dx=5 dy=0 dh=10 dv=0
EndChar

StartChar: Ccedilla
Encoding: 199 199 17
Width: 542
GlyphClass: 2
Flags: MW
HStem: -218 30<269.5 298.5 269.5 308.5> -198 21G<211 211> -93 23 -10 33<310 310> -9 32<285 285> 660 33<297 434>
VStem: 79 35<180 342 180 350.5> 349 35
AnchorPoint: "Anchor-11" 303 0 basechar 0
AnchorPoint: "Anchor-10" 0 0 basechar 0
AnchorPoint: "Anchor-9" 400 682 basechar 0
AnchorPoint: "Anchor-8" 0 0 basechar 0
LayerCount: 2
Fore
SplineSet
405 660 m 0x77
 189 660 114 424 114 260 c 0
 114 100 195 23 306 23 c 0
 382 23 425 48 470 81 c 1
 489 55 l 1
 442 18 385 -9 310 -10 c 1
 300 -70 l 1
 357 -74 384 -94 384 -134 c 0
 384 -183 335 -218 282 -218 c 0xb7
 249 -218 227 -208 211 -198 c 1x77
 227 -173 l 1
 239 -182 257 -188 282 -188 c 0
 315 -188 348 -172 349 -138 c 0
 350 -107 329 -94 267 -93 c 1
 285 -9 l 1xaf
 162 0 79 92 79 260 c 0
 79 441 165 693 402 693 c 0
 477 693 521 669 561 633 c 1
 540 609 l 1
 498 645 463 660 405 660 c 0x77
EndSplineSet
Substitution2: "'c2sc' Capitals to Small Capitals lookup 23 subtable" ccedilla.sc
Substitution2: "'aalt' Access All Alternates lookup 0 subtable" ccedilla.sc
Position2: "'cpsp' Capital Spacing lookup 0 subtable" dx=5 dy=0 dh=10 dv=0
EndChar

StartChar: Edieresis
Encoding: 203 203 29
Width: 495
GlyphClass: 2
Flags: MW
HStem: 0 32<122 417> 343 31<170 416 165 420> 650 32<208 499 208 208> 795 54<273.5 286 448 460.5>
VStem: 252 55 426 55
AnchorPoint: "Anchor-11" 246 0 basechar 0
AnchorPoint: "Anchor-10" 85 521 basechar 0
AnchorPoint: "Anchor-9" 360 769 basechar 0
AnchorPoint: "Anchor-8" 402 0 basechar 0
LayerCount: 2
Fore
SplineSet
281 849 m 0
 299 849 309 836 307 820 c 0
 305 806 294 795 278 795 c 0
 261 795 250 808 252 824 c 0
 254 838 266 849 281 849 c 0
456 849 m 0
 474 849 484 836 481 820 c 0
 479 806 468 795 453 795 c 0
 435 795 424 808 426 824 c 1
 429 838 440 849 456 849 c 0
499 650 m 1
 208 650 l 1
 170 374 l 1
 420 374 l 1
 416 343 l 1
 165 343 l 1
 122 32 l 1
 423 32 l 1
 417 0 l 1
 82 0 l 1
 178 682 l 1
 507 682 l 1
 499 650 l 1
EndSplineSet
Substitution2: "'c2sc' Capitals to Small Capitals lookup 23 subtable" edieresis.sc
Substitution2: "'aalt' Access All Alternates lookup 0 subtable" edieresis.sc
Position2: "'cpsp' Capital Spacing lookup 0 subtable" dx=5 dy=0 dh=10 dv=0
EndChar
StartChar: Igrave
Encoding: 204 204 126
Width: 272
GlyphClass: 2
Flags: MW
HStem: 0 21G<82 117 82 82> 662 20G<178 213 213 213>
VStem: 82 226
AnchorPoint: "Anchor-14" 0 0 basechar 0
AnchorPoint: "Anchor-13" 0 0 basechar 0
AnchorPoint: "Anchor-12" 216 872 basechar 0
AnchorPoint: "Anchor-11" 116 0 basechar 0
AnchorPoint: "Anchor-10" 100 0 basechar 0
LayerCount: 2
Back
Fore
SplineSet
143 872 m 1
 308 783 l 1
 295 761 l 1
 120 837 l 1
 143 872 l 1
213 682 m 1
 117 0 l 1
 82 0 l 1
 178 682 l 1
 213 682 l 1
EndSplineSet
Substitution2: "'c2sc' Capitals to Small Capitals lookup 27 subtable" igrave.sc
Substitution2: "'aalt' Access All Alternates lookup 0 subtable" igrave.sc
Position2: "'cpsp' Capital Spacing lookup 0 subtable" dx=5 dy=0 dh=10 dv=0
EndChar

StartChar: Iacute
Encoding: 205 205 45
Width: 272
GlyphClass: 2
Flags: MW
HStem: 0 21G<82 117 82 82> 662 20G<178 213 213 213>
VStem: 82 234
AnchorPoint: "Anchor-11" 0 0 basechar 0
AnchorPoint: "Anchor-10" 86 521 basechar 0
AnchorPoint: "Anchor-9" 195 682 basechar 0
AnchorPoint: "Anchor-8" 127 0 basechar 0
LayerCount: 2
Fore
SplineSet
316 837 m 1
 119 761 l 1
 112 783 l 1
 303 872 l 1
 316 837 l 1
117 0 m 1
 82 0 l 1
 178 682 l 1
 213 682 l 1
 117 0 l 1
EndSplineSet
Substitution2: "'c2sc' Capitals to Small Capitals lookup 23 subtable" iacute.sc
Substitution2: "'aalt' Access All Alternates lookup 0 subtable" iacute.sc
Position2: "'cpsp' Capital Spacing lookup 0 subtable" dx=5 dy=0 dh=10 dv=0
EndChar
StartChar: Icircumflex
Encoding: 206 206 120
Width: 272
GlyphClass: 2
Flags: MW
HStem: 0 21G<82 117 82 82> 662 20G<178 213 213 213>
VStem: 69 269<784 784>
AnchorPoint: "Anchor-14" 0 0 basechar 0
AnchorPoint: "Anchor-13" 290 734 basechar 0
AnchorPoint: "Anchor-12" 217 879 basechar 0
AnchorPoint: "Anchor-11" 116 0 basechar 0
AnchorPoint: "Anchor-10" 100 0 basechar 0
LayerCount: 2
Back
Fore
SplineSet
321 765 m 1
 213 844 l 1
 85 765 l 1
 69 784 l 1
 208 879 l 1
 227 879 l 1
 338 784 l 1
 321 765 l 1
213 682 m 1
 117 0 l 1
 82 0 l 1
 178 682 l 1
 213 682 l 1
EndSplineSet
Substitution2: "'c2sc' Capitals to Small Capitals lookup 27 subtable" icircumflex.sc
Substitution2: "'aalt' Access All Alternates lookup 0 subtable" icircumflex.sc
Position2: "'cpsp' Capital Spacing lookup 0 subtable" dx=5 dy=0 dh=10 dv=0
EndChar

StartChar: Idieresis
Encoding: 207 207 48
Width: 272
GlyphClass: 2
Flags: MW
HStem: 0 21G<82 117 82 82> 662 20G<178 213 213 213> 795 54<121.5 134 296 308.5>
VStem: 100 55 274 55
AnchorPoint: "Anchor-11" 0 0 basechar 0
AnchorPoint: "Anchor-10" 86 521 basechar 0
AnchorPoint: "Anchor-9" 208 769 basechar 0
AnchorPoint: "Anchor-8" 127 0 basechar 0
LayerCount: 2
Fore
SplineSet
129 849 m 0
 147 849 157 836 155 820 c 0
 153 806 142 795 126 795 c 0
 109 795 98 808 100 824 c 0
 102 838 114 849 129 849 c 0
304 849 m 0
 322 849 332 836 329 820 c 0
 327 806 316 795 301 795 c 0
 283 795 272 808 274 824 c 1
 277 838 288 849 304 849 c 0
117 0 m 1
 82 0 l 1
 178 682 l 1
 213 682 l 1
 117 0 l 1
EndSplineSet
Substitution2: "'c2sc' Capitals to Small Capitals lookup 23 subtable" idieresis.sc
Substitution2: "'aalt' Access All Alternates lookup 0 subtable" idieresis.sc
Position2: "'cpsp' Capital Spacing lookup 0 subtable" dx=5 dy=0 dh=10 dv=0
EndChar

StartChar: Eth
Encoding: 208 208 21
Width: 615
GlyphClass: 2
Flags: MW
HStem: 0 32<114 209> 338 30<40 122 36 126 161 349> 650 32<201 295 201 201>
VStem: 524 36<336 525.5>
AnchorPoint: "Anchor-11" 0 0 basechar 0
AnchorPoint: "Anchor-10" 0 0 basechar 0
AnchorPoint: "Anchor-9" 348 682 basechar 0
AnchorPoint: "Anchor-8" 0 0 basechar 0
LayerCount: 2
Fore
SplineSet
299 682 m 2
 430 682 560 638 560 429 c 0
 560 221 470 0 209 0 c 2
 74 0 l 1
 122 338 l 1
 36 338 l 1
 40 368 l 1
 126 368 l 1
 170 682 l 1
 299 682 l 2
214 32 m 2
 448 32 524 242 524 430 c 0
 524 621 408 650 295 650 c 2
 201 650 l 1
 161 368 l 1
 354 368 l 1
 349 338 l 1
 157 338 l 1
 114 32 l 1
 214 32 l 2
EndSplineSet
Substitution2: "'c2sc' Capitals to Small Capitals lookup 23 subtable" eth.sc
Substitution2: "'aalt' Access All Alternates lookup 0 subtable" eth.sc
Position2: "'cpsp' Capital Spacing lookup 0 subtable" dx=5 dy=0 dh=10 dv=0
EndChar

StartChar: Ntilde
Encoding: 209 209 70
Width: 665
GlyphClass: 2
Flags: MW
HStem: 0 37<487 487 487 509 466 487> 648 34<201 201> 800 30<456.5 488.5 456.5 493.5> 843 30<365 365>
VStem: 82 523
AnchorPoint: "Anchor-11" 296 0 basechar 0
AnchorPoint: "Anchor-10" 0 0 basechar 0
AnchorPoint: "Anchor-9" 399 682 basechar 0
AnchorPoint: "Anchor-8" 0 0 basechar 0
LayerCount: 2
Fore
SplineSet
481 800 m 0
 423 800 401 844 365 843 c 0
 334 842 324 832 300 806 c 1
 280 821 l 1
 306 854 331 873 365 873 c 0xf8
 406 873 435 830 478 830 c 0
 499 830 517 842 541 874 c 1
 562 859 l 1
 533 816 506 800 481 800 c 0
509 0 m 1
 466 0 l 1
 201 648 l 1
 199 602 193 549 176 429 c 2
 115 0 l 1
 82 0 l 1
 178 682 l 1
 222 682 l 1
 487 37 l 1
 489 82 496 147 509 238 c 2
 571 682 l 1
 605 682 l 1
 509 0 l 1
EndSplineSet
Substitution2: "'c2sc' Capitals to Small Capitals lookup 23 subtable" ntilde.sc
Substitution2: "'aalt' Access All Alternates lookup 0 subtable" ntilde.sc
Position2: "'cpsp' Capital Spacing lookup 0 subtable" dx=5 dy=0 dh=10 dv=0
EndChar

StartChar: Ograve
Encoding: 210 210 76
Width: 690
GlyphClass: 2
Flags: MW
HStem: -10 32<250 422.5 250 432> 661 32<294 464>
VStem: 79 36<178.5 335 178.5 345> 598 36<349.5 506>
AnchorPoint: "Anchor-11" 0 0 basechar 0
AnchorPoint: "Anchor-10" 77 521 basechar 0
AnchorPoint: "Anchor-9" 390 682 basechar 0
AnchorPoint: "Anchor-8" 0 0 basechar 0
LayerCount: 2
Fore
SplineSet
503 783 m 1
 490 761 l 1
 315 837 l 1
 338 872 l 1
 503 783 l 1
405 693 m 0
 545 693 634 601 634 426 c 0
 634 249 555 -10 309 -10 c 0
 168 -10 79 85 79 259 c 0
 79 431 162 693 405 693 c 0
404 661 m 0
 184 661 115 414 115 256 c 0
 115 101 191 22 309 22 c 0
 536 22 598 271 598 428 c 0
 598 584 524 661 404 661 c 0
EndSplineSet
Substitution2: "'c2sc' Capitals to Small Capitals lookup 23 subtable" ograve.sc
Substitution2: "'aalt' Access All Alternates lookup 0 subtable" ograve.sc
Position2: "'cpsp' Capital Spacing lookup 0 subtable" dx=5 dy=0 dh=10 dv=0
EndChar

StartChar: Oacute
Encoding: 211 211 72
Width: 690
GlyphClass: 2
Flags: MW
HStem: -10 32<250 422.5 250 432> 661 32<294 464>
VStem: 79 36<178.5 335 178.5 345> 598 36<349.5 506>
AnchorPoint: "Anchor-11" 0 0 basechar 0
AnchorPoint: "Anchor-10" 77 521 basechar 0
AnchorPoint: "Anchor-9" 390 682 basechar 0
AnchorPoint: "Anchor-8" 0 0 basechar 0
LayerCount: 2
Fore
SplineSet
511 837 m 1
 314 761 l 1
 307 783 l 1
 498 872 l 1
 511 837 l 1
405 693 m 0
 545 693 634 601 634 426 c 0
 634 249 555 -10 309 -10 c 0
 168 -10 79 85 79 259 c 0
 79 431 162 693 405 693 c 0
404 661 m 0
 184 661 115 414 115 256 c 0
 115 101 191 22 309 22 c 0
 536 22 598 271 598 428 c 0
 598 584 524 661 404 661 c 0
EndSplineSet
Substitution2: "'c2sc' Capitals to Small Capitals lookup 23 subtable" oacute.sc
Substitution2: "'locl' Localized Forms in Latin lookup 7 subtable" Oacute.loclPLK
AlternateSubs2: "'aalt' Access All Alternates lookup 1 subtable" Oacute.loclPLK oacute.sc
Position2: "'cpsp' Capital Spacing lookup 0 subtable" dx=5 dy=0 dh=10 dv=0
EndChar

StartChar: Otilde
Encoding: 213 213 81
Width: 690
GlyphClass: 2
Flags: MW
HStem: -10 32<250 422.5 250 432> 661 32<294 464> 800 30<448.5 480.5 448.5 485.5> 843 30<357 357>
VStem: 79 36<178.5 335 178.5 345> 598 36<349.5 506>
AnchorPoint: "Anchor-11" 0 0 basechar 0
AnchorPoint: "Anchor-10" 77 521 basechar 0
AnchorPoint: "Anchor-9" 390 682 basechar 0
AnchorPoint: "Anchor-8" 0 0 basechar 0
LayerCount: 2
Fore
SplineSet
473 800 m 0
 415 800 393 844 357 843 c 0
 326 842 316 832 292 806 c 1
 272 821 l 1
 298 854 323 873 357 873 c 0xfc
 398 873 427 830 470 830 c 0
 491 830 509 842 533 874 c 1
 554 859 l 1
 525 816 498 800 473 800 c 0
405 693 m 0
 545 693 634 601 634 426 c 0
 634 249 555 -10 309 -10 c 0
 168 -10 79 85 79 259 c 0
 79 431 162 693 405 693 c 0
404 661 m 0
 184 661 115 414 115 256 c 0
 115 101 191 22 309 22 c 0
 536 22 598 271 598 428 c 0
 598 584 524 661 404 661 c 0
EndSplineSet
Substitution2: "'c2sc' Capitals to Small Capitals lookup 23 subtable" otilde.sc
Substitution2: "'aalt' Access All Alternates lookup 0 subtable" otilde.sc
Position2: "'cpsp' Capital Spacing lookup 0 subtable" dx=5 dy=0 dh=10 dv=0
EndChar

StartChar: multiply
Encoding: 215 215 1110
Width: 488
Flags: MW
HStem: 154 307<103 145 145 357>
VStem: 82 338<177 438>
LayerCount: 2
Fore
SplineSet
420 438 m 1
 272 307 l 1
 383 177 l 1
 357 154 l 1
 248 285 l 1
 103 154 l 1
 82 177 l 1
 228 307 l 1
 118 438 l 1
 145 461 l 1
 252 329 l 1
 398 461 l 1
 420 438 l 1
EndSplineSet
Substitution2: "'onum' Oldstyle Figures lookup 22 subtable" multiply.osf
Substitution2: "'tnum' Tabular Numbers lookup 21 subtable" multiply.tf
AlternateSubs2: "'aalt' Access All Alternates lookup 1 subtable" multiply.tf multiply.osf
EndChar
StartChar: Uacute
Encoding: 218 218 254
Width: 645
GlyphClass: 2
Flags: MW
HStem: -10 32<224.5 351 224.5 359.5> 662 20G<168 203 203 203 559 594 594 594>
VStem: 98.58 35.14
AnchorPoint: "Anchor-14" 0 0 basechar 0
AnchorPoint: "Anchor-13" 604 682 basechar 0
AnchorPoint: "Anchor-12" 402 872 basechar 0
AnchorPoint: "Anchor-11" 371 0 basechar 0
AnchorPoint: "Anchor-10" 286 0 basechar 0
LayerCount: 2
Back
Fore
SplineSet
489 872 m 1
 502 837 l 1
 305 761 l 1
 298 783 l 1
 489 872 l 1
594 682 m 1
 528 208 l 2
 510 80 433 -10 286 -10 c 0
 136 -10 84 82 102 210 c 2
 168 682 l 1
 203 682 l 1
 137 211 l 2
 121 97 162 22 287 22 c 0
 415 22 478 102 493 213 c 2
 559 682 l 1
 594 682 l 1
EndSplineSet
Substitution2: "'c2sc' Capitals to Small Capitals lookup 27 subtable" uacute.sc
Substitution2: "'aalt' Access All Alternates lookup 0 subtable" uacute.sc
Position2: "'cpsp' Capital Spacing lookup 0 subtable" dx=5 dy=0 dh=10 dv=0
EndChar
StartChar: Ucircumflex
Encoding: 219 219 258
Width: 645
GlyphClass: 2
Flags: MW
HStem: -10 32<224.5 351 224.5 359.5> 662 20G<168 203 203 203 559 594 594 594>
VStem: 98.58 35.14
AnchorPoint: "Anchor-14" 0 0 basechar 0
AnchorPoint: "Anchor-13" 476 734 basechar 0
AnchorPoint: "Anchor-12" 403 879 basechar 0
AnchorPoint: "Anchor-11" 371 0 basechar 0
AnchorPoint: "Anchor-10" 286 0 basechar 0
LayerCount: 2
Back
Fore
SplineSet
507 765 m 1
 399 844 l 1
 271 765 l 1
 255 784 l 1
 394 879 l 1
 413 879 l 1
 524 784 l 1
 507 765 l 1
594 682 m 1
 528 208 l 2
 510 80 433 -10 286 -10 c 0
 136 -10 84 82 102 210 c 2
 168 682 l 1
 203 682 l 1
 137 211 l 2
 121 97 162 22 287 22 c 0
 415 22 478 102 493 213 c 2
 559 682 l 1
 594 682 l 1
EndSplineSet
Substitution2: "'c2sc' Capitals to Small Capitals lookup 27 subtable" ucircumflex.sc
Substitution2: "'aalt' Access All Alternates lookup 0 subtable" ucircumflex.sc
Position2: "'cpsp' Capital Spacing lookup 0 subtable" dx=5 dy=0 dh=10 dv=0
EndChar

StartChar: Udieresis
Encoding: 220 220 105
Width: 645
GlyphClass: 2
Flags: MW
HStem: -10 32<224.5 351 224.5 359.5> 662 20G<168 203 203 203 559 594 594 594> 795 54<310.5 323 485 497.5>
VStem: 98.58 35.14 289 55 463 55
AnchorPoint: "Anchor-11" 0 0 basechar 0
AnchorPoint: "Anchor-10" 0 0 basechar 0
AnchorPoint: "Anchor-9" 397 769 basechar 0
AnchorPoint: "Anchor-8" 371 0 basechar 0
LayerCount: 2
Fore
SplineSet
318 849 m 0
 336 849 346 836 344 820 c 0
 342 806 331 795 315 795 c 0
 298 795 287 808 289 824 c 0
 291 838 303 849 318 849 c 0
493 849 m 0
 511 849 521 836 518 820 c 0
 516 806 505 795 490 795 c 0
 472 795 461 808 463 824 c 1
 466 838 477 849 493 849 c 0
528 208 m 2
 510 80 433 -10 286 -10 c 0
 136 -10 84 82 102 210 c 2
 168 682 l 1
 203 682 l 1
 137 211 l 2
 121 97 162 22 287 22 c 0
 415 22 478 102 493 213 c 2
 559 682 l 1
 594 682 l 1
 528 208 l 2
EndSplineSet
Substitution2: "'c2sc' Capitals to Small Capitals lookup 23 subtable" udieresis.sc
Substitution2: "'aalt' Access All Alternates lookup 0 subtable" udieresis.sc
Position2: "'cpsp' Capital Spacing lookup 0 subtable" dx=5 dy=0 dh=10 dv=0
EndChar
StartChar: Thorn
Encoding: 222 222 215
Width: 562
GlyphClass: 2
Flags: MW
HStem: 0 21G<82 117 82 82> 143 32<141 245 137 250> 525 32<195 304 191 306> 525 157<191 213 178 304 191 191>
VStem: 489 35<332.5 437.5>
LayerCount: 2
Back
Fore
SplineSet
306 557 m 2xe8
 445 557 524 508 524 385 c 0
 524 272 465 143 245 143 c 2
 137 143 l 1
 117 0 l 1
 82 0 l 1
 178 682 l 1
 213 682 l 1xd8
 195 557 l 1
 306 557 l 2xe8
250 175 m 2
 434 175 489 281 489 384 c 0
 489 491 423 525 304 525 c 2
 191 525 l 1
 141 175 l 1
 250 175 l 2
EndSplineSet
Substitution2: "'c2sc' Capitals to Small Capitals lookup 27 subtable" thorn.sc
Substitution2: "'aalt' Access All Alternates lookup 0 subtable" thorn.sc
Position2: "'cpsp' Capital Spacing lookup 0 subtable" dx=5 dy=0 dh=10 dv=0
EndChar
StartChar: germandbls
Encoding: 223 223 629
Width: 576
GlyphClass: 2
Flags: MW
HStem: -197 21G<-35 -35> -10 31<308.5 381 308.5 392.5> 709 30<317 390.5>
VStem: 315 32<374.5 451 374.5 460.5> 462 34<565.5 651.5> 474 34<139 236>
LayerCount: 2
Back
Fore
SplineSet
347 412 m 0xf4
 347 337 508 319 508 165 c 0
 508 96 457 -10 328 -10 c 0
 285 -10 244 4 222 16 c 1
 236 42 l 1
 265 29 290 21 327 21 c 0
 435 21 474 113 474 165 c 0xf4
 474 307 315 317 315 411 c 0
 315 510 462 506 462 625 c 0
 462 678 422 709 359 709 c 0
 275 709 205 655 188 536 c 2
 113 8 l 2
 95 -125 53 -156 -35 -197 c 1
 -46 -170 l 1
 28 -134 63 -106 80 11 c 2
 155 542 l 2
 173 671 257 739 359 739 c 0
 442 739 496 692 496 626 c 0xf8
 496 498 347 490 347 412 c 0xf4
EndSplineSet
Substitution2: "'smcp' Lowercase to Small Capitals lookup 28 subtable" germandbls.sc
Substitution2: "'aalt' Access All Alternates lookup 0 subtable" germandbls.sc
EndChar

StartChar: acircumflex
Encoding: 226 226 137
Width: 553
GlyphClass: 2
Flags: MW
HStem: -10 31<187.5 261> 502 29<242.5 350.5>
VStem: 64 35<138 255.5 138 262.5> 391 31
AnchorPoint: "Anchor-11" 0 0 basechar 0
AnchorPoint: "Anchor-10" 0 0 basechar 0
AnchorPoint: "Anchor-9" 333 520 basechar 0
AnchorPoint: "Anchor-8" 454 -10 basechar 0
LayerCount: 2
Fore
SplineSet
222 670 m 1
 362 770 l 1
 380 770 l 1
 491 670 l 1
 474 650 l 1
 367 735 l 1
 238 650 l 1
 222 670 l 1
324 531 m 0
 396 531 438 512 481 488 c 1
 425 110 l 2
 423 94 422 82 422 71 c 0
 422 36 434 24 455 15 c 1
 445 -10 l 1
 408 1 385 21 391 89 c 1
 353 30 296 -10 226 -10 c 0
 125 -10 64 65 64 193 c 0
 64 332 133 531 324 531 c 0
326 502 m 0
 159 502 99 317 99 194 c 0
 99 82 146 21 229 21 c 0
 298 21 351 64 397 141 c 1
 445 472 l 1
 414 490 375 502 326 502 c 0
EndSplineSet
Substitution2: "'smcp' Lowercase to Small Capitals lookup 24 subtable" acircumflex.sc
Substitution2: "'aalt' Access All Alternates lookup 0 subtable" acircumflex.sc
EndChar
StartChar: atilde
Encoding: 227 227 366
Width: 552
GlyphClass: 2
Flags: MW
HStem: -10 31<186.5 260> 502 29<241.5 349.5> 674 30<400 431.5 400 435> 717 30<292.5 326>
VStem: 63 35<138 255.5 138 262.5> 390 31
AnchorPoint: "Anchor-14" 0 0 basechar 0
AnchorPoint: "Anchor-13" 0 0 basechar 0
AnchorPoint: "Anchor-12" 366 748 basechar 0
AnchorPoint: "Anchor-11" 453 -10 basechar 0
AnchorPoint: "Anchor-10" 267 0 basechar 0
LayerCount: 2
Back
Fore
SplineSet
421 674 m 0
 369 674 346 717 306 717 c 0
 279 717 267 706 243 680 c 1
 223 695 l 1
 249 728 276 747 306 747 c 0xfc
 351 747 379 704 421 704 c 0
 442 704 460 716 485 748 c 1
 505 733 l 1
 476 690 449 674 421 674 c 0
324 531 m 0
 395 531 437 512 480 488 c 1
 424 110 l 2
 422 94 421 82 421 71 c 0
 421 36 433 24 454 15 c 1
 444 -10 l 1
 407 1 384 21 390 89 c 1
 352 30 295 -10 225 -10 c 0
 124 -10 63 65 63 193 c 0
 63 332 133 531 324 531 c 0
325 502 m 0
 158 502 98 317 98 194 c 0
 98 82 145 21 228 21 c 0
 297 21 350 64 396 141 c 1
 444 472 l 1
 414 490 374 502 325 502 c 0
EndSplineSet
Substitution2: "'smcp' Lowercase to Small Capitals lookup 28 subtable" atilde.sc
Substitution2: "'aalt' Access All Alternates lookup 0 subtable" atilde.sc
EndChar
StartChar: adieresis
Encoding: 228 228 351
Width: 552
GlyphClass: 2
Flags: MW
HStem: -10 31<186.5 260> 502 29<241.5 349.5> 669 54<268.5 281 443 455.5>
VStem: 63 35<138 255.5 138 262.5> 247 55 390 31 421 55
AnchorPoint: "Anchor-14" 0 0 basechar 0
AnchorPoint: "Anchor-13" 0 0 basechar 0
AnchorPoint: "Anchor-12" 364 723 basechar 0
AnchorPoint: "Anchor-11" 453 -10 basechar 0
AnchorPoint: "Anchor-10" 267 0 basechar 0
LayerCount: 2
Back
Fore
SplineSet
276 723 m 0xfc
 294 723 304 710 302 694 c 0
 300 680 289 669 273 669 c 0
 256 669 245 682 247 698 c 0
 249 712 261 723 276 723 c 0xfc
451 723 m 0xfa
 469 723 479 710 476 694 c 0
 474 680 463 669 448 669 c 0
 430 669 419 682 421 698 c 0
 424 712 435 723 451 723 c 0xfa
324 531 m 0
 395 531 437 512 480 488 c 1
 424 110 l 2
 422 94 421 82 421 71 c 0
 421 36 433 24 454 15 c 1
 444 -10 l 1
 407 1 384 21 390 89 c 1xfc
 352 30 295 -10 225 -10 c 0
 124 -10 63 65 63 193 c 0
 63 332 133 531 324 531 c 0
325 502 m 0
 158 502 98 317 98 194 c 0
 98 82 145 21 228 21 c 0
 297 21 350 64 396 141 c 1
 444 472 l 1
 414 490 374 502 325 502 c 0
EndSplineSet
Substitution2: "'smcp' Lowercase to Small Capitals lookup 28 subtable" adieresis.sc
Substitution2: "'aalt' Access All Alternates lookup 0 subtable" adieresis.sc
EndChar
StartChar: aring
Encoding: 229 229 363
Width: 552
GlyphClass: 2
Flags: MW
HStem: -10 31<186.5 260> 502 29<241.5 349.5> 639 26<341.5 378.5 341.5 383.5> 784 26<353.5 390>
VStem: 63 35<138 255.5 138 262.5> 277 31<698.5 733 698.5 742> 390 31 423 31<717 750.5>
AnchorPoint: "Anchor-14" 0 0 basechar 0
AnchorPoint: "Anchor-13" 0 0 basechar 0
AnchorPoint: "Anchor-12" 378 810 basechar 0
AnchorPoint: "Anchor-11" 453 -10 basechar 0
AnchorPoint: "Anchor-10" 267 0 basechar 0
LayerCount: 2
Back
Fore
SplineSet
376 810 m 0
 424 810 454 779 454 736 c 0
 454 678 411 639 356 639 c 0
 308 639 277 671 277 713 c 0
 277 771 321 810 376 810 c 0
375 784 m 0
 332 784 308 752 308 714 c 0
 308 683 326 665 357 665 c 0
 400 665 423 699 423 735 c 0
 423 766 405 784 375 784 c 0
324 531 m 0
 395 531 437 512 480 488 c 1
 424 110 l 2
 422 94 421 82 421 71 c 0
 421 36 433 24 454 15 c 1
 444 -10 l 1
 407 1 384 21 390 89 c 1xfe
 352 30 295 -10 225 -10 c 0
 124 -10 63 65 63 193 c 0
 63 332 133 531 324 531 c 0
325 502 m 0
 158 502 98 317 98 194 c 0
 98 82 145 21 228 21 c 0
 297 21 350 64 396 141 c 1
 444 472 l 1
 414 490 374 502 325 502 c 0
EndSplineSet
Substitution2: "'smcp' Lowercase to Small Capitals lookup 28 subtable" aring.sc
Substitution2: "'aalt' Access All Alternates lookup 0 subtable" aring.sc
EndChar
StartChar: ae
Encoding: 230 230 368
Width: 833
GlyphClass: 2
Flags: MW
HStem: -10 31<157.5 224.5 519.5 592> 212 29 272 29<276 280 280 385> 501 30<591 677.5>
VStem: 45 36<91.5 160 91.5 168.5> 379.37 33.63 419 24 754 35<359 435>
AnchorPoint: "Anchor-14" 0 0 basechar 0
AnchorPoint: "Anchor-13" 0 0 basechar 0
AnchorPoint: "Anchor-12" 451 520 basechar 0
AnchorPoint: "Anchor-11" 0 0 basechar 0
AnchorPoint: "Anchor-10" 380 0 basechar 0
LayerCount: 2
Back
Fore
SplineSet
291 531 m 0
 387 531 433 480 443 416 c 1xfb
 466 466 542 531 640 531 c 0
 731 531 789 482 789 409 c 0
 789 286 647 226 413 212 c 1xfd
 414 69 474 21 561 21 c 0
 623 21 664 41 714 76 c 1
 731 51 l 1
 679 12 627 -10 561 -10 c 0
 478 -10 419 29 393 103 c 1
 326 17 259 -10 190 -10 c 0
 99 -10 45 44 45 124 c 0
 45 213 105 301 276 301 c 2
 393 301 l 1
 402 340 413 369 419 381 c 1xfb
 416 452 371 500 290 500 c 0
 243 500 197 489 145 469 c 1
 135 497 l 1
 190 518 239 531 291 531 c 0
640 501 m 0
 497 501 429 363 416 241 c 1
 640 256 754 310 754 408 c 0
 754 462 715 501 640 501 c 0
385 272 m 1
 280 272 l 2
 128 272 81 196 81 124 c 0
 81 59 124 21 191 21 c 0
 260 21 322 52 385 135 c 1
 377 175 378 227 385 272 c 1
EndSplineSet
Substitution2: "'smcp' Lowercase to Small Capitals lookup 28 subtable" ae.sc
Substitution2: "'aalt' Access All Alternates lookup 0 subtable" ae.sc
EndChar

StartChar: ccedilla
Encoding: 231 231 150
Width: 462
GlyphClass: 2
Flags: MW
HStem: -218 30<213.5 242.5 213.5 252.5> -198 21G<155 155> -93 23 -10 31<254 254> -9 30<229 229> 500 31<238.5 345>
VStem: 65 35<139 258 139 265.5> 293 35
AnchorPoint: "Anchor-11" 246 0 basechar 0
AnchorPoint: "Anchor-10" 0 0 basechar 0
AnchorPoint: "Anchor-9" 324 520 basechar 0
AnchorPoint: "Anchor-8" 0 0 basechar 0
LayerCount: 2
Fore
SplineSet
321 500 m 0x77
 156 500 100 318 100 198 c 0
 100 80 160 21 248 21 c 0
 301 21 343 40 382 68 c 1
 399 43 l 1
 357 11 308 -9 254 -10 c 1
 244 -70 l 1
 301 -74 328 -94 328 -134 c 0
 328 -183 279 -218 226 -218 c 0xb7
 193 -218 171 -208 155 -198 c 1x77
 171 -173 l 1
 183 -182 201 -188 226 -188 c 0
 259 -188 292 -172 293 -138 c 0
 294 -107 273 -94 211 -93 c 1
 229 -9 l 1xaf
 126 -1 65 72 65 198 c 0
 65 333 132 531 320 531 c 0
 375 531 418 515 453 480 c 1
 432 458 l 1
 404 486 369 500 321 500 c 0x77
EndSplineSet
Substitution2: "'smcp' Lowercase to Small Capitals lookup 24 subtable" ccedilla.sc
Substitution2: "'aalt' Access All Alternates lookup 0 subtable" ccedilla.sc
EndChar
StartChar: egrave
Encoding: 232 232 424
Width: 516
GlyphClass: 2
Flags: MW
HStem: -10 31<202 276.5 202 279> 212 29 501 30<250 360> 714 20G<255 255>
VStem: 63 35<136.5 200.5 136.5 270.5> 439 35<359.5 435.5>
AnchorPoint: "Anchor-14" 0 0 basechar 0
AnchorPoint: "Anchor-13" 0 0 basechar 0
AnchorPoint: "Anchor-12" 349 769 basechar 0
AnchorPoint: "Anchor-11" 341 5 basechar 0
AnchorPoint: "Anchor-10" 241 0 basechar 0
LayerCount: 2
Back
Fore
SplineSet
440 672 m 1
 427 650 l 1
 255 734 l 1
 275 769 l 1
 440 672 l 1
474 410 m 0
 474 286 332 227 99 212 c 0
 99 208 98 203 98 198 c 0
 98 75 158 21 246 21 c 0
 307 21 348 41 398 76 c 1
 416 51 l 1
 363 12 312 -10 246 -10 c 0
 131 -10 63 62 63 197 c 0
 63 344 142 531 320 531 c 0
 415 531 474 482 474 410 c 0
320 501 m 0
 180 501 113 363 101 241 c 1
 325 256 439 310 439 409 c 0
 439 462 400 501 320 501 c 0
EndSplineSet
Substitution2: "'smcp' Lowercase to Small Capitals lookup 28 subtable" egrave.sc
Substitution2: "'aalt' Access All Alternates lookup 0 subtable" egrave.sc
EndChar

StartChar: ecircumflex
Encoding: 234 234 161
Width: 518
GlyphClass: 2
Flags: MW
HStem: -10 31<203 277.5 203 279.5> 212 29 501 30<251 361>
VStem: 64 35<136.5 198 198 212 136.5 270.5> 440 35<359.5 435.5>
AnchorPoint: "Anchor-11" 249 0 basechar 0
AnchorPoint: "Anchor-10" 0 0 basechar 0
AnchorPoint: "Anchor-9" 311 520 basechar 0
AnchorPoint: "Anchor-8" 342 5 basechar 0
LayerCount: 2
Fore
SplineSet
216 650 m 1
 200 670 l 1
 340 770 l 1
 358 770 l 1
 469 670 l 1
 452 650 l 1
 345 735 l 1
 216 650 l 1
475 410 m 0
 475 286 333 226 99 212 c 1
 99 198 l 2
 99 75 159 21 247 21 c 0
 308 21 349 41 399 76 c 1
 417 51 l 1
 364 12 313 -10 246 -10 c 0
 132 -10 64 62 64 197 c 0
 64 344 143 531 321 531 c 0
 416 531 475 482 475 410 c 0
321 501 m 0
 181 501 114 364 101 241 c 1
 325 256 440 310 440 409 c 0
 440 462 401 501 321 501 c 0
EndSplineSet
Substitution2: "'smcp' Lowercase to Small Capitals lookup 24 subtable" ecircumflex.sc
Substitution2: "'aalt' Access All Alternates lookup 0 subtable" ecircumflex.sc
EndChar

StartChar: igrave
Encoding: 236 236 183
Width: 261
GlyphClass: 2
Flags: MW
HStem: 0 21G<77 111 77 77> 500 20G<151 185 185 185> 714 20G<105 105>
VStem: 77 213
AnchorPoint: "Anchor-11" 0 0 basechar 0
AnchorPoint: "Anchor-10" 0 0 basechar 0
AnchorPoint: "Anchor-9" 168 520 basechar 0
AnchorPoint: "Anchor-8" 121 0 basechar 0
LayerCount: 2
Fore
SplineSet
290 672 m 1
 277 650 l 1
 105 734 l 1
 125 769 l 1
 290 672 l 1
111 0 m 1
 77 0 l 1
 151 520 l 1
 185 520 l 1
 111 0 l 1
EndSplineSet
Substitution2: "'smcp' Lowercase to Small Capitals lookup 24 subtable" igrave.sc
Substitution2: "'aalt' Access All Alternates lookup 0 subtable" igrave.sc
EndChar

StartChar: iacute
Encoding: 237 237 178
Width: 261
GlyphClass: 2
Flags: MW
HStem: 0 21G<77 111 77 77> 500 20G<151 185 185 185>
VStem: 77 208
AnchorPoint: "Anchor-11" 0 0 basechar 0
AnchorPoint: "Anchor-10" 0 0 basechar 0
AnchorPoint: "Anchor-9" 168 520 basechar 0
AnchorPoint: "Anchor-8" 121 0 basechar 0
LayerCount: 2
Fore
SplineSet
285 734 m 1
 89 650 l 1
 80 673 l 1
 273 769 l 1
 285 734 l 1
111 0 m 1
 77 0 l 1
 151 520 l 1
 185 520 l 1
 111 0 l 1
EndSplineSet
Substitution2: "'smcp' Lowercase to Small Capitals lookup 24 subtable" iacute.sc
Substitution2: "'aalt' Access All Alternates lookup 0 subtable" iacute.sc
EndChar

StartChar: icircumflex
Encoding: 238 238 180
Width: 261
GlyphClass: 2
Flags: MW
HStem: 0 21G<77 111 77 77> 500 20G<151 185 185 185>
VStem: 56 269<670 670>
AnchorPoint: "Anchor-11" 0 0 basechar 0
AnchorPoint: "Anchor-10" 0 0 basechar 0
AnchorPoint: "Anchor-9" 168 520 basechar 0
AnchorPoint: "Anchor-8" 121 0 basechar 0
LayerCount: 2
Fore
SplineSet
56 670 m 1
 196 770 l 1
 214 770 l 1
 325 670 l 1
 308 650 l 1
 201 735 l 1
 72 650 l 1
 56 670 l 1
111 0 m 1
 77 0 l 1
 151 520 l 1
 185 520 l 1
 111 0 l 1
EndSplineSet
Substitution2: "'smcp' Lowercase to Small Capitals lookup 24 subtable" icircumflex.sc
Substitution2: "'aalt' Access All Alternates lookup 0 subtable" icircumflex.sc
EndChar
StartChar: idieresis
Encoding: 239 239 484
Width: 261
GlyphClass: 2
Flags: MW
HStem: 0 21G<77 111 77 77> 500 20G<151 185 185 185> 669 54<98.5 111 273 285.5>
VStem: 77 55 251 55
AnchorPoint: "Anchor-14" 0 0 basechar 0
AnchorPoint: "Anchor-13" 0 0 basechar 0
AnchorPoint: "Anchor-12" 194 723 basechar 0
AnchorPoint: "Anchor-11" 109 0 basechar 0
AnchorPoint: "Anchor-10" 94 0 basechar 0
LayerCount: 2
Back
Fore
SplineSet
106 723 m 0
 124 723 134 710 132 694 c 0
 130 680 119 669 103 669 c 0
 86 669 75 682 77 698 c 0
 79 712 91 723 106 723 c 0
281 723 m 0
 299 723 309 710 306 694 c 0
 304 680 293 669 278 669 c 0
 260 669 249 682 251 698 c 0
 254 712 265 723 281 723 c 0
185 520 m 1
 111 0 l 1
 77 0 l 1
 151 520 l 1
 185 520 l 1
EndSplineSet
Substitution2: "'smcp' Lowercase to Small Capitals lookup 28 subtable" idieresis.sc
Substitution2: "'aalt' Access All Alternates lookup 0 subtable" idieresis.sc
EndChar
StartChar: eth
Encoding: 240 240 391
Width: 555
GlyphClass: 2
Flags: MW
HStem: -10 31<189 287 189 293> 433 31<217.5 321.5> 552 20G<228 228> 720 20G<213 213>
VStem: 61 35<128 237.5 128 243> 449 34
AnchorPoint: "Anchor-14" 0 0 basechar 0
AnchorPoint: "Anchor-13" 0 0 basechar 0
AnchorPoint: "Anchor-12" 345 734 basechar 0
AnchorPoint: "Anchor-11" 0 0 basechar 0
AnchorPoint: "Anchor-10" 234 0 basechar 0
LayerCount: 2
Back
Fore
SplineSet
369 663 m 1
 439 601 483 519 483 390 c 0
 483 359 480 324 475 288 c 0
 446 84 353 -10 233 -10 c 0
 121 -10 61 63 61 178 c 0
 61 308 122 464 287 464 c 0
 358 464 411 430 449 375 c 1
 450 501 419 575 345 643 c 1
 254 561 l 1
 228 572 l 1
 324 659 l 1
 292 681 247 702 204 711 c 1
 213 740 l 1
 259 730 305 710 347 680 c 1
 425 752 l 1
 445 733 l 1
 369 663 l 1
234 21 m 0
 340 21 415 112 441 293 c 0
 444 312 445 328 446 338 c 1
 406 397 354 433 289 433 c 0
 146 433 96 297 96 178 c 0
 96 78 144 21 234 21 c 0
EndSplineSet
Substitution2: "'smcp' Lowercase to Small Capitals lookup 28 subtable" eth.sc
Substitution2: "'aalt' Access All Alternates lookup 0 subtable" eth.sc
EndChar

StartChar: ntilde
Encoding: 241 241 207
Width: 582
GlyphClass: 2
Flags: MW
HStem: 0 21G<77 111 77 77 402 436 402 402> 500 20G<151 179 179 179> 501 30<331.5 401.5> 674 30<395.5 427.5 395.5 432.5> 713 20G<501 501> 717 30<304 304>
VStem: 456.85 34.23
AnchorPoint: "Anchor-11" 252 0 basechar 0
AnchorPoint: "Anchor-10" 141 520 basechar 0
AnchorPoint: "Anchor-9" 334 520 basechar 0
AnchorPoint: "Anchor-8" 0 0 basechar 0
LayerCount: 2
Fore
SplineSet
420 674 m 0xb6
 362 674 340 718 304 717 c 0
 273 716 263 706 239 680 c 1
 219 695 l 1
 245 728 270 747 304 747 c 0xa6
 345 747 374 704 417 704 c 0
 438 704 456 716 480 748 c 1xb6
 501 733 l 1xaa
 472 690 445 674 420 674 c 0xb6
371 531 m 0xa6
 464 531 503 471 488 369 c 2
 436 0 l 1
 402 0 l 1
 454 367 l 2
 467 459 437 501 366 501 c 0xa6
 284 501 213 422 155 310 c 1
 111 0 l 1
 77 0 l 1
 151 520 l 1
 179 520 l 1xc6
 162 371 l 1
 215 471 292 531 371 531 c 0xa6
EndSplineSet
Substitution2: "'smcp' Lowercase to Small Capitals lookup 24 subtable" ntilde.sc
Substitution2: "'aalt' Access All Alternates lookup 0 subtable" ntilde.sc
EndChar
StartChar: ograve
Encoding: 242 242 568
Width: 562
GlyphClass: 2
Flags: MW
HStem: -10 31<198.5 327.5 198.5 341.5> 501 30<233 364> 714 20G<263 263>
VStem: 64 35<139 253.5 139 264.5> 463 35<266 383>
AnchorPoint: "Anchor-14" 0 0 basechar 0
AnchorPoint: "Anchor-13" 493 520 basechar 0
AnchorPoint: "Anchor-12" 357 769 basechar 0
AnchorPoint: "Anchor-11" 0 0 basechar 0
AnchorPoint: "Anchor-10" 245 0 basechar 0
LayerCount: 2
Back
Fore
SplineSet
283 769 m 1
 448 672 l 1
 435 650 l 1
 263 734 l 1
 283 769 l 1
318 531 m 0
 431 531 498 459 498 327 c 0
 498 196 438 -10 245 -10 c 0
 130 -10 64 66 64 198 c 0
 64 331 127 531 318 531 c 0
317 501 m 0
 149 501 99 311 99 196 c 0
 99 82 152 21 245 21 c 0
 410 21 463 206 463 326 c 0
 463 440 411 501 317 501 c 0
EndSplineSet
Substitution2: "'smcp' Lowercase to Small Capitals lookup 28 subtable" ograve.sc
Substitution2: "'aalt' Access All Alternates lookup 0 subtable" ograve.sc
EndChar
StartChar: otilde
Encoding: 245 245 588
Width: 562
GlyphClass: 2
Flags: MW
HStem: -10 31<198.5 327.5 198.5 341.5> 501 30<233 364> 674 30<382 413.5 382 417> 717 30<274.5 308>
VStem: 64 35<139 253.5 139 264.5> 463 35<266 383>
AnchorPoint: "Anchor-14" 0 0 basechar 0
AnchorPoint: "Anchor-13" 493 520 basechar 0
AnchorPoint: "Anchor-12" 348 748 basechar 0
AnchorPoint: "Anchor-11" 0 0 basechar 0
AnchorPoint: "Anchor-10" 245 0 basechar 0
LayerCount: 2
Back
Fore
SplineSet
403 674 m 0
 351 674 328 717 288 717 c 0
 261 717 249 706 225 680 c 1
 205 695 l 1
 231 728 258 747 288 747 c 0xfc
 333 747 361 704 403 704 c 0
 424 704 442 716 467 748 c 1
 487 733 l 1
 458 690 431 674 403 674 c 0
318 531 m 0
 431 531 498 459 498 327 c 0
 498 196 438 -10 245 -10 c 0
 130 -10 64 66 64 198 c 0
 64 331 127 531 318 531 c 0
317 501 m 0
 149 501 99 311 99 196 c 0
 99 82 152 21 245 21 c 0
 410 21 463 206 463 326 c 0
 463 440 411 501 317 501 c 0
EndSplineSet
Substitution2: "'smcp' Lowercase to Small Capitals lookup 28 subtable" otilde.sc
Substitution2: "'aalt' Access All Alternates lookup 0 subtable" otilde.sc
EndChar
StartChar: divide
Encoding: 247 247 2249
Width: 488
GlyphClass: 2
Flags: MW
HStem: 86 65<216 231.5> 315 32<82 426 86 422> 511 64<275 290.5>
VStem: 191 65<110.5 126> 250 65<535 550.5>
LayerCount: 2
Back
Fore
SplineSet
285 575 m 0x68
 304 575 315 562 315 545 c 0
 315 525 301 511 280 511 c 0
 262 511 250 524 250 540 c 0
 250 561 265 575 285 575 c 0x68
82 315 m 1
 86 347 l 1
 426 347 l 1
 422 315 l 1
 82 315 l 1
226 151 m 0xd0
 245 151 256 138 256 120 c 0
 256 101 242 86 221 86 c 0
 203 86 191 99 191 116 c 0
 191 136 206 151 226 151 c 0xd0
EndSplineSet
Substitution2: "'onum' Oldstyle Figures lookup 26 subtable" divide.osf
Substitution2: "'tnum' Tabular Numbers lookup 25 subtable" divide.tf
AlternateSubs2: "'aalt' Access All Alternates lookup 1 subtable" divide.tf divide.osf
EndChar

StartChar: oslash
Encoding: 248 248 216
Width: 562
GlyphClass: 2
Flags: MW
HStem: -10 31<234.5 327.5 234.5 341.5> 1 20 499 20G<388 388> 501 30<233 328>
VStem: 64 35<158.5 253.5 158.5 264.5> 463 35<266 363>
AnchorPoint: "Anchor-11" 0 0 basechar 0
AnchorPoint: "Anchor-10" 0 0 basechar 0
AnchorPoint: "Anchor-9" 319 520 basechar 0
AnchorPoint: "Anchor-8" 0 0 basechar 0
LayerCount: 2
Fore
SplineSet
475 634 m 1x9c
 416 506 l 1
 469 475 498 414 498 327 c 0
 498 196 438 -10 245 -10 c 0x9c
 219 -10 196 -6 175 1 c 1
 115 -122 l 1
 87 -113 l 1
 148 14 l 1
 94 46 64 110 64 198 c 0
 64 331 127 531 318 531 c 0x5c
 344 531 367 527 388 519 c 1xac
 446 643 l 1
 475 634 l 1x9c
317 501 m 0
 149 501 99 311 99 196 c 0
 99 121 122 69 164 42 c 1
 377 490 l 1
 359 497 339 501 317 501 c 0
188 30 m 1
 205 24 224 21 245 21 c 0
 410 21 463 206 463 326 c 0
 463 400 441 452 400 478 c 1
 188 30 l 1
EndSplineSet
Substitution2: "'smcp' Lowercase to Small Capitals lookup 24 subtable" oslash.sc
Substitution2: "'aalt' Access All Alternates lookup 0 subtable" oslash.sc
EndChar

StartChar: ugrave
Encoding: 249 249 244
Width: 577
GlyphClass: 2
Flags: MW
HStem: -10 31<183 257.5> 0 21G 500 20G<146 180 180 180 466 500 500 500> 714 20G<260 260>
VStem: 91.19 34.14
AnchorPoint: "Anchor-11" 0 0 basechar 0
AnchorPoint: "Anchor-10" 0 0 basechar 0
AnchorPoint: "Anchor-9" 323 520 basechar 0
AnchorPoint: "Anchor-8" 436 0 basechar 0
LayerCount: 2
Fore
SplineSet
445 672 m 1xb8
 432 650 l 1
 260 734 l 1
 280 769 l 1
 445 672 l 1xb8
426 0 m 1x78
 400 0 l 1x78
 419 159 l 1
 376 62 303 -10 212 -10 c 0
 125 -10 79 47 94 150 c 2
 146 520 l 1
 180 520 l 1
 128 150 l 2
 115 60 150 21 216 21 c 0xb8
 303 21 374 103 424 216 c 1
 466 520 l 1
 500 520 l 1
 426 0 l 1x78
EndSplineSet
Substitution2: "'smcp' Lowercase to Small Capitals lookup 24 subtable" ugrave.sc
Substitution2: "'aalt' Access All Alternates lookup 0 subtable" ugrave.sc
EndChar

StartChar: ucircumflex
Encoding: 251 251 242
Width: 577
GlyphClass: 2
Flags: MW
HStem: -10 31<183 257.5> 0 21G 500 20G<146 180 180 180 466 500 500 500>
VStem: 91.19 34.14
AnchorPoint: "Anchor-11" 0 0 basechar 0
AnchorPoint: "Anchor-10" 0 0 basechar 0
AnchorPoint: "Anchor-9" 323 520 basechar 0
AnchorPoint: "Anchor-8" 436 0 basechar 0
LayerCount: 2
Fore
SplineSet
212 670 m 1xb0
 352 770 l 1
 370 770 l 1
 481 670 l 1
 464 650 l 1
 357 735 l 1
 228 650 l 1
 212 670 l 1xb0
426 0 m 1x70
 400 0 l 1x70
 419 159 l 1
 376 62 303 -10 212 -10 c 0
 125 -10 79 47 94 150 c 2
 146 520 l 1
 180 520 l 1
 128 150 l 2
 115 60 150 21 216 21 c 0xb0
 303 21 374 103 424 216 c 1
 466 520 l 1
 500 520 l 1
 426 0 l 1x70
EndSplineSet
Substitution2: "'smcp' Lowercase to Small Capitals lookup 24 subtable" ucircumflex.sc
Substitution2: "'aalt' Access All Alternates lookup 0 subtable" ucircumflex.sc
EndChar
StartChar: udieresis
Encoding: 252 252 664
Width: 577
GlyphClass: 2
Flags: MW
HStem: -10 31<183 257.5> 0 21G 500 20G<146 180 180 180 466 500 500 500> 669 54<254.5 267 429 441.5>
VStem: 91.19 34.14 233 55 407 55
AnchorPoint: "Anchor-14" 0 0 basechar 0
AnchorPoint: "Anchor-13" 510 520 basechar 0
AnchorPoint: "Anchor-12" 350 723 basechar 0
AnchorPoint: "Anchor-11" 436 0 basechar 0
AnchorPoint: "Anchor-10" 251 0 basechar 0
LayerCount: 2
Back
Fore
SplineSet
262 723 m 0xbe
 280 723 290 710 288 694 c 0
 286 680 275 669 259 669 c 0
 242 669 231 682 233 698 c 0
 235 712 247 723 262 723 c 0xbe
437 723 m 0
 455 723 465 710 462 694 c 0
 460 680 449 669 434 669 c 0
 416 669 405 682 407 698 c 0
 410 712 421 723 437 723 c 0
500 520 m 1
 426 0 l 1
 400 0 l 1x7e
 419 159 l 1
 376 62 303 -10 212 -10 c 0
 125 -10 79 47 94 150 c 2
 146 520 l 1
 180 520 l 1
 128 150 l 2
 115 60 150 21 216 21 c 0
 303 21 374 103 424 216 c 1
 466 520 l 1
 500 520 l 1
EndSplineSet
Substitution2: "'smcp' Lowercase to Small Capitals lookup 28 subtable" udieresis.sc
Substitution2: "'aalt' Access All Alternates lookup 0 subtable" udieresis.sc
EndChar
StartChar: yacute
Encoding: 253 253 700
Width: 450
GlyphClass: 2
Flags: MW
HStem: -198 21G<-5 -5> 0 21G<167 167> 0 25 500 20G<56 92 92 92 430 468 468 468>
VStem: -8 476
AnchorPoint: "Anchor-14" 0 0 basechar 0
AnchorPoint: "Anchor-13" 0 0 basechar 0
AnchorPoint: "Anchor-12" 283 769 basechar 0
AnchorPoint: "Anchor-11" 0 0 basechar 0
AnchorPoint: "Anchor-10" 158 -194 basechar 0
LayerCount: 2
Back
Fore
SplineSet
372 769 m 1xd8
 384 734 l 1
 188 650 l 1
 179 673 l 1
 372 769 l 1xd8
468 520 m 1
 215 -3 l 2
 159 -118 113 -167 -5 -198 c 1
 -8 -170 l 1
 101 -140 131 -98 182 1 c 1
 167 0 l 1
 56 520 l 1
 92 520 l 1
 194 25 l 1xb8
 430 520 l 1
 468 520 l 1
EndSplineSet
Substitution2: "'smcp' Lowercase to Small Capitals lookup 28 subtable" yacute.sc
Substitution2: "'aalt' Access All Alternates lookup 0 subtable" yacute.sc
EndChar

StartChar: ydieresis
Encoding: 255 255 260
Width: 450
GlyphClass: 2
Flags: MW
HStem: -198 21G<-5 -5> 0 25 1 21G<181 181> 500 20G<56 92 92 92 430 468 468 468> 669 54<178.5 191 353 365.5>
VStem: 157 55 331 55
AnchorPoint: "Anchor-11" 0 0 basechar 0
AnchorPoint: "Anchor-10" 0 0 basechar 0
AnchorPoint: "Anchor-9" 265 643 basechar 0
AnchorPoint: "Anchor-8" 0 0 basechar 0
LayerCount: 2
Fore
SplineSet
186 723 m 0xde
 204 723 214 710 212 694 c 0
 210 680 199 669 183 669 c 0
 166 669 155 682 157 698 c 0
 159 712 171 723 186 723 c 0xde
361 723 m 0
 379 723 389 710 386 694 c 0
 384 680 373 669 358 669 c 0
 340 669 329 682 331 698 c 1
 334 712 345 723 361 723 c 0
215 -3 m 2
 159 -118 113 -167 -5 -198 c 1
 -8 -171 l 1
 101 -141 130 -98 181 1 c 1
 167 0 l 1xbc
 56 520 l 1
 92 520 l 1
 194 25 l 1
 430 520 l 1
 468 520 l 1
 215 -3 l 2
EndSplineSet
Substitution2: "'smcp' Lowercase to Small Capitals lookup 24 subtable" ydieresis.sc
Substitution2: "'aalt' Access All Alternates lookup 0 subtable" ydieresis.sc
EndChar

StartChar: Amacron
Encoding: 256 256 7
Width: 559
GlyphClass: 2
Flags: MW
HStem: 0 21G<-13 23 -13 -13 462 462 462 498> 197 32<132 418 132 424 117 418> 654 28<335 335> 808 32<252 464 247 470>
VStem: -13 511<0 0>
AnchorPoint: "Anchor-11" 0 0 basechar 0
AnchorPoint: "Anchor-10" 195 520 basechar 0
AnchorPoint: "Anchor-9" 338 682 basechar 0
AnchorPoint: "Anchor-8" 505 0 basechar 0
LayerCount: 2
Fore
SplineSet
464 808 m 1
 247 808 l 1
 252 840 l 1
 470 840 l 1
 464 808 l 1
424 197 m 1
 117 197 l 1
 23 0 l 1
 -13 0 l 1
 317 682 l 1
 360 682 l 1
 498 0 l 1
 462 0 l 1
 424 197 l 1
418 229 m 1
 335 654 l 1
 132 229 l 1
 418 229 l 1
EndSplineSet
Substitution2: "'c2sc' Capitals to Small Capitals lookup 23 subtable" amacron.sc
Substitution2: "'aalt' Access All Alternates lookup 0 subtable" amacron.sc
Position2: "'cpsp' Capital Spacing lookup 0 subtable" dx=5 dy=0 dh=10 dv=0
EndChar
StartChar: amacron
Encoding: 257 257 361
Width: 552
GlyphClass: 2
Flags: MW
HStem: -10 31<186.5 260> 502 29<241.5 349.5> 682 32<255 467 250 473>
VStem: 63 35<138 255.5 138 262.5> 390 31
AnchorPoint: "Anchor-14" 0 0 basechar 0
AnchorPoint: "Anchor-13" 0 0 basechar 0
AnchorPoint: "Anchor-12" 364 714 basechar 0
AnchorPoint: "Anchor-11" 453 -10 basechar 0
AnchorPoint: "Anchor-10" 267 0 basechar 0
LayerCount: 2
Back
Fore
SplineSet
467 682 m 1
 250 682 l 1
 255 714 l 1
 473 714 l 1
 467 682 l 1
324 531 m 0
 395 531 437 512 480 488 c 1
 424 110 l 2
 422 94 421 82 421 71 c 0
 421 36 433 24 454 15 c 1
 444 -10 l 1
 407 1 384 21 390 89 c 1
 352 30 295 -10 225 -10 c 0
 124 -10 63 65 63 193 c 0
 63 332 133 531 324 531 c 0
325 502 m 0
 158 502 98 317 98 194 c 0
 98 82 145 21 228 21 c 0
 297 21 350 64 396 141 c 1
 444 472 l 1
 414 490 374 502 325 502 c 0
EndSplineSet
Substitution2: "'smcp' Lowercase to Small Capitals lookup 28 subtable" amacron.sc
Substitution2: "'aalt' Access All Alternates lookup 0 subtable" amacron.sc
EndChar

StartChar: Abreve
Encoding: 258 258 3
Width: 559
GlyphClass: 2
Flags: MW
HStem: 0 21G<-13 23 -13 -13 462 462 462 498> 197 32<132 418 132 424 117 418> 654 28<335 335> 769 32<325 372 325 378>
VStem: 242 25<855 858>
AnchorPoint: "Anchor-11" 0 0 basechar 0
AnchorPoint: "Anchor-10" 195 520 basechar 0
AnchorPoint: "Anchor-9" 338 682 basechar 0
AnchorPoint: "Anchor-8" 505 0 basechar 0
LayerCount: 2
Fore
SplineSet
348 769 m 0
 286 769 245 809 242 855 c 1
 267 858 l 1
 274 824 302 801 348 801 c 0
 396 801 431 826 448 860 c 1
 473 853 l 1
 458 807 408 769 348 769 c 0
424 197 m 1
 117 197 l 1
 23 0 l 1
 -13 0 l 1
 317 682 l 1
 360 682 l 1
 498 0 l 1
 462 0 l 1
 424 197 l 1
418 229 m 1
 335 654 l 1
 132 229 l 1
 418 229 l 1
EndSplineSet
Substitution2: "'c2sc' Capitals to Small Capitals lookup 23 subtable" abreve.sc
Substitution2: "'aalt' Access All Alternates lookup 0 subtable" abreve.sc
Position2: "'cpsp' Capital Spacing lookup 0 subtable" dx=5 dy=0 dh=10 dv=0
EndChar

StartChar: abreve
Encoding: 259 259 136
Width: 553
GlyphClass: 2
Flags: MW
HStem: -10 31<187.5 261> 502 29<242.5 350.5> 660 31<331 378 331 384>
VStem: 64 35<138 255.5 138 262.5> 250 26<756 759> 391 31
AnchorPoint: "Anchor-11" 0 0 basechar 0
AnchorPoint: "Anchor-10" 0 0 basechar 0
AnchorPoint: "Anchor-9" 333 520 basechar 0
AnchorPoint: "Anchor-8" 454 -10 basechar 0
LayerCount: 2
Fore
SplineSet
354 660 m 0
 292 660 252 700 250 756 c 1
 276 759 l 1
 282 715 308 691 354 691 c 0
 402 691 439 717 457 761 c 1
 481 753 l 1
 465 697 414 660 354 660 c 0
324 531 m 0
 396 531 438 512 481 488 c 1
 425 110 l 2
 423 94 422 82 422 71 c 0
 422 36 434 24 455 15 c 1
 445 -10 l 1
 408 1 385 21 391 89 c 1
 353 30 296 -10 226 -10 c 0
 125 -10 64 65 64 193 c 0
 64 332 133 531 324 531 c 0
326 502 m 0
 159 502 99 317 99 194 c 0
 99 82 146 21 229 21 c 0
 298 21 351 64 397 141 c 1
 445 472 l 1
 414 490 375 502 326 502 c 0
EndSplineSet
Substitution2: "'smcp' Lowercase to Small Capitals lookup 24 subtable" abreve.sc
Substitution2: "'aalt' Access All Alternates lookup 0 subtable" abreve.sc
EndChar
StartChar: Aogonek
Encoding: 260 260 28
Width: 559
GlyphClass: 2
Flags: MW
HStem: -208 33<396.5 423> -202 21G<468 468> 0 21G<-13 23 -13 -13 497 498 497 497> 197 32<132 417 132 423 117 417> 654 28<335 335>
VStem: 322 36<-139 -101>
AnchorPoint: "Anchor-14" 0 0 basechar 0
AnchorPoint: "Anchor-13" 0 0 basechar 0
AnchorPoint: "Anchor-12" 338 682 basechar 0
AnchorPoint: "Anchor-11" 505 0 basechar 0
AnchorPoint: "Anchor-10" 242 0 basechar 0
LayerCount: 2
Back
Fore
SplineSet
497 0 m 1x7c
 412 -37 358 -68 358 -123 c 0
 358 -155 374 -175 419 -175 c 0
 438 -175 452 -173 474 -169 c 1xbc
 468 -202 l 1x7c
 448 -206 432 -208 414 -208 c 0
 350 -208 322 -176 322 -135 c 0xbc
 322 -67 368 -30 460 8 c 1
 423 197 l 1
 117 197 l 1
 23 0 l 1
 -13 0 l 1
 317 682 l 1
 360 682 l 1
 498 0 l 1
 497 0 l 1x7c
132 229 m 1
 417 229 l 1
 335 654 l 1
 132 229 l 1
EndSplineSet
Substitution2: "'c2sc' Capitals to Small Capitals lookup 27 subtable" aogonek.sc
Substitution2: "'aalt' Access All Alternates lookup 0 subtable" aogonek.sc
Position2: "'cpsp' Capital Spacing lookup 0 subtable" dx=5 dy=0 dh=10 dv=0
EndChar
StartChar: aogonek
Encoding: 261 261 362
Width: 552
GlyphClass: 2
Flags: MW
HStem: -218 33<343.5 370> -10 31<186.5 260> 502 29<241.5 349.5>
VStem: 63 35<138 255.5 138 262.5> 269 36<-149 -110> 390 31
AnchorPoint: "Anchor-14" 0 0 basechar 0
AnchorPoint: "Anchor-13" 0 0 basechar 0
AnchorPoint: "Anchor-12" 337 520 basechar 0
AnchorPoint: "Anchor-11" 453 -10 basechar 0
AnchorPoint: "Anchor-10" 267 0 basechar 0
LayerCount: 2
Back
Fore
SplineSet
421 71 m 0
 421 36 433 24 454 15 c 1
 444 -10 l 1
 359 -47 305 -78 305 -133 c 0
 305 -165 321 -185 366 -185 c 0
 385 -185 399 -183 421 -179 c 1
 415 -212 l 1
 395 -216 379 -218 361 -218 c 0
 297 -218 269 -186 269 -145 c 0
 269 -75 318 -37 416 2 c 1
 396 16 386 40 390 89 c 1
 352 30 295 -10 225 -10 c 0
 124 -10 63 65 63 193 c 0
 63 332 133 531 324 531 c 0
 395 531 437 512 480 488 c 1
 424 110 l 2
 422 94 421 82 421 71 c 0
396 141 m 1
 444 472 l 1
 414 490 374 502 325 502 c 0
 158 502 98 317 98 194 c 0
 98 82 145 21 228 21 c 0
 297 21 350 64 396 141 c 1
EndSplineSet
Substitution2: "'smcp' Lowercase to Small Capitals lookup 28 subtable" aogonek.sc
Substitution2: "'aalt' Access All Alternates lookup 0 subtable" aogonek.sc
EndChar
StartChar: Cacute
Encoding: 262 262 43
Width: 542
GlyphClass: 2
Flags: MW
HStem: -10 33<250 344 250 344> 660 33<296.5 433.5>
VStem: 79 35<180 342 180 350.5>
AnchorPoint: "Anchor-14" 0 0 basechar 0
AnchorPoint: "Anchor-13" 0 0 basechar 0
AnchorPoint: "Anchor-12" 421 872 basechar 0
AnchorPoint: "Anchor-11" 0 0 basechar 0
AnchorPoint: "Anchor-10" 303 0 basechar 0
LayerCount: 2
Back
Fore
SplineSet
508 872 m 1
 521 837 l 1
 324 761 l 1
 317 783 l 1
 508 872 l 1
402 693 m 0
 477 693 521 669 561 633 c 1
 540 609 l 1
 498 645 463 660 404 660 c 0
 189 660 114 424 114 260 c 0
 114 100 194 23 306 23 c 0
 382 23 425 48 470 81 c 1
 489 55 l 1
 441 17 383 -10 305 -10 c 0
 172 -10 79 83 79 260 c 0
 79 441 165 693 402 693 c 0
EndSplineSet
Substitution2: "'c2sc' Capitals to Small Capitals lookup 27 subtable" cacute.sc
Substitution2: "'locl' Localized Forms in Latin lookup 7 subtable" Cacute.loclPLK
AlternateSubs2: "'aalt' Access All Alternates lookup 1 subtable" Cacute.loclPLK cacute.sc
Position2: "'cpsp' Capital Spacing lookup 0 subtable" dx=5 dy=0 dh=10 dv=0
EndChar
StartChar: Ccircumflex
Encoding: 264 264 46
Width: 542
GlyphClass: 2
Flags: MW
HStem: -10 33<250 344 250 344> 660 33<296.5 433.5>
VStem: 79 35<180 342 180 350.5>
AnchorPoint: "Anchor-14" 0 0 basechar 0
AnchorPoint: "Anchor-13" 495 734 basechar 0
AnchorPoint: "Anchor-12" 422 879 basechar 0
AnchorPoint: "Anchor-11" 0 0 basechar 0
AnchorPoint: "Anchor-10" 303 0 basechar 0
LayerCount: 2
Back
Fore
SplineSet
526 765 m 1
 418 844 l 1
 290 765 l 1
 274 784 l 1
 413 879 l 1
 432 879 l 1
 543 784 l 1
 526 765 l 1
402 693 m 0
 477 693 521 669 561 633 c 1
 540 609 l 1
 498 645 463 660 404 660 c 0
 189 660 114 424 114 260 c 0
 114 100 194 23 306 23 c 0
 382 23 425 48 470 81 c 1
 489 55 l 1
 441 17 383 -10 305 -10 c 0
 172 -10 79 83 79 260 c 0
 79 441 165 693 402 693 c 0
EndSplineSet
Substitution2: "'c2sc' Capitals to Small Capitals lookup 27 subtable" ccircumflex.sc
Substitution2: "'aalt' Access All Alternates lookup 0 subtable" ccircumflex.sc
Position2: "'cpsp' Capital Spacing lookup 0 subtable" dx=5 dy=0 dh=10 dv=0
EndChar

StartChar: Cdotaccent
Encoding: 266 266 19
Width: 542
GlyphClass: 2
Flags: MW
HStem: -10 33<250.5 344 250.5 344> 660 33<297 434> 805 55<414.5 427.5>
VStem: 79 35<180 342 180 350.5> 393 56
AnchorPoint: "Anchor-11" 303 0 basechar 0
AnchorPoint: "Anchor-10" 0 0 basechar 0
AnchorPoint: "Anchor-9" 400 682 basechar 0
AnchorPoint: "Anchor-8" 0 0 basechar 0
LayerCount: 2
Fore
SplineSet
423 860 m 0
 442 860 451 847 449 831 c 0
 447 816 436 805 419 805 c 0
 401 805 391 818 393 835 c 0
 395 849 406 860 423 860 c 0
402 693 m 0
 477 693 521 669 561 633 c 1
 540 609 l 1
 498 645 463 660 405 660 c 0
 189 660 114 424 114 260 c 0
 114 100 195 23 306 23 c 0
 382 23 425 48 470 81 c 1
 489 55 l 1
 441 17 383 -10 305 -10 c 0
 171 -10 79 83 79 260 c 0
 79 441 165 693 402 693 c 0
EndSplineSet
Substitution2: "'c2sc' Capitals to Small Capitals lookup 23 subtable" cdotaccent.sc
Substitution2: "'aalt' Access All Alternates lookup 0 subtable" cdotaccent.sc
Position2: "'cpsp' Capital Spacing lookup 0 subtable" dx=5 dy=0 dh=10 dv=0
EndChar

StartChar: cdotaccent
Encoding: 267 267 152
Width: 462
GlyphClass: 2
Flags: MW
HStem: -10 31<204 274.5 204 278> 500 31<238.5 345> 679 55<343.5 356.5>
VStem: 65 35<139 258 139 265.5> 322 56
AnchorPoint: "Anchor-11" 246 0 basechar 0
AnchorPoint: "Anchor-10" 0 0 basechar 0
AnchorPoint: "Anchor-9" 324 520 basechar 0
AnchorPoint: "Anchor-8" 0 0 basechar 0
LayerCount: 2
Fore
SplineSet
352 734 m 0
 371 734 380 721 378 705 c 0
 376 690 365 679 348 679 c 0
 330 679 320 692 322 709 c 0
 324 723 335 734 352 734 c 0
320 531 m 0
 375 531 418 515 453 480 c 1
 432 458 l 1
 404 486 369 500 321 500 c 0
 156 500 100 318 100 198 c 0
 100 80 160 21 248 21 c 0
 301 21 343 40 382 68 c 1
 399 43 l 1
 356 10 306 -10 250 -10 c 0
 135 -10 65 63 65 198 c 0
 65 333 132 531 320 531 c 0
EndSplineSet
Substitution2: "'smcp' Lowercase to Small Capitals lookup 24 subtable" cdotaccent.sc
Substitution2: "'aalt' Access All Alternates lookup 0 subtable" cdotaccent.sc
EndChar
StartChar: Dcaron
Encoding: 270 270 55
Width: 623
GlyphClass: 2
Flags: MW
HStem: 0 32<122 217> 650 32<208 303 208 208>
VStem: 532 35<336 525.5>
AnchorPoint: "Anchor-14" 328 341 basechar 0
AnchorPoint: "Anchor-13" 0 0 basechar 0
AnchorPoint: "Anchor-12" 377 873 basechar 0
AnchorPoint: "Anchor-11" 0 0 basechar 0
AnchorPoint: "Anchor-10" 252 0 basechar 0
LayerCount: 2
Back
Fore
SplineSet
494 873 m 1
 509 853 l 1
 371 758 l 1
 353 758 l 1
 240 853 l 1
 258 872 l 1
 366 793 l 1
 494 873 l 1
307 682 m 2
 438 682 567 638 567 429 c 0
 567 221 478 0 217 0 c 2
 82 0 l 1
 178 682 l 1
 307 682 l 2
303 650 m 2
 208 650 l 1
 122 32 l 1
 221 32 l 2
 456 32 532 242 532 430 c 0
 532 621 416 650 303 650 c 2
EndSplineSet
Substitution2: "'c2sc' Capitals to Small Capitals lookup 27 subtable" dcaron.sc
Substitution2: "'aalt' Access All Alternates lookup 0 subtable" dcaron.sc
Position2: "'cpsp' Capital Spacing lookup 0 subtable" dx=5 dy=0 dh=10 dv=0
EndChar

StartChar: dcaron
Encoding: 271 271 155
Width: 575
GlyphClass: 2
Flags: MW
HStem: -10 31<184.5 265.5> 0 21G 501 30<232.5 347> 714 20G<525 525 648 648> 718 20G<613 613> 719 20G<491 491>
VStem: 64 35<138 256.5 138 261>
LayerCount: 2
Fore
SplineSet
525 734 m 1xb2
 421 0 l 1
 392 0 l 1x72
 404 120 l 1
 367 54 310 -10 221 -10 c 0
 125 -10 64 65 64 193 c 0
 64 329 126 531 309 531 c 0
 387 531 428 491 451 454 c 1
 491 739 l 1xa6
 525 734 l 1xb2
648 734 m 1
 596 584 l 1
 573 587 l 1
 613 738 l 1xaa
 648 734 l 1
311 501 m 0
 154 501 99 319 99 194 c 0
 99 82 146 21 223 21 c 0
 309 21 361 87 413 179 c 1
 445 414 l 1
 421 461 383 501 311 501 c 0
EndSplineSet
Substitution2: "'smcp' Lowercase to Small Capitals lookup 24 subtable" dcaron.sc
Substitution2: "'aalt' Access All Alternates lookup 0 subtable" dcaron.sc
EndChar

StartChar: dcroat
Encoding: 273 273 156
Width: 582
GlyphClass: 2
Flags: MW
HStem: -10 31<189.5 270.5> 0 21G 501 30<237.5 352> 624 30<312 480 312 484 519 587> 714 20G<530 530> 719 20G<496 496>
VStem: 69 35<138 256.5 138 261>
LayerCount: 2
Fore
SplineSet
587 624 m 1xb6
 514 624 l 1
 426 0 l 1
 397 0 l 1x76
 409 120 l 1
 372 54 315 -10 226 -10 c 0
 130 -10 69 65 69 193 c 0
 69 329 131 531 314 531 c 0
 392 531 433 491 456 454 c 1
 480 624 l 1
 312 624 l 1
 312 654 l 1
 484 654 l 1
 496 739 l 1xb6
 530 734 l 1xba
 519 654 l 1
 591 654 l 1
 587 624 l 1xb6
450 414 m 1
 426 461 388 501 316 501 c 0
 159 501 104 319 104 194 c 0
 104 82 151 21 228 21 c 0xb6
 314 21 366 87 418 179 c 1
 450 414 l 1
EndSplineSet
Substitution2: "'smcp' Lowercase to Small Capitals lookup 24 subtable" dcroat.sc
Substitution2: "'aalt' Access All Alternates lookup 0 subtable" dcroat.sc
EndChar
StartChar: Emacron
Encoding: 274 274 83
Width: 495
GlyphClass: 2
Flags: MW
HStem: 0 32<122 417> 343 31<170 416 165 420> 650 32<208 499 208 208> 808 32<260 472 255 478>
VStem: 82 425
AnchorPoint: "Anchor-14" 0 0 basechar 0
AnchorPoint: "Anchor-13" 0 0 basechar 0
AnchorPoint: "Anchor-12" 369 840 basechar 0
AnchorPoint: "Anchor-11" 402 0 basechar 0
AnchorPoint: "Anchor-10" 246 0 basechar 0
LayerCount: 2
Back
Fore
SplineSet
472 808 m 1
 255 808 l 1
 260 840 l 1
 478 840 l 1
 472 808 l 1
507 682 m 1
 499 650 l 1
 208 650 l 1
 170 374 l 1
 420 374 l 1
 416 343 l 1
 165 343 l 1
 122 32 l 1
 423 32 l 1
 417 0 l 1
 82 0 l 1
 178 682 l 1
 507 682 l 1
EndSplineSet
Substitution2: "'c2sc' Capitals to Small Capitals lookup 27 subtable" emacron.sc
Substitution2: "'aalt' Access All Alternates lookup 0 subtable" emacron.sc
Position2: "'cpsp' Capital Spacing lookup 0 subtable" dx=5 dy=0 dh=10 dv=0
EndChar
StartChar: Ebreve
Encoding: 276 276 67
Width: 495
GlyphClass: 2
Flags: MW
HStem: 0 32<122 417> 343 31<170 416 165 420> 650 32<208 499 208 208> 769 32<334 381 334 387>
VStem: 251 25<855 858>
AnchorPoint: "Anchor-14" 0 0 basechar 0
AnchorPoint: "Anchor-13" 0 0 basechar 0
AnchorPoint: "Anchor-12" 369 860 basechar 0
AnchorPoint: "Anchor-11" 402 0 basechar 0
AnchorPoint: "Anchor-10" 246 0 basechar 0
LayerCount: 2
Back
Fore
SplineSet
357 769 m 0
 295 769 254 809 251 855 c 1
 276 858 l 1
 283 824 311 801 357 801 c 0
 405 801 440 826 457 860 c 1
 482 853 l 1
 467 807 417 769 357 769 c 0
507 682 m 1
 499 650 l 1
 208 650 l 1
 170 374 l 1
 420 374 l 1
 416 343 l 1
 165 343 l 1
 122 32 l 1
 423 32 l 1
 417 0 l 1
 82 0 l 1
 178 682 l 1
 507 682 l 1
EndSplineSet
Substitution2: "'c2sc' Capitals to Small Capitals lookup 27 subtable" ebreve.sc
Substitution2: "'aalt' Access All Alternates lookup 0 subtable" ebreve.sc
Position2: "'cpsp' Capital Spacing lookup 0 subtable" dx=5 dy=0 dh=10 dv=0
EndChar

StartChar: ebreve
Encoding: 277 277 159
Width: 518
GlyphClass: 2
Flags: MW
HStem: -10 31<203 277.5 203 279.5> 212 29 501 30<251 361> 660 31<309 356 309 362>
VStem: 64 35<136.5 198 198 212 136.5 270.5> 228 26<756 759> 440 35<359.5 435.5>
AnchorPoint: "Anchor-11" 249 0 basechar 0
AnchorPoint: "Anchor-10" 0 0 basechar 0
AnchorPoint: "Anchor-9" 311 520 basechar 0
AnchorPoint: "Anchor-8" 342 5 basechar 0
LayerCount: 2
Fore
SplineSet
332 660 m 0
 270 660 230 700 228 756 c 1
 254 759 l 1
 260 715 286 691 332 691 c 0
 380 691 417 717 435 761 c 1
 459 753 l 1
 443 697 392 660 332 660 c 0
475 410 m 0
 475 286 333 226 99 212 c 1
 99 198 l 2
 99 75 159 21 247 21 c 0
 308 21 349 41 399 76 c 1
 417 51 l 1
 364 12 313 -10 246 -10 c 0
 132 -10 64 62 64 197 c 0
 64 344 143 531 321 531 c 0
 416 531 475 482 475 410 c 0
321 501 m 0
 181 501 114 364 101 241 c 1
 325 256 440 310 440 409 c 0
 440 462 401 501 321 501 c 0
EndSplineSet
Substitution2: "'smcp' Lowercase to Small Capitals lookup 24 subtable" ebreve.sc
Substitution2: "'aalt' Access All Alternates lookup 0 subtable" ebreve.sc
EndChar
StartChar: Edotaccent
Encoding: 278 278 78
Width: 495
GlyphClass: 2
Flags: MW
HStem: 0 32<122 417> 343 31<170 416 165 420> 650 32<208 499 208 208> 805 55<362.5 375.5>
VStem: 341 56
AnchorPoint: "Anchor-14" 0 0 basechar 0
AnchorPoint: "Anchor-13" 0 0 basechar 0
AnchorPoint: "Anchor-12" 371 860 basechar 0
AnchorPoint: "Anchor-11" 402 0 basechar 0
AnchorPoint: "Anchor-10" 246 0 basechar 0
LayerCount: 2
Back
Fore
SplineSet
371 860 m 0
 390 860 399 847 397 831 c 0
 395 816 384 805 367 805 c 0
 349 805 339 818 341 835 c 0
 343 849 354 860 371 860 c 0
507 682 m 1
 499 650 l 1
 208 650 l 1
 170 374 l 1
 420 374 l 1
 416 343 l 1
 165 343 l 1
 122 32 l 1
 423 32 l 1
 417 0 l 1
 82 0 l 1
 178 682 l 1
 507 682 l 1
EndSplineSet
Substitution2: "'c2sc' Capitals to Small Capitals lookup 27 subtable" edotaccent.sc
Substitution2: "'aalt' Access All Alternates lookup 0 subtable" edotaccent.sc
Position2: "'cpsp' Capital Spacing lookup 0 subtable" dx=5 dy=0 dh=10 dv=0
EndChar
StartChar: edotaccent
Encoding: 279 279 422
Width: 516
GlyphClass: 2
Flags: MW
HStem: -10 31<202 276.5 202 279> 212 29 501 30<250 360> 679 55<330.5 343.5>
VStem: 63 35<136.5 200.5 136.5 270.5> 309 56 439 35<359.5 435.5>
AnchorPoint: "Anchor-14" 0 0 basechar 0
AnchorPoint: "Anchor-13" 0 0 basechar 0
AnchorPoint: "Anchor-12" 340 734 basechar 0
AnchorPoint: "Anchor-11" 341 5 basechar 0
AnchorPoint: "Anchor-10" 241 0 basechar 0
LayerCount: 2
Back
Fore
SplineSet
335 679 m 0
 317 679 307 692 309 709 c 0
 311 723 322 734 339 734 c 0
 358 734 367 721 365 705 c 0
 363 690 352 679 335 679 c 0
474 410 m 0
 474 286 332 227 99 212 c 0
 99 208 98 203 98 198 c 0
 98 75 158 21 246 21 c 0
 307 21 348 41 398 76 c 1
 416 51 l 1
 363 12 312 -10 246 -10 c 0
 131 -10 63 62 63 197 c 0
 63 344 142 531 320 531 c 0
 415 531 474 482 474 410 c 0
320 501 m 0
 180 501 113 363 101 241 c 1
 325 256 439 310 439 409 c 0
 439 462 400 501 320 501 c 0
EndSplineSet
Substitution2: "'smcp' Lowercase to Small Capitals lookup 28 subtable" edotaccent.sc
Substitution2: "'aalt' Access All Alternates lookup 0 subtable" edotaccent.sc
EndChar

StartChar: Eogonek
Encoding: 280 280 33
Width: 495
GlyphClass: 2
Flags: MW
HStem: -208 33<292.5 319> -202 21G<364 364> 0 32<122 337 393 417 393 393> 343 31<170 416 165 420> 650 32<208 208 208 499>
VStem: 218 36<-139 -103.5>
AnchorPoint: "Anchor-11" 246 0 basechar 0
AnchorPoint: "Anchor-10" 85 521 basechar 0
AnchorPoint: "Anchor-9" 347 682 basechar 0
AnchorPoint: "Anchor-8" 402 0 basechar 0
LayerCount: 2
Fore
SplineSet
208 650 m 1xbc
 170 374 l 1
 420 374 l 1
 416 343 l 1
 165 343 l 1
 122 32 l 1
 423 32 l 1
 417 0 l 1
 393 0 l 1
 308 -37 254 -68 254 -123 c 0
 254 -155 270 -175 315 -175 c 0
 334 -175 348 -173 370 -169 c 1xbc
 364 -202 l 1x7c
 344 -206 328 -208 310 -208 c 0
 246 -208 218 -176 218 -135 c 0
 218 -72 258 -35 337 0 c 1
 82 0 l 1
 178 682 l 1
 507 682 l 1
 499 650 l 1
 208 650 l 1xbc
EndSplineSet
Substitution2: "'c2sc' Capitals to Small Capitals lookup 23 subtable" eogonek.sc
Substitution2: "'aalt' Access All Alternates lookup 0 subtable" eogonek.sc
Position2: "'cpsp' Capital Spacing lookup 0 subtable" dx=5 dy=0 dh=10 dv=0
EndChar
StartChar: eogonek
Encoding: 281 281 428
Width: 516
GlyphClass: 2
Flags: MW
HStem: -203 33<256.5 285> -10 31<202 246 246 256> 212 29 501 30<250 360>
VStem: 63 35<136.5 200.5 136.5 270.5> 174 36<-132 -95.5> 439 35<359.5 435.5>
AnchorPoint: "Anchor-14" 0 0 basechar 0
AnchorPoint: "Anchor-13" 0 0 basechar 0
AnchorPoint: "Anchor-12" 310 520 basechar 0
AnchorPoint: "Anchor-11" 341 5 basechar 0
AnchorPoint: "Anchor-10" 241 0 basechar 0
LayerCount: 2
Back
Fore
SplineSet
474 410 m 0
 474 286 332 227 99 212 c 0
 99 208 98 203 98 198 c 0
 98 75 158 21 246 21 c 0
 307 21 348 41 398 76 c 1
 416 51 l 1
 386 29 356 12 324 2 c 1
 249 -34 210 -63 210 -116 c 0
 210 -148 233 -170 280 -170 c 0
 298 -170 312 -168 333 -164 c 1
 330 -197 l 1
 310 -201 295 -203 275 -203 c 0
 205 -203 174 -165 174 -118 c 0
 174 -73 201 -39 256 -10 c 1
 246 -10 l 2
 131 -10 63 62 63 197 c 0
 63 344 142 531 320 531 c 0
 415 531 474 482 474 410 c 0
320 501 m 0
 180 501 113 363 101 241 c 1
 325 256 439 310 439 409 c 0
 439 462 400 501 320 501 c 0
EndSplineSet
Substitution2: "'smcp' Lowercase to Small Capitals lookup 28 subtable" eogonek.sc
Substitution2: "'aalt' Access All Alternates lookup 0 subtable" eogonek.sc
EndChar
StartChar: Gbreve
Encoding: 286 286 99
Width: 608
GlyphClass: 2
Flags: MW
HStem: -10 32<254 347> 328 32<373 513 373 373> 660 33<306.5 437> 769 32<394 441 394 447>
VStem: 79 36<177.5 353 177.5 362> 311 25<855 858>
AnchorPoint: "Anchor-14" 0 0 basechar 0
AnchorPoint: "Anchor-13" 0 0 basechar 0
AnchorPoint: "Anchor-12" 429 860 basechar 0
AnchorPoint: "Anchor-11" 0 0 basechar 0
AnchorPoint: "Anchor-10" 299 0 basechar 0
LayerCount: 2
Back
Fore
SplineSet
417 769 m 0
 355 769 314 809 311 855 c 1
 336 858 l 1
 343 824 371 801 417 801 c 0
 465 801 500 826 517 860 c 1
 542 853 l 1
 527 807 477 769 417 769 c 0
406 693 m 0
 475 693 528 672 576 630 c 1
 552 607 l 1
 511 644 468 660 406 660 c 0
 207 660 115 449 115 257 c 0
 115 98 192 22 316 22 c 0
 380 22 426 36 475 61 c 1
 513 328 l 1
 373 328 l 1
 372 360 l 1
 553 360 l 1
 509 42 l 1
 447 8 379 -10 315 -10 c 0
 171 -10 79 81 79 260 c 0
 79 464 187 693 406 693 c 0
EndSplineSet
Substitution2: "'c2sc' Capitals to Small Capitals lookup 27 subtable" gbreve.sc
Substitution2: "'aalt' Access All Alternates lookup 0 subtable" gbreve.sc
Position2: "'cpsp' Capital Spacing lookup 0 subtable" dx=5 dy=0 dh=10 dv=0
EndChar
StartChar: gbreve
Encoding: 287 287 453
Width: 558
GlyphClass: 2
Flags: MW
HStem: -200 29<176.5 249 176.5 257> 0 31<189 262.5> 502 29<242.5 350.5> 660 31<311 358 311 364>
VStem: 64 35<202 202> 230 26<756 759>
AnchorPoint: "Anchor-14" 0 0 basechar 0
AnchorPoint: "Anchor-13" 0 0 basechar 0
AnchorPoint: "Anchor-12" 348 761 basechar 0
AnchorPoint: "Anchor-11" 0 0 basechar 0
AnchorPoint: "Anchor-10" 208 -194 basechar 0
LayerCount: 2
Back
Fore
SplineSet
334 660 m 0
 272 660 232 700 230 756 c 1
 256 759 l 1
 262 715 288 691 334 691 c 0
 382 691 419 717 437 761 c 1
 461 753 l 1
 445 697 394 660 334 660 c 0
325 531 m 0
 396 531 438 512 481 488 c 1
 411 -1 l 2
 389 -151 306 -200 208 -200 c 0
 140 -200 84 -177 41 -153 c 1
 55 -128 l 1
 99 -150 144 -171 209 -171 c 0
 289 -171 360 -127 377 -5 c 2
 392 98 l 1
 353 40 297 0 228 0 c 0
 126 0 65 78 64 202 c 0
 63 333 134 531 325 531 c 0
326 502 m 0
 159 502 98 320 99 203 c 0
 100 95 148 31 230 31 c 0
 299 31 353 73 399 149 c 1
 445 472 l 1
 414 490 375 502 326 502 c 0
EndSplineSet
Substitution2: "'smcp' Lowercase to Small Capitals lookup 28 subtable" gbreve.sc
Substitution2: "'aalt' Access All Alternates lookup 0 subtable" gbreve.sc
EndChar

StartChar: Gdotaccent
Encoding: 288 288 39
Width: 608
GlyphClass: 2
Flags: MW
HStem: -10 32<254 347> 328 32<373 513 373 373> 660 33<306.5 437> 805 55<421.5 434.5>
VStem: 79 36<177.5 353 177.5 362> 400 56
AnchorPoint: "Anchor-11" 299 0 basechar 0
AnchorPoint: "Anchor-10" 0 0 basechar 0
AnchorPoint: "Anchor-9" 407 682 basechar 0
AnchorPoint: "Anchor-8" 0 0 basechar 0
LayerCount: 2
Fore
SplineSet
430 860 m 0
 449 860 458 847 456 831 c 0
 454 816 443 805 426 805 c 0
 408 805 398 818 400 835 c 0
 402 849 413 860 430 860 c 0
406 693 m 0
 475 693 528 672 576 630 c 1
 552 607 l 1
 511 644 468 660 406 660 c 0
 207 660 115 449 115 257 c 0
 115 98 192 22 316 22 c 0
 380 22 426 36 475 61 c 1
 513 328 l 1
 373 328 l 1
 372 360 l 1
 553 360 l 1
 509 42 l 1
 447 8 379 -10 315 -10 c 0
 171 -10 79 81 79 260 c 0
 79 464 187 693 406 693 c 0
EndSplineSet
Substitution2: "'c2sc' Capitals to Small Capitals lookup 23 subtable" gdotaccent.sc
Substitution2: "'aalt' Access All Alternates lookup 0 subtable" gdotaccent.sc
Position2: "'cpsp' Capital Spacing lookup 0 subtable" dx=5 dy=0 dh=10 dv=0
EndChar

StartChar: gdotaccent
Encoding: 289 289 172
Width: 556
GlyphClass: 2
Flags: MW
HStem: -200 29<176 248.5 176 257> 0 31<188 262> 502 29<242.5 350.5> 679 55<334.5 347.5>
VStem: 64 35<202 202> 313 56
AnchorPoint: "Anchor-11" 0 0 basechar 0
AnchorPoint: "Anchor-10" 0 0 basechar 0
AnchorPoint: "Anchor-9" 316 520 basechar 0
AnchorPoint: "Anchor-8" 0 0 basechar 0
LayerCount: 2
Fore
SplineSet
343 734 m 0
 362 734 371 721 369 705 c 0
 367 690 356 679 339 679 c 0
 321 679 311 692 313 709 c 0
 315 723 326 734 343 734 c 0
325 531 m 0
 396 531 438 512 481 488 c 1
 411 -1 l 2
 389 -151 306 -200 208 -200 c 0
 140 -200 84 -177 41 -153 c 1
 55 -128 l 1
 98 -150 144 -171 208 -171 c 0
 289 -171 360 -127 377 -5 c 2
 391 98 l 1
 353 40 297 0 227 0 c 0
 126 0 65 78 64 202 c 0
 63 333 134 531 325 531 c 0
326 502 m 0
 159 502 98 320 99 203 c 0
 100 95 147 31 229 31 c 0
 299 31 353 73 399 149 c 1
 446 472 l 1
 415 490 375 502 326 502 c 0
EndSplineSet
Substitution2: "'smcp' Lowercase to Small Capitals lookup 24 subtable" gdotaccent.sc
Substitution2: "'aalt' Access All Alternates lookup 0 subtable" gdotaccent.sc
EndChar
StartChar: Gcommaaccent
Encoding: 290 290 102
Width: 608
GlyphClass: 2
Flags: MW
HStem: -10 32<254 347> 328 32<373 513 373 373> 660 33<306.5 437>
VStem: 79 36<177.5 353 177.5 362> 249 68<-129 -116>
AnchorPoint: "Anchor-14" 0 0 basechar 0
AnchorPoint: "Anchor-13" 0 0 basechar 0
AnchorPoint: "Anchor-12" 407 682 basechar 0
AnchorPoint: "Anchor-11" 0 0 basechar 0
AnchorPoint: "Anchor-10" 299 0 basechar 0
LayerCount: 2
Back
Fore
SplineSet
406 693 m 0
 475 693 528 672 576 630 c 1
 552 607 l 1
 511 644 468 660 406 660 c 0
 207 660 115 449 115 257 c 0
 115 98 192 22 316 22 c 0
 380 22 426 36 475 61 c 1
 513 328 l 1
 373 328 l 1
 372 360 l 1
 553 360 l 1
 509 42 l 1
 447 8 379 -10 315 -10 c 0
 171 -10 79 81 79 260 c 0
 79 464 187 693 406 693 c 0
285 -90 m 0
 304 -90 317 -103 317 -120 c 0
 317 -138 311 -148 290 -182 c 2
 238 -267 l 1
 215 -267 l 1
 266 -154 l 1
 254 -147 249 -135 249 -126 c 0
 249 -106 263 -90 285 -90 c 0
EndSplineSet
Substitution2: "'c2sc' Capitals to Small Capitals lookup 27 subtable" gcommaaccent.sc
Substitution2: "'aalt' Access All Alternates lookup 0 subtable" gcommaaccent.sc
Position2: "'cpsp' Capital Spacing lookup 0 subtable" dx=5 dy=0 dh=10 dv=0
EndChar

StartChar: gcommaaccent
Encoding: 291 291 171
Width: 556
GlyphClass: 2
Flags: MW
HStem: -200 29<176 248.5 176 257> 0 31<188 262> 502 29<242.5 350.5>
VStem: 64 35<202 202> 299 68<636 649>
AnchorPoint: "Anchor-11" 0 0 basechar 0
AnchorPoint: "Anchor-10" 0 0 basechar 0
AnchorPoint: "Anchor-9" 316 520 basechar 0
AnchorPoint: "Anchor-8" 0 0 basechar 0
LayerCount: 2
Fore
SplineSet
331 610 m 0
 312 610 299 623 299 640 c 0
 299 658 305 668 326 702 c 2
 378 787 l 1
 401 787 l 1
 350 674 l 1
 362 667 367 655 367 646 c 0
 367 626 353 610 331 610 c 0
325 531 m 0
 396 531 438 512 481 488 c 1
 411 -1 l 2
 389 -151 306 -200 208 -200 c 0
 140 -200 84 -177 41 -153 c 1
 55 -128 l 1
 98 -150 144 -171 208 -171 c 0
 289 -171 360 -127 377 -5 c 2
 391 98 l 1
 353 40 297 0 227 0 c 0
 126 0 65 78 64 202 c 0
 63 333 134 531 325 531 c 0
326 502 m 0
 159 502 98 320 99 203 c 0
 100 95 147 31 229 31 c 0
 299 31 353 73 399 149 c 1
 446 472 l 1
 415 490 375 502 326 502 c 0
EndSplineSet
Substitution2: "'smcp' Lowercase to Small Capitals lookup 24 subtable" gcommaaccent.sc
Substitution2: "'aalt' Access All Alternates lookup 0 subtable" gcommaaccent.sc
EndChar

StartChar: Hcircumflex
Encoding: 292 292 42
Width: 663
GlyphClass: 2
Flags: MW
HStem: 0 21G<82 117 82 82 472 472 472 507> 344 32<170 521 165 525> 662 20G<178 213 213 213 568 603 603 603>
VStem: 82 521
AnchorPoint: "Anchor-11" 0 0 basechar 0
AnchorPoint: "Anchor-10" 85 521 basechar 0
AnchorPoint: "Anchor-9" 389 682 basechar 0
AnchorPoint: "Anchor-8" 0 0 basechar 0
LayerCount: 2
Fore
SplineSet
418 844 m 1
 290 765 l 1
 274 784 l 1
 413 879 l 1
 432 879 l 1
 543 784 l 1
 526 765 l 1
 418 844 l 1
521 344 m 1
 165 344 l 1
 117 0 l 1
 82 0 l 1
 178 682 l 1
 213 682 l 1
 170 376 l 1
 525 376 l 1
 568 682 l 1
 603 682 l 1
 507 0 l 1
 472 0 l 1
 521 344 l 1
EndSplineSet
Substitution2: "'c2sc' Capitals to Small Capitals lookup 23 subtable" hcircumflex.sc
Substitution2: "'aalt' Access All Alternates lookup 0 subtable" hcircumflex.sc
Position2: "'cpsp' Capital Spacing lookup 0 subtable" dx=5 dy=0 dh=10 dv=0
EndChar
StartChar: hcircumflex
Encoding: 293 293 471
Width: 582
GlyphClass: 2
Flags: MW
HStem: 0 21G<77 111 77 77 402 436 402 402> 501 30<331 402> 720 20G<215 215>
VStem: 456.86 34.18
AnchorPoint: "Anchor-14" 296 260 basechar 0
AnchorPoint: "Anchor-13" 457 786 basechar 0
AnchorPoint: "Anchor-12" 384 931 basechar 0
AnchorPoint: "Anchor-11" 0 0 basechar 0
AnchorPoint: "Anchor-10" 257 0 basechar 0
LayerCount: 2
Back
Fore
SplineSet
488 817 m 1
 380 896 l 1
 252 817 l 1
 236 836 l 1
 375 931 l 1
 394 931 l 1
 505 836 l 1
 488 817 l 1
371 531 m 0
 463 531 503 471 488 369 c 2
 436 0 l 1
 402 0 l 1
 454 367 l 2
 467 459 437 501 367 501 c 0
 282 501 213 422 155 310 c 1
 111 0 l 1
 77 0 l 1
 181 734 l 1
 215 740 l 1
 163 372 l 1
 215 472 291 531 371 531 c 0
EndSplineSet
Substitution2: "'smcp' Lowercase to Small Capitals lookup 28 subtable" hcircumflex.sc
Substitution2: "'aalt' Access All Alternates lookup 0 subtable" hcircumflex.sc
EndChar
StartChar: Hbar
Encoding: 294 294 108
Width: 654
GlyphClass: 2
Flags: MW
HStem: 0 21G<82 117 82 82 472 507 472 472> 344 32<170 521 166 525> 517 27<97 155 92 159 194 545 584 639> 517 165<92 213 92 213 190 190 190 213 178 545 580 603 580 580>
VStem: 82 561<0 544>
AnchorPoint: "Anchor-14" 341 341 basechar 0
AnchorPoint: "Anchor-13" 0 0 basechar 0
AnchorPoint: "Anchor-12" 389 682 basechar 0
AnchorPoint: "Anchor-11" 0 0 basechar 0
AnchorPoint: "Anchor-10" 290 0 basechar 0
LayerCount: 2
Back
Fore
SplineSet
643 544 m 1xe8
 639 517 l 1
 580 517 l 1
 507 0 l 1
 472 0 l 1
 521 344 l 1
 166 344 l 1
 117 0 l 1
 82 0 l 1
 155 517 l 1
 92 517 l 1
 97 544 l 1
 159 544 l 1xe8
 178 682 l 1
 213 682 l 1xd8
 194 544 l 1
 549 544 l 1xe8
 568 682 l 1
 603 682 l 1xd8
 584 544 l 1
 643 544 l 1xe8
525 376 m 1
 545 517 l 1
 190 517 l 1
 170 376 l 1
 525 376 l 1
EndSplineSet
Substitution2: "'c2sc' Capitals to Small Capitals lookup 27 subtable" hbar.sc
Substitution2: "'aalt' Access All Alternates lookup 0 subtable" hbar.sc
Position2: "'cpsp' Capital Spacing lookup 0 subtable" dx=5 dy=0 dh=10 dv=0
EndChar
StartChar: hbar
Encoding: 295 295 469
Width: 587
GlyphClass: 2
Flags: MW
HStem: 0 21G<82 116 82 82 407 441 407 407> 501 30<336 407.5> 624 30<102 170 97 175 102 204 208 380> 720 20G<220 220>
VStem: 461.9 34.14
AnchorPoint: "Anchor-14" 301 260 basechar 0
AnchorPoint: "Anchor-13" 0 0 basechar 0
AnchorPoint: "Anchor-12" 368 734 basechar 0
AnchorPoint: "Anchor-11" 0 0 basechar 0
AnchorPoint: "Anchor-10" 262 0 basechar 0
LayerCount: 2
Back
Fore
SplineSet
376 531 m 0
 468 531 508 471 493 369 c 2
 441 0 l 1
 407 0 l 1
 459 367 l 2
 472 459 443 501 372 501 c 0
 287 501 219 422 160 310 c 1
 116 0 l 1
 82 0 l 1
 170 624 l 1
 97 624 l 1
 102 654 l 1
 175 654 l 1
 186 734 l 1
 220 740 l 1
 208 654 l 1
 391 654 l 1
 380 624 l 1
 204 624 l 1
 168 372 l 1
 221 472 296 531 376 531 c 0
EndSplineSet
Substitution2: "'smcp' Lowercase to Small Capitals lookup 28 subtable" hbar.sc
Substitution2: "'aalt' Access All Alternates lookup 0 subtable" hbar.sc
EndChar

StartChar: Itilde
Encoding: 296 296 53
Width: 272
GlyphClass: 2
Flags: MW
HStem: 0 21G<82 117 82 82> 662 20G<178 213 213 213> 800 30<252.5 284.5 252.5 289.5> 843 30<161 161>
VStem: 76 282<821 859>
AnchorPoint: "Anchor-11" 0 0 basechar 0
AnchorPoint: "Anchor-10" 86 521 basechar 0
AnchorPoint: "Anchor-9" 195 682 basechar 0
AnchorPoint: "Anchor-8" 127 0 basechar 0
LayerCount: 2
Fore
SplineSet
277 800 m 0
 219 800 197 844 161 843 c 0
 130 842 120 832 96 806 c 1
 76 821 l 1
 102 854 127 873 161 873 c 0xf8
 202 873 231 830 274 830 c 0
 295 830 313 842 337 874 c 1
 358 859 l 1
 329 816 302 800 277 800 c 0
117 0 m 1
 82 0 l 1
 178 682 l 1
 213 682 l 1
 117 0 l 1
EndSplineSet
Substitution2: "'c2sc' Capitals to Small Capitals lookup 23 subtable" itilde.sc
Substitution2: "'aalt' Access All Alternates lookup 0 subtable" itilde.sc
Position2: "'cpsp' Capital Spacing lookup 0 subtable" dx=5 dy=0 dh=10 dv=0
EndChar

StartChar: itilde
Encoding: 297 297 187
Width: 261
GlyphClass: 2
Flags: MW
HStem: 0 21G<77 111 77 77> 500 20G<151 185 185 185> 674 30<229.5 261.5 229.5 266.5> 713 20G<335 335> 717 30<138 138>
VStem: 53 282<695 733>
AnchorPoint: "Anchor-11" 0 0 basechar 0
AnchorPoint: "Anchor-10" 0 0 basechar 0
AnchorPoint: "Anchor-9" 168 520 basechar 0
AnchorPoint: "Anchor-8" 121 0 basechar 0
LayerCount: 2
Fore
SplineSet
254 674 m 0xec
 196 674 174 718 138 717 c 0
 107 716 97 706 73 680 c 1
 53 695 l 1
 79 728 104 747 138 747 c 0xcc
 179 747 208 704 251 704 c 0
 272 704 290 716 314 748 c 1xec
 335 733 l 1xd4
 306 690 279 674 254 674 c 0xec
111 0 m 1xcc
 77 0 l 1
 151 520 l 1
 185 520 l 1
 111 0 l 1xcc
EndSplineSet
Substitution2: "'smcp' Lowercase to Small Capitals lookup 24 subtable" itilde.sc
Substitution2: "'aalt' Access All Alternates lookup 0 subtable" itilde.sc
EndChar
StartChar: Imacron
Encoding: 298 298 129
Width: 272
GlyphClass: 2
Flags: MW
HStem: 0 21G<82 117 82 82> 662 20G<178 213 213 213> 808 32<109 321 104 327>
VStem: 82 245
AnchorPoint: "Anchor-14" 0 0 basechar 0
AnchorPoint: "Anchor-13" 0 0 basechar 0
AnchorPoint: "Anchor-12" 218 840 basechar 0
AnchorPoint: "Anchor-11" 116 0 basechar 0
AnchorPoint: "Anchor-10" 100 0 basechar 0
LayerCount: 2
Back
Fore
SplineSet
321 808 m 1
 104 808 l 1
 109 840 l 1
 327 840 l 1
 321 808 l 1
213 682 m 1
 117 0 l 1
 82 0 l 1
 178 682 l 1
 213 682 l 1
EndSplineSet
Substitution2: "'c2sc' Capitals to Small Capitals lookup 27 subtable" imacron.sc
Substitution2: "'aalt' Access All Alternates lookup 0 subtable" imacron.sc
Position2: "'cpsp' Capital Spacing lookup 0 subtable" dx=5 dy=0 dh=10 dv=0
EndChar
StartChar: imacron
Encoding: 299 299 492
Width: 261
GlyphClass: 2
Flags: MW
HStem: 0 21G<77 111 77 77> 500 20G<151 185 185 185> 682 32<86 298 81 304>
VStem: 77 227
AnchorPoint: "Anchor-14" 0 0 basechar 0
AnchorPoint: "Anchor-13" 0 0 basechar 0
AnchorPoint: "Anchor-12" 195 714 basechar 0
AnchorPoint: "Anchor-11" 109 0 basechar 0
AnchorPoint: "Anchor-10" 94 0 basechar 0
LayerCount: 2
Back
Fore
SplineSet
298 682 m 1
 81 682 l 1
 86 714 l 1
 304 714 l 1
 298 682 l 1
185 520 m 1
 111 0 l 1
 77 0 l 1
 151 520 l 1
 185 520 l 1
EndSplineSet
Substitution2: "'smcp' Lowercase to Small Capitals lookup 28 subtable" imacron.sc
Substitution2: "'aalt' Access All Alternates lookup 0 subtable" imacron.sc
EndChar

StartChar: Ibreve
Encoding: 300 300 46
Width: 272
GlyphClass: 2
Flags: MW
HStem: 0 21G<82 117 82 82> 662 20G<178 213 213 213> 769 32<181 228 181 234>
VStem: 98 25<855 858>
AnchorPoint: "Anchor-11" 0 0 basechar 0
AnchorPoint: "Anchor-10" 86 521 basechar 0
AnchorPoint: "Anchor-9" 195 682 basechar 0
AnchorPoint: "Anchor-8" 127 0 basechar 0
LayerCount: 2
Fore
SplineSet
204 769 m 0
 142 769 101 809 98 855 c 1
 123 858 l 1
 130 824 158 801 204 801 c 0
 252 801 287 826 304 860 c 1
 329 853 l 1
 314 807 264 769 204 769 c 0
117 0 m 1
 82 0 l 1
 178 682 l 1
 213 682 l 1
 117 0 l 1
EndSplineSet
Substitution2: "'c2sc' Capitals to Small Capitals lookup 23 subtable" ibreve.sc
Substitution2: "'aalt' Access All Alternates lookup 0 subtable" ibreve.sc
Position2: "'cpsp' Capital Spacing lookup 0 subtable" dx=5 dy=0 dh=10 dv=0
EndChar
StartChar: ibreve
Encoding: 301 301 480
Width: 261
GlyphClass: 2
Flags: MW
HStem: 0 21G<77 111 77 77> 500 20G<151 185 185 185> 660 31<163 210 163 216>
VStem: 82 26<756 759>
AnchorPoint: "Anchor-14" 0 0 basechar 0
AnchorPoint: "Anchor-13" 0 0 basechar 0
AnchorPoint: "Anchor-12" 200 761 basechar 0
AnchorPoint: "Anchor-11" 109 0 basechar 0
AnchorPoint: "Anchor-10" 94 0 basechar 0
LayerCount: 2
Back
Fore
SplineSet
186 660 m 0
 124 660 84 700 82 756 c 1
 108 759 l 1
 114 715 140 691 186 691 c 0
 234 691 271 717 289 761 c 1
 313 753 l 1
 297 697 246 660 186 660 c 0
185 520 m 1
 111 0 l 1
 77 0 l 1
 151 520 l 1
 185 520 l 1
EndSplineSet
Substitution2: "'smcp' Lowercase to Small Capitals lookup 28 subtable" ibreve.sc
Substitution2: "'aalt' Access All Alternates lookup 0 subtable" ibreve.sc
EndChar
StartChar: Iogonek
Encoding: 302 302 130
Width: 272
GlyphClass: 2
Flags: MW
HStem: -208 33<6.5 33> -202 21G<78 78> 0 21G<107 117 107 107> 662 20G<178 213 213 213>
VStem: -68 36<-139 -99.5>
AnchorPoint: "Anchor-14" 0 0 basechar 0
AnchorPoint: "Anchor-13" 0 0 basechar 0
AnchorPoint: "Anchor-12" 196 682 basechar 0
AnchorPoint: "Anchor-11" 116 0 basechar 0
AnchorPoint: "Anchor-10" 100 0 basechar 0
LayerCount: 2
Back
Fore
SplineSet
178 682 m 1x78
 213 682 l 1
 117 0 l 1
 107 0 l 1
 22 -37 -32 -68 -32 -123 c 0
 -32 -155 -16 -175 29 -175 c 0
 48 -175 62 -173 84 -169 c 1xb8
 78 -202 l 1x78
 58 -206 42 -208 24 -208 c 0
 -40 -208 -68 -176 -68 -135 c 0xb8
 -68 -64 -17 -26 84 14 c 1
 178 682 l 1x78
EndSplineSet
Substitution2: "'c2sc' Capitals to Small Capitals lookup 27 subtable" iogonek.sc
Substitution2: "'aalt' Access All Alternates lookup 0 subtable" iogonek.sc
Position2: "'cpsp' Capital Spacing lookup 0 subtable" dx=5 dy=0 dh=10 dv=0
EndChar

StartChar: iogonek
Encoding: 303 303 186
Width: 261
GlyphClass: 2
Flags: MW
HStem: -208 33<11.5 38> -202 21G<83 83> 500 20G<151 185 185 185> 679 55<186.5 199.5>
VStem: -63 36<-139 -101> 165 56
AnchorPoint: "Anchor-11" 0 0 basechar 0
AnchorPoint: "Anchor-10" 0 0 basechar 0
AnchorPoint: "Anchor-9" 168 520 basechar 0
AnchorPoint: "Anchor-8" 121 0 basechar 0
LayerCount: 2
Fore
SplineSet
195 734 m 0xbc
 214 734 223 721 221 705 c 0
 219 690 208 679 191 679 c 0
 173 679 163 692 165 709 c 0
 167 723 178 734 195 734 c 0xbc
185 520 m 1
 111 1 l 1
 112 0 l 1
 27 -37 -27 -68 -27 -123 c 0
 -27 -155 -11 -175 34 -175 c 0
 53 -175 67 -173 89 -169 c 1xbc
 83 -202 l 1x7c
 63 -206 47 -208 29 -208 c 0
 -35 -208 -63 -176 -63 -135 c 0
 -63 -67 -16 -29 78 10 c 1
 151 520 l 1
 185 520 l 1
EndSplineSet
Substitution2: "'smcp' Lowercase to Small Capitals lookup 24 subtable" iogonek.sc
Substitution2: "'aalt' Access All Alternates lookup 0 subtable" iogonek.sc
EndChar
StartChar: Idotaccent
Encoding: 304 304 124
Width: 272
GlyphClass: 2
Flags: MW
HStem: 0 21G<82 117 82 82> 662 20G<178 213 213 213> 805 55<210.5 223.5>
VStem: 189 56
AnchorPoint: "Anchor-14" 0 0 basechar 0
AnchorPoint: "Anchor-13" 0 0 basechar 0
AnchorPoint: "Anchor-12" 219 860 basechar 0
AnchorPoint: "Anchor-11" 116 0 basechar 0
AnchorPoint: "Anchor-10" 100 0 basechar 0
LayerCount: 2
Back
Fore
SplineSet
219 860 m 0
 238 860 247 847 245 831 c 0
 243 816 232 805 215 805 c 0
 197 805 187 818 189 835 c 0
 191 849 202 860 219 860 c 0
213 682 m 1
 117 0 l 1
 82 0 l 1
 178 682 l 1
 213 682 l 1
EndSplineSet
Substitution2: "'c2sc' Capitals to Small Capitals lookup 27 subtable" i.sc.loclTRK
Substitution2: "'aalt' Access All Alternates lookup 0 subtable" i.sc.loclTRK
Position2: "'cpsp' Capital Spacing lookup 0 subtable" dx=5 dy=0 dh=10 dv=0
EndChar
StartChar: dotlessi
Encoding: 305 305 478
Width: 261
GlyphClass: 2
Flags: MW
HStem: 0 21G<77 111 77 77> 500 20G<151 185 185 185>
VStem: 77 108
AnchorPoint: "Anchor-14" 0 0 basechar 0
AnchorPoint: "Anchor-13" 0 0 basechar 0
AnchorPoint: "Anchor-12" 168 520 basechar 0
AnchorPoint: "Anchor-11" 109 0 basechar 0
AnchorPoint: "Anchor-10" 94 0 basechar 0
LayerCount: 2
Back
Fore
SplineSet
185 520 m 1
 111 0 l 1
 77 0 l 1
 151 520 l 1
 185 520 l 1
EndSplineSet
Substitution2: "'smcp' Lowercase to Small Capitals lookup 28 subtable" dotlessi.sc
Substitution2: "'aalt' Access All Alternates lookup 0 subtable" dotlessi.sc
EndChar
StartChar: IJ
Encoding: 306 306 116
Width: 553
GlyphClass: 2
Flags: MW
HStem: 0 21G<82 117 82 82> 662 20G<178 213 213 213 464 499 499 499>
VStem: 82 417
AnchorPoint: "Anchor-14" 0 0 basechar 0
AnchorPoint: "Anchor-13" 0 0 basechar 0
AnchorPoint: "Anchor-12" 479 682 basechar 0
AnchorPoint: "Anchor-11" 116 0 basechar 0
AnchorPoint: "Anchor-10" 100 0 basechar 0
LayerCount: 2
Back
Fore
SplineSet
213 682 m 1
 117 0 l 1
 82 0 l 1
 178 682 l 1
 213 682 l 1
499 682 m 1
 416 88 l 2
 400 -18 369 -57 251 -106 c 1
 242 -79 l 1
 339 -36 368 -1 381 93 c 2
 464 682 l 1
 499 682 l 1
EndSplineSet
Substitution2: "'c2sc' Capitals to Small Capitals lookup 27 subtable" ij.sc
Substitution2: "'aalt' Access All Alternates lookup 0 subtable" ij.sc
Position2: "'cpsp' Capital Spacing lookup 0 subtable" dx=5 dy=0 dh=10 dv=0
EndChar

StartChar: ij
Encoding: 307 307 184
Width: 523
GlyphClass: 2
Flags: MW
HStem: -197 21G<225 225> 0 21G<77 111 77 77> 500 20G<151 185 185 185 412 446 446 446> 679 55<186.5 199.5 447.5 460.5>
VStem: 165 56 426 56
AnchorPoint: "Anchor-11" 0 0 basechar 0
AnchorPoint: "Anchor-10" 0 0 basechar 0
AnchorPoint: "Anchor-9" 428 520 basechar 0
AnchorPoint: "Anchor-8" 121 0 basechar 0
LayerCount: 2
Fore
SplineSet
195 734 m 0
 214 734 223 721 221 705 c 0
 219 690 208 679 191 679 c 0
 173 679 163 692 165 709 c 0
 167 723 178 734 195 734 c 0
456 734 m 0
 475 734 484 721 482 705 c 0
 480 690 469 679 452 679 c 0
 434 679 424 692 426 709 c 0
 428 723 439 734 456 734 c 0
111 0 m 1
 77 0 l 1
 151 520 l 1
 185 520 l 1
 111 0 l 1
373 8 m 2
 355 -125 313 -156 225 -197 c 1
 215 -171 l 1
 289 -135 324 -106 340 11 c 2
 412 520 l 1
 446 520 l 1
 373 8 l 2
EndSplineSet
Substitution2: "'smcp' Lowercase to Small Capitals lookup 24 subtable" ij.sc
Substitution2: "'aalt' Access All Alternates lookup 0 subtable" ij.sc
EndChar
StartChar: Jcircumflex
Encoding: 308 308 135
Width: 281
GlyphClass: 2
Flags: MW
HStem: 662 20G<192 227 227 227>
VStem: -30 379
AnchorPoint: "Anchor-14" 0 0 basechar 0
AnchorPoint: "Anchor-13" 301 734 basechar 0
AnchorPoint: "Anchor-12" 228 879 basechar 0
AnchorPoint: "Anchor-11" 0 0 basechar 0
AnchorPoint: "Anchor-10" 0 0 basechar 0
LayerCount: 2
Back
Fore
SplineSet
332 765 m 1
 224 844 l 1
 96 765 l 1
 80 784 l 1
 219 879 l 1
 238 879 l 1
 349 784 l 1
 332 765 l 1
227 682 m 1
 144 88 l 2
 128 -18 97 -57 -21 -106 c 1
 -30 -79 l 1
 67 -36 96 -1 109 93 c 2
 192 682 l 1
 227 682 l 1
EndSplineSet
Substitution2: "'c2sc' Capitals to Small Capitals lookup 27 subtable" jcircumflex.sc
Substitution2: "'aalt' Access All Alternates lookup 0 subtable" jcircumflex.sc
Position2: "'cpsp' Capital Spacing lookup 0 subtable" dx=5 dy=0 dh=10 dv=0
EndChar

StartChar: jcircumflex
Encoding: 309 309 190
Width: 262
GlyphClass: 2
Flags: MW
HStem: -197 21G<-36 -36> 500 20G<151 185 185 185>
VStem: -46 371
AnchorPoint: "Anchor-11" 0 0 basechar 0
AnchorPoint: "Anchor-10" 0 0 basechar 0
AnchorPoint: "Anchor-9" 167 520 basechar 0
AnchorPoint: "Anchor-8" 0 0 basechar 0
LayerCount: 2
Fore
SplineSet
56 670 m 1
 196 770 l 1
 214 770 l 1
 325 670 l 1
 308 650 l 1
 201 735 l 1
 72 650 l 1
 56 670 l 1
112 8 m 2
 94 -125 52 -156 -36 -197 c 1
 -46 -171 l 1
 28 -135 63 -106 79 11 c 2
 151 520 l 1
 185 520 l 1
 112 8 l 2
EndSplineSet
Substitution2: "'smcp' Lowercase to Small Capitals lookup 24 subtable" jcircumflex.sc
Substitution2: "'aalt' Access All Alternates lookup 0 subtable" jcircumflex.sc
EndChar

StartChar: Kcommaaccent
Encoding: 310 310 57
Width: 518
GlyphClass: 2
Flags: MW
HStem: 0 21G<82 117 82 82 439 439 439 481> 662 20G<178 213 213 213 517 561 561 561>
VStem: 82 479 214 68<-129 -116>
AnchorPoint: "Anchor-11" 264 0 basechar 0
AnchorPoint: "Anchor-10" 0 0 basechar 0
AnchorPoint: "Anchor-9" 351 682 basechar 0
AnchorPoint: "Anchor-8" 0 0 basechar 0
LayerCount: 2
Fore
SplineSet
117 0 m 1xe0
 82 0 l 1
 178 682 l 1
 213 682 l 1
 117 0 l 1xe0
214 365 m 1
 481 0 l 1
 439 0 l 1
 172 367 l 1
 517 682 l 1
 561 682 l 1
 214 365 l 1
250 -90 m 0xd0
 269 -90 282 -103 282 -120 c 0
 282 -138 276 -148 255 -182 c 2
 203 -267 l 1
 180 -267 l 1
 231 -154 l 1
 219 -147 214 -135 214 -126 c 0
 214 -106 228 -90 250 -90 c 0xd0
EndSplineSet
Substitution2: "'c2sc' Capitals to Small Capitals lookup 23 subtable" kcommaaccent.sc
Substitution2: "'aalt' Access All Alternates lookup 0 subtable" kcommaaccent.sc
Position2: "'cpsp' Capital Spacing lookup 0 subtable" dx=5 dy=0 dh=10 dv=0
EndChar
StartChar: kcommaaccent
Encoding: 311 311 507
Width: 507
GlyphClass: 2
Flags: MW
HStem: 0 21G<77 111 77 77 385 422 385 385> 502 29<331.5 395> 719 20G<215 215>
VStem: 191 68<-129 -116> 447 35<383 445.5>
AnchorPoint: "Anchor-14" 0 0 basechar 0
AnchorPoint: "Anchor-13" 0 0 basechar 0
AnchorPoint: "Anchor-12" 348 734 basechar 0
AnchorPoint: "Anchor-11" 0 0 basechar 0
AnchorPoint: "Anchor-10" 242 0 basechar 0
LayerCount: 2
Back
Fore
SplineSet
215 739 m 1
 162 367 l 1
 223 484 295 531 368 531 c 0
 437 531 482 492 482 424 c 0
 482 338 418 275 303 239 c 1
 422 0 l 1
 385 0 l 1
 261 252 l 1
 381 285 447 343 447 423 c 0
 447 468 425 502 365 502 c 0
 281 502 211 421 152 297 c 1
 111 0 l 1
 77 0 l 1
 181 734 l 1
 215 739 l 1
227 -90 m 0
 246 -90 259 -103 259 -120 c 0
 259 -138 253 -148 232 -182 c 2
 180 -267 l 1
 157 -267 l 1
 208 -154 l 1
 196 -147 191 -135 191 -126 c 0
 191 -106 205 -90 227 -90 c 0
EndSplineSet
Substitution2: "'smcp' Lowercase to Small Capitals lookup 28 subtable" kcommaaccent.sc
Substitution2: "'aalt' Access All Alternates lookup 0 subtable" kcommaaccent.sc
EndChar
StartChar: kgreenlandic
Encoding: 312 312 508
Width: 472
GlyphClass: 2
Flags: MW
HStem: 0 21G<77 111 77 77 380 380 380 420> 500 20G<151 185 185 185 427 470 470 470>
VStem: 77 393
LayerCount: 2
Back
Fore
SplineSet
185 520 m 1
 111 0 l 1
 77 0 l 1
 151 520 l 1
 185 520 l 1
470 520 m 1
 198 272 l 1
 420 0 l 1
 380 0 l 1
 155 274 l 1
 427 520 l 1
 470 520 l 1
EndSplineSet
Substitution2: "'smcp' Lowercase to Small Capitals lookup 28 subtable" kgreenlandic.sc
Substitution2: "'aalt' Access All Alternates lookup 0 subtable" kgreenlandic.sc
EndChar
StartChar: Lacute
Encoding: 313 313 143
Width: 457
GlyphClass: 2
Flags: MW
HStem: 0 33<122 399> 662 20G<178 213 213 213>
VStem: 82 329<0 33>
AnchorPoint: "Anchor-14" 368 356 basechar 0
AnchorPoint: "Anchor-13" 252 682 basechar 0
AnchorPoint: "Anchor-12" 216 872 basechar 0
AnchorPoint: "Anchor-11" 0 0 basechar 0
AnchorPoint: "Anchor-10" 240 0 basechar 0
LayerCount: 2
Back
Fore
SplineSet
303 872 m 1
 316 837 l 1
 119 761 l 1
 112 783 l 1
 303 872 l 1
213 682 m 1
 122 33 l 1
 411 33 l 1
 399 0 l 1
 82 0 l 1
 178 682 l 1
 213 682 l 1
EndSplineSet
Substitution2: "'c2sc' Capitals to Small Capitals lookup 27 subtable" lacute.sc
Substitution2: "'aalt' Access All Alternates lookup 0 subtable" lacute.sc
Position2: "'cpsp' Capital Spacing lookup 0 subtable" dx=5 dy=0 dh=10 dv=0
EndChar
StartChar: lacute
Encoding: 314 314 512
Width: 278
GlyphClass: 2
Flags: MW
HStem: -10 31<139 161.5> 719 20G<210 210>
VStem: 84 33<78 82>
AnchorPoint: "Anchor-14" 280 375 basechar 0
AnchorPoint: "Anchor-13" 238 734 basechar 0
AnchorPoint: "Anchor-12" 213 924 basechar 0
AnchorPoint: "Anchor-11" 0 0 basechar 0
AnchorPoint: "Anchor-10" 146 0 basechar 0
LayerCount: 2
Back
Fore
SplineSet
300 924 m 1
 313 889 l 1
 116 813 l 1
 109 835 l 1
 300 924 l 1
210 739 m 1
 117 78 l 2
 112 40 122 21 156 21 c 0
 170 21 184 25 196 29 c 1
 204 1 l 1
 189 -5 170 -10 153 -10 c 0
 102 -10 75 18 84 82 c 2
 176 734 l 1
 210 739 l 1
EndSplineSet
Substitution2: "'smcp' Lowercase to Small Capitals lookup 28 subtable" lacute.sc
Substitution2: "'aalt' Access All Alternates lookup 0 subtable" lacute.sc
EndChar
StartChar: Lcommaaccent
Encoding: 315 315 147
Width: 457
GlyphClass: 2
Flags: MW
HStem: 0 33<122 399> 662 20G<178 213 213 213>
VStem: 82 329<0 33> 190 68<-129 -116>
AnchorPoint: "Anchor-14" 368 356 basechar 0
AnchorPoint: "Anchor-13" 252 682 basechar 0
AnchorPoint: "Anchor-12" 196 682 basechar 0
AnchorPoint: "Anchor-11" 0 0 basechar 0
AnchorPoint: "Anchor-10" 240 0 basechar 0
LayerCount: 2
Back
Fore
SplineSet
213 682 m 1xe0
 122 33 l 1
 411 33 l 1
 399 0 l 1
 82 0 l 1
 178 682 l 1
 213 682 l 1xe0
226 -90 m 0xd0
 245 -90 258 -103 258 -120 c 0
 258 -138 252 -148 231 -182 c 2
 179 -267 l 1
 156 -267 l 1
 207 -154 l 1
 195 -147 190 -135 190 -126 c 0
 190 -106 204 -90 226 -90 c 0xd0
EndSplineSet
Substitution2: "'c2sc' Capitals to Small Capitals lookup 27 subtable" lcommaaccent.sc
Substitution2: "'aalt' Access All Alternates lookup 0 subtable" lcommaaccent.sc
Position2: "'cpsp' Capital Spacing lookup 0 subtable" dx=5 dy=0 dh=10 dv=0
EndChar

StartChar: lcommaaccent
Encoding: 316 316 197
Width: 277
GlyphClass: 2
Flags: MW
HStem: -10 29<138 160.5> 719 20G<209 209>
VStem: 42 68<-129 -116> 83 33<78 82>
AnchorPoint: "Anchor-11" 93 0 basechar 0
AnchorPoint: "Anchor-10" 0 0 basechar 0
AnchorPoint: "Anchor-9" 0 0 basechar 0
AnchorPoint: "Anchor-8" 0 0 basechar 0
LayerCount: 2
Fore
SplineSet
116 78 m 2xd0
 111 39 121 19 155 19 c 0
 169 19 182 23 195 28 c 1
 203 1 l 1
 188 -5 169 -10 152 -10 c 0
 101 -10 74 18 83 82 c 2
 175 734 l 1
 209 739 l 1
 116 78 l 2xd0
78 -90 m 0xe0
 97 -90 110 -103 110 -120 c 0
 110 -138 104 -148 83 -182 c 2
 31 -267 l 1
 8 -267 l 1
 59 -154 l 1
 47 -147 42 -135 42 -126 c 0
 42 -106 56 -90 78 -90 c 0xe0
EndSplineSet
Substitution2: "'smcp' Lowercase to Small Capitals lookup 24 subtable" lcommaaccent.sc
Substitution2: "'aalt' Access All Alternates lookup 0 subtable" lcommaaccent.sc
EndChar

StartChar: Lcaron
Encoding: 317 317 60
Width: 457
GlyphClass: 2
Flags: MW
HStem: 0 33<122 399> 662 20G<178 213 213 213 346 346> 666 20G<311 311>
VStem: 82 329<0 33>
AnchorPoint: "Anchor-11" 244 0 basechar 0
AnchorPoint: "Anchor-10" 0 0 basechar 0
AnchorPoint: "Anchor-9" 196 682 basechar 0
AnchorPoint: "Anchor-8" 0 0 basechar 0
LayerCount: 2
Fore
SplineSet
346 682 m 1xd0
 294 532 l 1
 271 535 l 1
 311 686 l 1xb0
 346 682 l 1xd0
122 33 m 1
 411 33 l 1
 399 0 l 1
 82 0 l 1
 178 682 l 1
 213 682 l 1xd0
 122 33 l 1
EndSplineSet
Substitution2: "'c2sc' Capitals to Small Capitals lookup 23 subtable" lcaron.sc
Substitution2: "'aalt' Access All Alternates lookup 0 subtable" lcaron.sc
Position2: "'cpsp' Capital Spacing lookup 0 subtable" dx=5 dy=0 dh=10 dv=0
EndChar
StartChar: lcaron
Encoding: 318 318 516
Width: 278
GlyphClass: 2
Flags: MW
HStem: -10 31<139 161.5> 714 20G<176 176 333 333> 718 20G<298 298> 719 20G<210 210>
VStem: 84 33<78 82>
AnchorPoint: "Anchor-14" 280 375 basechar 0
AnchorPoint: "Anchor-13" 238 734 basechar 0
AnchorPoint: "Anchor-12" 193 734 basechar 0
AnchorPoint: "Anchor-11" 0 0 basechar 0
AnchorPoint: "Anchor-10" 146 0 basechar 0
LayerCount: 2
Back
Fore
SplineSet
210 739 m 1x98
 117 78 l 2
 112 40 122 21 156 21 c 0
 170 21 184 25 196 29 c 1
 204 1 l 1
 189 -5 170 -10 153 -10 c 0
 102 -10 75 18 84 82 c 2
 176 734 l 1
 210 739 l 1x98
298 738 m 1xa8
 333 734 l 1xc8
 281 584 l 1
 258 587 l 1
 298 738 l 1xa8
EndSplineSet
Substitution2: "'smcp' Lowercase to Small Capitals lookup 28 subtable" lcaron.sc
Substitution2: "'aalt' Access All Alternates lookup 0 subtable" lcaron.sc
EndChar

StartChar: Ldot
Encoding: 319 319 62
Width: 457
GlyphClass: 2
Flags: MW
HStem: 0 33<122 399> 328 55<360.5 373.5> 662 20G<178 213 213 213>
VStem: 82 329<0 33> 339 56
AnchorPoint: "Anchor-11" 244 0 basechar 0
AnchorPoint: "Anchor-10" 0 0 basechar 0
AnchorPoint: "Anchor-9" 196 682 basechar 0
AnchorPoint: "Anchor-8" 0 0 basechar 0
LayerCount: 2
Fore
SplineSet
122 33 m 1xf0
 411 33 l 1
 399 0 l 1
 82 0 l 1
 178 682 l 1
 213 682 l 1
 122 33 l 1xf0
369 383 m 0xe8
 388 383 397 370 395 354 c 0
 393 339 382 328 365 328 c 0
 347 328 337 341 339 358 c 0
 341 372 352 383 369 383 c 0xe8
EndSplineSet
Ligature2: "Ligature Substitution lookup 29 subtable" L periodcentered
Substitution2: "'c2sc' Capitals to Small Capitals lookup 23 subtable" ldot.sc
Substitution2: "'aalt' Access All Alternates lookup 0 subtable" ldot.sc
Position2: "'cpsp' Capital Spacing lookup 0 subtable" dx=5 dy=0 dh=10 dv=0
EndChar
StartChar: ldot
Encoding: 320 320 520
Width: 282
GlyphClass: 2
Flags: MW
HStem: -10 31<139 161.5> 347 55<273.5 286.5> 719 20G<210 210>
VStem: 84 33<78 82> 252 56
AnchorPoint: "Anchor-14" 280 375 basechar 0
AnchorPoint: "Anchor-13" 238 734 basechar 0
AnchorPoint: "Anchor-12" 283 402 basechar 0
AnchorPoint: "Anchor-11" 0 0 basechar 0
AnchorPoint: "Anchor-10" 146 0 basechar 0
LayerCount: 2
Back
Fore
SplineSet
210 739 m 1
 117 78 l 2
 112 40 122 21 156 21 c 0
 170 21 184 25 196 29 c 1
 204 1 l 1
 189 -5 170 -10 153 -10 c 0
 102 -10 75 18 84 82 c 2
 176 734 l 1
 210 739 l 1
282 402 m 0
 301 402 310 389 308 373 c 0
 306 358 295 347 278 347 c 0
 260 347 250 360 252 377 c 0
 254 391 265 402 282 402 c 0
EndSplineSet
Ligature2: "Ligature Substitution lookup 40 subtable" l periodcentered
Substitution2: "'smcp' Lowercase to Small Capitals lookup 28 subtable" ldot.sc
Substitution2: "'aalt' Access All Alternates lookup 0 subtable" ldot.sc
EndChar

StartChar: Lslash
Encoding: 321 321 63
Width: 468
GlyphClass: 2
Flags: MW
HStem: 0 33<133 410> 662 20G<189 224 224 224>
VStem: 48 374<33 279>
LayerCount: 2
Fore
SplineSet
410 0 m 1
 93 0 l 1
 135 298 l 1
 60 255 l 1
 48 279 l 1
 140 332 l 1
 189 682 l 1
 224 682 l 1
 178 354 l 1
 390 476 l 1
 402 452 l 1
 174 320 l 1
 133 33 l 1
 422 33 l 1
 410 0 l 1
EndSplineSet
Substitution2: "'c2sc' Capitals to Small Capitals lookup 23 subtable" lslash.sc
Substitution2: "'aalt' Access All Alternates lookup 0 subtable" lslash.sc
Position2: "'cpsp' Capital Spacing lookup 0 subtable" dx=5 dy=0 dh=10 dv=0
EndChar

StartChar: lslash
Encoding: 322 322 199
Width: 284
GlyphClass: 2
Flags: MW
HStem: -10 29<138 160.5> 719 20G<209 209>
VStem: 83 33<78 82>
AnchorPoint: "Anchor-11" 93 0 basechar 0
AnchorPoint: "Anchor-10" 0 0 basechar 0
AnchorPoint: "Anchor-9" 0 0 basechar 0
AnchorPoint: "Anchor-8" 0 0 basechar 0
LayerCount: 2
Fore
SplineSet
155 19 m 0
 169 19 182 23 195 28 c 1
 203 1 l 1
 188 -5 169 -10 152 -10 c 0
 101 -10 74 18 83 82 c 2
 120 343 l 1
 60 309 l 1
 47 334 l 1
 125 378 l 1
 175 734 l 1
 209 739 l 1
 161 399 l 1
 278 465 l 1
 289 439 l 1
 156 364 l 1
 116 78 l 2
 111 39 121 19 155 19 c 0
EndSplineSet
Substitution2: "'smcp' Lowercase to Small Capitals lookup 24 subtable" lslash.sc
Substitution2: "'aalt' Access All Alternates lookup 0 subtable" lslash.sc
EndChar

StartChar: Nacute
Encoding: 323 323 66
Width: 665
GlyphClass: 2
Flags: MW
HStem: 0 37<487 487 487 509 466 487> 648 34<201 201>
VStem: 82 523
AnchorPoint: "Anchor-11" 296 0 basechar 0
AnchorPoint: "Anchor-10" 0 0 basechar 0
AnchorPoint: "Anchor-9" 399 682 basechar 0
AnchorPoint: "Anchor-8" 0 0 basechar 0
LayerCount: 2
Fore
SplineSet
519 837 m 1
 322 761 l 1
 315 783 l 1
 506 872 l 1
 519 837 l 1
509 0 m 1
 466 0 l 1
 201 648 l 1
 199 602 193 549 176 429 c 2
 115 0 l 1
 82 0 l 1
 178 682 l 1
 222 682 l 1
 487 37 l 1
 489 82 496 147 509 238 c 2
 571 682 l 1
 605 682 l 1
 509 0 l 1
EndSplineSet
Substitution2: "'c2sc' Capitals to Small Capitals lookup 23 subtable" nacute.sc
Substitution2: "'locl' Localized Forms in Latin lookup 7 subtable" Nacute.loclPLK
AlternateSubs2: "'aalt' Access All Alternates lookup 1 subtable" Nacute.loclPLK nacute.sc
Position2: "'cpsp' Capital Spacing lookup 0 subtable" dx=5 dy=0 dh=10 dv=0
EndChar

StartChar: nacute
Encoding: 324 324 202
Width: 582
GlyphClass: 2
Flags: MW
HStem: 0 21G<77 111 77 77 402 436 402 402> 500 20G<151 179 179 179> 501 30<331.5 401.5>
VStem: 456.85 34.23
AnchorPoint: "Anchor-11" 252 0 basechar 0
AnchorPoint: "Anchor-10" 141 520 basechar 0
AnchorPoint: "Anchor-9" 334 520 basechar 0
AnchorPoint: "Anchor-8" 0 0 basechar 0
LayerCount: 2
Fore
SplineSet
452 734 m 1xb0
 256 650 l 1
 247 673 l 1
 440 769 l 1
 452 734 l 1xb0
371 531 m 0
 464 531 503 471 488 369 c 2
 436 0 l 1
 402 0 l 1
 454 367 l 2
 467 459 437 501 366 501 c 0xb0
 284 501 213 422 155 310 c 1
 111 0 l 1
 77 0 l 1
 151 520 l 1
 179 520 l 1xd0
 162 371 l 1
 215 471 292 531 371 531 c 0
EndSplineSet
Substitution2: "'smcp' Lowercase to Small Capitals lookup 24 subtable" nacute.sc
Substitution2: "'locl' Localized Forms in Latin lookup 7 subtable" nacute.loclPLK
AlternateSubs2: "'aalt' Access All Alternates lookup 1 subtable" nacute.loclPLK nacute.sc
EndChar
StartChar: Ncommaaccent
Encoding: 325 325 161
Width: 665
GlyphClass: 2
Flags: MW
HStem: 0 37<487 487 487 509 466 487> 648 34<201 201>
VStem: 82 523 246 68<-129 -116>
AnchorPoint: "Anchor-14" 0 0 basechar 0
AnchorPoint: "Anchor-13" 0 0 basechar 0
AnchorPoint: "Anchor-12" 399 682 basechar 0
AnchorPoint: "Anchor-11" 0 0 basechar 0
AnchorPoint: "Anchor-10" 296 0 basechar 0
LayerCount: 2
Back
Fore
SplineSet
605 682 m 1xe0
 509 0 l 1
 466 0 l 1
 201 648 l 1
 199 602 193 549 176 429 c 2
 115 0 l 1
 82 0 l 1
 178 682 l 1
 222 682 l 1
 487 37 l 1
 489 82 496 147 509 238 c 2
 571 682 l 1
 605 682 l 1xe0
282 -90 m 0xd0
 301 -90 314 -103 314 -120 c 0
 314 -138 308 -148 287 -182 c 2
 235 -267 l 1
 212 -267 l 1
 263 -154 l 1
 251 -147 246 -135 246 -126 c 0
 246 -106 260 -90 282 -90 c 0xd0
EndSplineSet
Substitution2: "'c2sc' Capitals to Small Capitals lookup 27 subtable" ncommaaccent.sc
Substitution2: "'aalt' Access All Alternates lookup 0 subtable" ncommaaccent.sc
Position2: "'cpsp' Capital Spacing lookup 0 subtable" dx=5 dy=0 dh=10 dv=0
EndChar

StartChar: ncommaaccent
Encoding: 326 326 205
Width: 582
GlyphClass: 2
Flags: MW
HStem: 0 21G<77 111 77 77 402 436 402 402> 500 20G<151 179 179 179> 501 30<331.5 401.5>
VStem: 201 68<-129 -116> 456.85 34.23
AnchorPoint: "Anchor-11" 252 0 basechar 0
AnchorPoint: "Anchor-10" 141 520 basechar 0
AnchorPoint: "Anchor-9" 334 520 basechar 0
AnchorPoint: "Anchor-8" 0 0 basechar 0
LayerCount: 2
Fore
SplineSet
371 531 m 0xa8
 464 531 503 471 488 369 c 2
 436 0 l 1
 402 0 l 1
 454 367 l 2
 467 459 437 501 366 501 c 0xa8
 284 501 213 422 155 310 c 1
 111 0 l 1
 77 0 l 1
 151 520 l 1
 179 520 l 1xc8
 162 371 l 1
 215 471 292 531 371 531 c 0xa8
237 -90 m 0xb8
 256 -90 269 -103 269 -120 c 0
 269 -138 263 -148 242 -182 c 2
 190 -267 l 1
 167 -267 l 1
 218 -154 l 1
 206 -147 201 -135 201 -126 c 0
 201 -106 215 -90 237 -90 c 0xb8
EndSplineSet
Substitution2: "'smcp' Lowercase to Small Capitals lookup 24 subtable" ncommaaccent.sc
Substitution2: "'aalt' Access All Alternates lookup 0 subtable" ncommaaccent.sc
EndChar
StartChar: Ncaron
Encoding: 327 327 159
Width: 665
GlyphClass: 2
Flags: MW
HStem: 0 37<487 487 487 509 466 487> 648 34<201 201>
VStem: 82 523
AnchorPoint: "Anchor-14" 0 0 basechar 0
AnchorPoint: "Anchor-13" 0 0 basechar 0
AnchorPoint: "Anchor-12" 420 873 basechar 0
AnchorPoint: "Anchor-11" 0 0 basechar 0
AnchorPoint: "Anchor-10" 296 0 basechar 0
LayerCount: 2
Back
Fore
SplineSet
537 873 m 1
 552 853 l 1
 414 758 l 1
 396 758 l 1
 283 853 l 1
 301 872 l 1
 409 793 l 1
 537 873 l 1
605 682 m 1
 509 0 l 1
 466 0 l 1
 201 648 l 1
 199 602 193 549 176 429 c 2
 115 0 l 1
 82 0 l 1
 178 682 l 1
 222 682 l 1
 487 37 l 1
 489 82 496 147 509 238 c 2
 571 682 l 1
 605 682 l 1
EndSplineSet
Substitution2: "'c2sc' Capitals to Small Capitals lookup 27 subtable" ncaron.sc
Substitution2: "'aalt' Access All Alternates lookup 0 subtable" ncaron.sc
Position2: "'cpsp' Capital Spacing lookup 0 subtable" dx=5 dy=0 dh=10 dv=0
EndChar

StartChar: ncaron
Encoding: 328 328 204
Width: 582
GlyphClass: 2
Flags: MW
HStem: 0 21G<77 111 77 77 402 436 402 402> 500 20G<151 179 179 179> 501 30<331.5 401.5> 721 20G<235 235 504 504>
VStem: 456.85 34.23
AnchorPoint: "Anchor-11" 252 0 basechar 0
AnchorPoint: "Anchor-10" 141 520 basechar 0
AnchorPoint: "Anchor-9" 334 520 basechar 0
AnchorPoint: "Anchor-8" 0 0 basechar 0
LayerCount: 2
Fore
SplineSet
504 741 m 1xb8
 365 640 l 1
 346 640 l 1
 235 741 l 1
 253 761 l 1
 360 676 l 1
 489 761 l 1
 504 741 l 1xb8
371 531 m 0
 464 531 503 471 488 369 c 2
 436 0 l 1
 402 0 l 1
 454 367 l 2
 467 459 437 501 366 501 c 0xb8
 284 501 213 422 155 310 c 1
 111 0 l 1
 77 0 l 1
 151 520 l 1
 179 520 l 1xd8
 162 371 l 1
 215 471 292 531 371 531 c 0
EndSplineSet
Substitution2: "'smcp' Lowercase to Small Capitals lookup 24 subtable" ncaron.sc
Substitution2: "'aalt' Access All Alternates lookup 0 subtable" ncaron.sc
EndChar
StartChar: napostrophe
Encoding: 329 329 537
Width: 649
GlyphClass: 2
Flags: MW
HStem: 0 21G<144 178 144 144 469 503 469 469> 500 20G<218 246 246 246> 501 30<397.5 468> 719 20G<148.5 170.5>
VStem: 124 68<699.5 714.5> 523.77 34.19
AnchorPoint: "Anchor-14" 0 0 basechar 0
AnchorPoint: "Anchor-13" 0 0 basechar 0
AnchorPoint: "Anchor-12" 396 520 basechar 0
AnchorPoint: "Anchor-11" 0 0 basechar 0
AnchorPoint: "Anchor-10" 324 0 basechar 0
LayerCount: 2
Back
Fore
SplineSet
159 739 m 0xbc
 182 739 192 723 192 709 c 0
 192 690 186 680 168 647 c 2
 119 556 l 1
 96 556 l 1
 144 675 l 1
 131 681 124 691 124 705 c 0
 124 724 138 739 159 739 c 0xbc
438 531 m 0
 528 531 570 471 555 369 c 2
 503 0 l 1
 469 0 l 1
 521 367 l 2
 534 459 502 501 434 501 c 0xbc
 351 501 280 422 221 310 c 1
 178 0 l 1
 144 0 l 1
 218 520 l 1
 246 520 l 1xdc
 229 371 l 1
 283 471 357 531 438 531 c 0
EndSplineSet
Substitution2: "'smcp' Lowercase to Small Capitals lookup 28 subtable" napostrophe.sc
Ligature2: "'locl' Localized Forms in Latin lookup 12 subtable" quoteright n
Ligature2: "'locl' Localized Forms in Latin lookup 12 subtable" quotesingle n
Substitution2: "'aalt' Access All Alternates lookup 0 subtable" napostrophe.sc
EndChar
StartChar: Eng
Encoding: 330 330 165
Width: 665
GlyphClass: 2
Flags: MW
HStem: -200 31<358 395 358 405.5> 0 21G<82 115 82 82 466 474 466 466 509 509> 648 34<201 201>
VStem: 82 523
AnchorPoint: "Anchor-14" 0 0 basechar 0
AnchorPoint: "Anchor-13" 0 0 basechar 0
AnchorPoint: "Anchor-12" 399 682 basechar 0
AnchorPoint: "Anchor-11" 0 0 basechar 0
AnchorPoint: "Anchor-10" 296 0 basechar 0
LayerCount: 2
Back
Fore
SplineSet
571 682 m 1
 605 682 l 1
 509 0 l 1
 497 -82 l 2
 485 -163 436 -200 375 -200 c 0
 333 -200 305 -183 286 -167 c 1
 304 -145 l 1
 322 -158 341 -169 375 -169 c 0
 415 -169 453 -147 462 -78 c 2
 474 0 l 1
 466 0 l 1
 201 648 l 1
 199 602 193 549 176 429 c 2
 115 0 l 1
 82 0 l 1
 178 682 l 1
 222 682 l 1
 487 37 l 1
 489 82 496 147 509 238 c 2
 571 682 l 1
EndSplineSet
Substitution2: "'ss01' Style Set 1 lookup 34 subtable" Eng.ss01
Substitution2: "'salt' Stylistic Alternatives lookup 33 subtable" Eng.ss01
Substitution2: "'c2sc' Capitals to Small Capitals lookup 27 subtable" eng.sc
AlternateSubs2: "'aalt' Access All Alternates lookup 1 subtable" eng.sc Eng.ss01
Position2: "'cpsp' Capital Spacing lookup 0 subtable" dx=5 dy=0 dh=10 dv=0
EndChar
StartChar: eng
Encoding: 331 331 545
Width: 582
GlyphClass: 2
Flags: MW
HStem: -200 30<285.5 322.5 285.5 332.5> 0 21G<77 111 77 77 402 402 436 436> 500 20G<151 179 179 179> 501 30<330.5 401>
VStem: 456.77 34.19
AnchorPoint: "Anchor-14" 0 0 basechar 0
AnchorPoint: "Anchor-13" 0 0 basechar 0
AnchorPoint: "Anchor-12" 329 520 basechar 0
AnchorPoint: "Anchor-11" 0 0 basechar 0
AnchorPoint: "Anchor-10" 237 -194 basechar 0
LayerCount: 2
Back
Fore
SplineSet
371 531 m 0xd8
 461 531 503 471 488 369 c 2
 436 0 l 1
 424 -82 l 2
 412 -163 363 -200 302 -200 c 0
 259 -200 232 -183 212 -167 c 1
 231 -146 l 1
 249 -159 269 -170 302 -170 c 0
 343 -170 380 -148 390 -79 c 2
 402 0 l 1
 454 367 l 2
 467 459 435 501 367 501 c 0xd8
 284 501 213 422 155 310 c 1
 111 0 l 1
 77 0 l 1
 151 520 l 1
 179 520 l 1xe8
 162 371 l 1
 216 471 290 531 371 531 c 0xd8
EndSplineSet
Substitution2: "'smcp' Lowercase to Small Capitals lookup 28 subtable" eng.sc
Substitution2: "'aalt' Access All Alternates lookup 0 subtable" eng.sc
EndChar

StartChar: omacron
Encoding: 333 333 215
Width: 562
GlyphClass: 2
Flags: MW
HStem: -10 31<198.5 327.5 198.5 341.5> 501 30<233 364> 682 32<232 455 237 449>
VStem: 64 35<139 253.5 139 264.5> 463 35<266 383>
AnchorPoint: "Anchor-11" 0 0 basechar 0
AnchorPoint: "Anchor-10" 0 0 basechar 0
AnchorPoint: "Anchor-9" 319 520 basechar 0
AnchorPoint: "Anchor-8" 0 0 basechar 0
LayerCount: 2
Fore
SplineSet
232 682 m 1
 237 714 l 1
 455 714 l 1
 449 682 l 1
 232 682 l 1
318 531 m 0
 431 531 498 459 498 327 c 0
 498 196 438 -10 245 -10 c 0
 130 -10 64 66 64 198 c 0
 64 331 127 531 318 531 c 0
317 501 m 0
 149 501 99 311 99 196 c 0
 99 82 152 21 245 21 c 0
 410 21 463 206 463 326 c 0
 463 440 411 501 317 501 c 0
EndSplineSet
Substitution2: "'smcp' Lowercase to Small Capitals lookup 24 subtable" omacron.sc
Substitution2: "'aalt' Access All Alternates lookup 0 subtable" omacron.sc
EndChar
StartChar: Obreve
Encoding: 334 334 173
Width: 690
GlyphClass: 2
Flags: MW
HStem: -10 32<250 422.5 250 432> 661 32<294 464> 769 32<391 438 391 444>
VStem: 79 36<179.5 336 179.5 345> 308 25<855 858> 598 36<348.5 505>
AnchorPoint: "Anchor-14" 0 0 basechar 0
AnchorPoint: "Anchor-13" 596 682 basechar 0
AnchorPoint: "Anchor-12" 426 860 basechar 0
AnchorPoint: "Anchor-11" 0 0 basechar 0
AnchorPoint: "Anchor-10" 309 0 basechar 0
LayerCount: 2
Back
Fore
SplineSet
414 769 m 0
 352 769 311 809 308 855 c 1
 333 858 l 1
 340 824 368 801 414 801 c 0
 462 801 497 826 514 860 c 1
 539 853 l 1
 524 807 474 769 414 769 c 0
405 693 m 0
 545 693 634 601 634 426 c 0
 634 249 555 -10 309 -10 c 0
 168 -10 79 85 79 259 c 0
 79 431 162 693 405 693 c 0
404 661 m 0
 184 661 115 414 115 258 c 0
 115 101 191 22 309 22 c 0
 536 22 598 271 598 426 c 0
 598 584 524 661 404 661 c 0
EndSplineSet
Substitution2: "'c2sc' Capitals to Small Capitals lookup 27 subtable" obreve.sc
Substitution2: "'aalt' Access All Alternates lookup 0 subtable" obreve.sc
Position2: "'cpsp' Capital Spacing lookup 0 subtable" dx=5 dy=0 dh=10 dv=0
EndChar
StartChar: obreve
Encoding: 335 335 554
Width: 562
GlyphClass: 2
Flags: MW
HStem: -10 31<198.5 327.5 198.5 341.5> 501 30<233 364> 660 31<314 361 314 367>
VStem: 64 35<139 253.5 139 264.5> 233 26<756 759> 463 35<266 383>
AnchorPoint: "Anchor-14" 0 0 basechar 0
AnchorPoint: "Anchor-13" 493 520 basechar 0
AnchorPoint: "Anchor-12" 351 761 basechar 0
AnchorPoint: "Anchor-11" 0 0 basechar 0
AnchorPoint: "Anchor-10" 245 0 basechar 0
LayerCount: 2
Back
Fore
SplineSet
337 660 m 0
 275 660 235 700 233 756 c 1
 259 759 l 1
 265 715 291 691 337 691 c 0
 385 691 422 717 440 761 c 1
 464 753 l 1
 448 697 397 660 337 660 c 0
318 531 m 0
 431 531 498 459 498 327 c 0
 498 196 438 -10 245 -10 c 0
 130 -10 64 66 64 198 c 0
 64 331 127 531 318 531 c 0
317 501 m 0
 149 501 99 311 99 196 c 0
 99 82 152 21 245 21 c 0
 410 21 463 206 463 326 c 0
 463 440 411 501 317 501 c 0
EndSplineSet
Substitution2: "'smcp' Lowercase to Small Capitals lookup 28 subtable" obreve.sc
Substitution2: "'aalt' Access All Alternates lookup 0 subtable" obreve.sc
EndChar

StartChar: Ohungarumlaut
Encoding: 336 336 77
Width: 690
GlyphClass: 2
Flags: MW
HStem: -10 32<250 422.5 250 432> 661 32<294 464>
VStem: 79 36<178.5 335 178.5 345> 598 36<349.5 506>
AnchorPoint: "Anchor-11" 0 0 basechar 0
AnchorPoint: "Anchor-10" 77 521 basechar 0
AnchorPoint: "Anchor-9" 390 682 basechar 0
AnchorPoint: "Anchor-8" 0 0 basechar 0
LayerCount: 2
Fore
SplineSet
415 904 m 1
 320 778 l 1
 298 790 l 1
 383 922 l 1
 415 904 l 1
528 905 m 1
 426 774 l 1
 403 786 l 1
 496 922 l 1
 528 905 l 1
405 693 m 0
 545 693 634 601 634 426 c 0
 634 249 555 -10 309 -10 c 0
 168 -10 79 85 79 259 c 0
 79 431 162 693 405 693 c 0
404 661 m 0
 184 661 115 414 115 256 c 0
 115 101 191 22 309 22 c 0
 536 22 598 271 598 428 c 0
 598 584 524 661 404 661 c 0
EndSplineSet
Substitution2: "'c2sc' Capitals to Small Capitals lookup 23 subtable" ohungarumlaut.sc
Substitution2: "'aalt' Access All Alternates lookup 0 subtable" ohungarumlaut.sc
Position2: "'cpsp' Capital Spacing lookup 0 subtable" dx=5 dy=0 dh=10 dv=0
EndChar
StartChar: OE
Encoding: 338 338 210
Width: 850
GlyphClass: 2
Flags: MW
HStem: -10 32<243.5 309> 0 22<366 405.5 243.5 772 366 366> 0 32<435 772> 343 31<611 770 607 775> 650 32<519 853 519 519> 661 21<289.5 862> 661 32<289.5 405 279 449>
VStem: 78 36<178 334 178 342.5> 578 35<419.5 481 419.5 507.5>
LayerCount: 2
Back
Fore
SplineSet
862 682 m 1x3980
 853 650 l 1
 519 650 l 1
 579 609 613 534 613 428 c 0
 613 411 612 393 611 374 c 1
 775 374 l 1
 770 343 l 1
 607 343 l 1
 591 225 541 94 435 32 c 1
 777 32 l 1
 772 0 l 1
 366 0 l 1x3980
 343 -7 320 -10 298 -10 c 0
 166 -10 78 85 78 258 c 0
 78 427 165 693 393 693 c 0x9380
 417 693 441 689 461 682 c 1
 862 682 l 1x3980
578 432 m 0x5580
 578 583 505 661 393 661 c 0
 186 661 114 413 114 255 c 0
 114 101 189 22 298 22 c 0
 513 22 578 281 578 432 c 0x5580
EndSplineSet
Substitution2: "'c2sc' Capitals to Small Capitals lookup 27 subtable" oe.sc
Substitution2: "'aalt' Access All Alternates lookup 0 subtable" oe.sc
Position2: "'cpsp' Capital Spacing lookup 0 subtable" dx=5 dy=0 dh=10 dv=0
EndChar
StartChar: oe
Encoding: 339 339 592
Width: 907
GlyphClass: 2
Flags: MW
HStem: -10 31<198.5 299.5 593 667.5> 212 29 501 30<233 364 655 750.5>
VStem: 64 35<139 253.5 139 264.5> 463 28 829 36<359.5 435.5>
AnchorPoint: "Anchor-14" 0 0 basechar 0
AnchorPoint: "Anchor-13" 0 0 basechar 0
AnchorPoint: "Anchor-12" 490 520 basechar 0
AnchorPoint: "Anchor-11" 0 0 basechar 0
AnchorPoint: "Anchor-10" 450 0 basechar 0
LayerCount: 2
Back
Fore
SplineSet
865 410 m 0
 865 286 722 227 489 212 c 1
 489 198 l 2
 489 75 549 21 637 21 c 0
 698 21 739 41 789 76 c 1
 806 51 l 1
 754 12 702 -10 636 -10 c 0
 537 -10 479 46 460 149 c 1
 422 62 354 -10 245 -10 c 0
 130 -10 64 66 64 198 c 0
 64 331 127 531 318 531 c 0
 418 531 475 479 493 370 c 1
 531 460 599 531 711 531 c 0
 806 531 865 482 865 410 c 0
711 501 m 0
 571 501 504 363 491 241 c 1
 715 256 829 310 829 409 c 0
 829 462 790 501 711 501 c 0
245 21 m 0
 410 21 463 206 463 326 c 0
 463 440 411 501 317 501 c 0
 149 501 99 311 99 196 c 0
 99 82 152 21 245 21 c 0
EndSplineSet
Substitution2: "'smcp' Lowercase to Small Capitals lookup 28 subtable" oe.sc
Substitution2: "'aalt' Access All Alternates lookup 0 subtable" oe.sc
EndChar
StartChar: Racute
Encoding: 340 340 219
Width: 578
GlyphClass: 2
Flags: MW
HStem: 0 21G<82 117 82 82 464 502 464 464> 318 32<166 297 297 321 162 297> 651 31<208 332 332 336 208 208>
VStem: 504 36<491 570.5>
AnchorPoint: "Anchor-14" 0 0 basechar 0
AnchorPoint: "Anchor-13" 0 0 basechar 0
AnchorPoint: "Anchor-12" 370 872 basechar 0
AnchorPoint: "Anchor-11" 0 0 basechar 0
AnchorPoint: "Anchor-10" 268 0 basechar 0
LayerCount: 2
Back
Fore
SplineSet
470 837 m 1
 273 761 l 1
 266 783 l 1
 457 872 l 1
 470 837 l 1
540 530 m 0
 540 444 497 353 355 323 c 1
 502 0 l 1
 464 0 l 1
 321 318 l 1
 162 318 l 1
 117 0 l 1
 82 0 l 1
 178 682 l 1
 332 682 l 2
 476 682 540 631 540 530 c 0
166 350 m 1
 297 350 l 2
 457 350 504 451 504 531 c 0
 504 610 457 651 336 651 c 2
 208 651 l 1
 166 350 l 1
EndSplineSet
Substitution2: "'c2sc' Capitals to Small Capitals lookup 27 subtable" racute.sc
Substitution2: "'aalt' Access All Alternates lookup 0 subtable" racute.sc
Position2: "'cpsp' Capital Spacing lookup 0 subtable" dx=5 dy=0 dh=10 dv=0
EndChar
StartChar: racute
Encoding: 341 341 604
Width: 364
GlyphClass: 2
Flags: MW
HStem: 0 21G<77 111 77 77> 499 32<295 343.5> 500 20G<151 180 180 180> 524 7
VStem: 77 319
AnchorPoint: "Anchor-14" 0 0 basechar 0
AnchorPoint: "Anchor-13" 0 0 basechar 0
AnchorPoint: "Anchor-12" 295 769 basechar 0
AnchorPoint: "Anchor-11" 0 0 basechar 0
AnchorPoint: "Anchor-10" 93 0 basechar 0
LayerCount: 2
Back
Fore
SplineSet
384 769 m 1xc8
 396 734 l 1
 200 650 l 1
 191 673 l 1
 384 769 l 1xc8
337 531 m 0
 357 531 375 527 386 524 c 1x98
 376 494 l 1
 367 497 351 499 336 499 c 0xc8
 252 499 203 427 155 312 c 1
 111 0 l 1
 77 0 l 1
 151 520 l 1
 180 520 l 1xa8
 161 380 l 1
 200 472 253 531 337 531 c 0
EndSplineSet
Substitution2: "'smcp' Lowercase to Small Capitals lookup 28 subtable" racute.sc
Substitution2: "'aalt' Access All Alternates lookup 0 subtable" racute.sc
EndChar
StartChar: Rcommaaccent
Encoding: 342 342 221
Width: 578
GlyphClass: 2
Flags: MW
HStem: 0 21G<82 117 82 82 464 502 464 464> 318 32<166 297 297 321 162 297> 651 31<208 332 332 336 208 208>
VStem: 218 68<-129 -116> 504 36<491 570.5>
AnchorPoint: "Anchor-14" 0 0 basechar 0
AnchorPoint: "Anchor-13" 0 0 basechar 0
AnchorPoint: "Anchor-12" 349 682 basechar 0
AnchorPoint: "Anchor-11" 0 0 basechar 0
AnchorPoint: "Anchor-10" 268 0 basechar 0
LayerCount: 2
Back
Fore
SplineSet
540 530 m 0
 540 444 497 353 355 323 c 1
 502 0 l 1
 464 0 l 1
 321 318 l 1
 162 318 l 1
 117 0 l 1
 82 0 l 1
 178 682 l 1
 332 682 l 2
 476 682 540 631 540 530 c 0
166 350 m 1
 297 350 l 2
 457 350 504 451 504 531 c 0
 504 610 457 651 336 651 c 2
 208 651 l 1
 166 350 l 1
254 -90 m 0
 273 -90 286 -103 286 -120 c 0
 286 -138 280 -148 259 -182 c 2
 207 -267 l 1
 184 -267 l 1
 235 -154 l 1
 223 -147 218 -135 218 -126 c 0
 218 -106 232 -90 254 -90 c 0
EndSplineSet
Substitution2: "'c2sc' Capitals to Small Capitals lookup 27 subtable" rcommaaccent.sc
Substitution2: "'aalt' Access All Alternates lookup 0 subtable" rcommaaccent.sc
Position2: "'cpsp' Capital Spacing lookup 0 subtable" dx=5 dy=0 dh=10 dv=0
EndChar

StartChar: rcommaaccent
Encoding: 343 343 226
Width: 364
GlyphClass: 2
Flags: MW
HStem: 0 21G<77 111 77 77> 499 32<296.5 341.5> 500 20G<151 180 180 180> 524 7
VStem: 8 378 42 68<-129 -116>
AnchorPoint: "Anchor-11" 93 0 basechar 0
AnchorPoint: "Anchor-10" 0 0 basechar 0
AnchorPoint: "Anchor-9" 266 520 basechar 0
AnchorPoint: "Anchor-8" 0 0 basechar 0
LayerCount: 2
Fore
SplineSet
337 531 m 0xc8
 357 531 375 527 386 524 c 1x98
 376 494 l 1
 363 498 347 499 336 499 c 0xc8
 253 499 203 427 155 312 c 1
 111 0 l 1
 77 0 l 1
 151 520 l 1
 180 520 l 1xa8
 161 380 l 1
 199 472 256 531 337 531 c 0xc8
78 -90 m 0xc4
 97 -90 110 -103 110 -120 c 0
 110 -138 104 -148 83 -182 c 2
 31 -267 l 1
 8 -267 l 1
 59 -154 l 1
 47 -147 42 -135 42 -126 c 0
 42 -106 56 -90 78 -90 c 0xc4
EndSplineSet
Substitution2: "'smcp' Lowercase to Small Capitals lookup 24 subtable" rcommaaccent.sc
Substitution2: "'aalt' Access All Alternates lookup 0 subtable" rcommaaccent.sc
EndChar

StartChar: Rcaron
Encoding: 344 344 88
Width: 578
GlyphClass: 2
Flags: MW
HStem: 0 21G<82 117 82 82 464 502 464 464> 318 32<166 297 297 322 161 297> 651 31<208 332 332 336 208 208>
VStem: 504 36<493 572.5>
AnchorPoint: "Anchor-11" 268 0 basechar 0
AnchorPoint: "Anchor-10" 0 0 basechar 0
AnchorPoint: "Anchor-9" 349 682 basechar 0
AnchorPoint: "Anchor-8" 0 0 basechar 0
LayerCount: 2
Fore
SplineSet
347 758 m 1
 234 853 l 1
 252 872 l 1
 360 793 l 1
 488 873 l 1
 503 853 l 1
 365 758 l 1
 347 758 l 1
540 532 m 0
 540 446 496 353 355 323 c 1
 502 0 l 1
 464 0 l 1
 322 318 l 1
 161 318 l 1
 117 0 l 1
 82 0 l 1
 178 682 l 1
 332 682 l 2
 476 682 540 633 540 532 c 0
297 350 m 2
 457 350 504 453 504 533 c 0
 504 612 457 651 336 651 c 2
 208 651 l 1
 166 350 l 1
 297 350 l 2
EndSplineSet
Substitution2: "'c2sc' Capitals to Small Capitals lookup 23 subtable" rcaron.sc
Substitution2: "'aalt' Access All Alternates lookup 0 subtable" rcaron.sc
Position2: "'cpsp' Capital Spacing lookup 0 subtable" dx=5 dy=0 dh=10 dv=0
EndChar
StartChar: rcaron
Encoding: 345 345 606
Width: 364
GlyphClass: 2
Flags: MW
HStem: 0 21G<77 111 77 77> 499 32<295 343.5> 500 20G<151 180 180 180> 524 7 718 20G<162 162 431 431>
VStem: 77 354
AnchorPoint: "Anchor-14" 0 0 basechar 0
AnchorPoint: "Anchor-13" 0 0 basechar 0
AnchorPoint: "Anchor-12" 299 758 basechar 0
AnchorPoint: "Anchor-11" 0 0 basechar 0
AnchorPoint: "Anchor-10" 93 0 basechar 0
LayerCount: 2
Back
Fore
SplineSet
416 758 m 1xcc
 431 738 l 1
 292 637 l 1
 273 637 l 1
 162 738 l 1
 180 758 l 1
 287 673 l 1
 416 758 l 1xcc
337 531 m 0
 357 531 375 527 386 524 c 1x9c
 376 494 l 1
 367 497 351 499 336 499 c 0xcc
 252 499 203 427 155 312 c 1
 111 0 l 1
 77 0 l 1
 151 520 l 1
 180 520 l 1xac
 161 380 l 1
 200 472 253 531 337 531 c 0
EndSplineSet
Substitution2: "'smcp' Lowercase to Small Capitals lookup 28 subtable" rcaron.sc
Substitution2: "'aalt' Access All Alternates lookup 0 subtable" rcaron.sc
EndChar

StartChar: sacute
Encoding: 347 347 228
Width: 461
GlyphClass: 2
Flags: MW
HStem: -10 31<157.5 237.5 157.5 262> 500 31<217.5 286>
VStem: 86 35<375 430 375 436.5> 352 35<102.5 169>
AnchorPoint: "Anchor-11" 193 0 basechar 0
AnchorPoint: "Anchor-10" 0 0 basechar 0
AnchorPoint: "Anchor-9" 267 520 basechar 0
AnchorPoint: "Anchor-8" 0 0 basechar 0
LayerCount: 2
Fore
SplineSet
384 734 m 1
 188 650 l 1
 179 673 l 1
 372 769 l 1
 384 734 l 1
259 531 m 0
 319 531 367 513 410 476 c 1
 388 452 l 1
 350 485 313 500 259 500 c 0
 176 500 121 461 121 399 c 0
 121 351 145 320 241 291 c 0
 347 258 387 214 387 142 c 0
 387 63 330 -10 194 -10 c 0
 110 -10 58 19 17 57 c 1
 38 80 l 1
 80 43 123 21 192 21 c 0
 283 21 352 58 352 141 c 0
 352 197 325 231 226 263 c 1
 117 297 86 338 86 398 c 0
 86 475 158 531 259 531 c 0
EndSplineSet
Substitution2: "'smcp' Lowercase to Small Capitals lookup 24 subtable" sacute.sc
Substitution2: "'locl' Localized Forms in Latin lookup 7 subtable" sacute.loclPLK
AlternateSubs2: "'aalt' Access All Alternates lookup 1 subtable" sacute.loclPLK sacute.sc
EndChar

StartChar: Scircumflex
Encoding: 348 348 94
Width: 534
GlyphClass: 2
Flags: MW
HStem: -10 32<179.5 298 179.5 307.5> 661 32<271.5 356>
VStem: 112 35<486.5 559.5> 428 35<161.5 237.5>
AnchorPoint: "Anchor-11" 224 0 basechar 0
AnchorPoint: "Anchor-10" 0 0 basechar 0
AnchorPoint: "Anchor-9" 327 682 basechar 0
AnchorPoint: "Anchor-8" 0 0 basechar 0
LayerCount: 2
Fore
SplineSet
356 844 m 1
 228 765 l 1
 212 784 l 1
 351 879 l 1
 370 879 l 1
 481 784 l 1
 464 765 l 1
 356 844 l 1
324 693 m 0
 403 693 455 664 500 619 c 1
 476 597 l 1
 432 643 388 661 324 661 c 0
 219 661 147 602 147 521 c 0
 147 452 189 416 292 383 c 0
 406 347 463 294 463 201 c 0
 463 107 394 -10 221 -10 c 0
 130 -10 71 24 22 74 c 1
 47 97 l 1
 89 52 139 22 220 22 c 0
 376 22 428 123 428 200 c 0
 428 275 384 320 279 354 c 0
 160 392 112 438 112 520 c 0
 112 599 178 693 324 693 c 0
EndSplineSet
Substitution2: "'c2sc' Capitals to Small Capitals lookup 23 subtable" scircumflex.sc
Substitution2: "'aalt' Access All Alternates lookup 0 subtable" scircumflex.sc
Position2: "'cpsp' Capital Spacing lookup 0 subtable" dx=5 dy=0 dh=10 dv=0
EndChar

StartChar: Scedilla
Encoding: 350 350 93
Width: 534
GlyphClass: 2
Flags: MW
HStem: -218 30<190.5 219.5 190.5 229.5> -198 21G<132 132> -93 23 -10 32<206 206 231 231> 661 32<271.5 356>
VStem: 112 35<486.5 559.5> 270 35 428 35<161.5 237.5>
AnchorPoint: "Anchor-11" 224 0 basechar 0
AnchorPoint: "Anchor-10" 0 0 basechar 0
AnchorPoint: "Anchor-9" 327 682 basechar 0
AnchorPoint: "Anchor-8" 0 0 basechar 0
LayerCount: 2
Fore
SplineSet
324 693 m 0x7f
 403 693 455 664 500 619 c 1
 476 597 l 1
 432 643 388 661 324 661 c 0
 219 661 147 602 147 521 c 0
 147 452 189 416 292 383 c 0
 406 347 463 294 463 201 c 0
 463 109 397 -6 231 -10 c 1
 221 -70 l 1
 278 -74 305 -94 305 -134 c 0
 305 -183 256 -218 203 -218 c 0xbf
 170 -218 148 -208 132 -198 c 1x7f
 148 -173 l 1
 160 -182 178 -188 203 -188 c 0xbf
 236 -188 269 -172 270 -138 c 0
 271 -107 250 -94 188 -93 c 1
 206 -10 l 1
 123 -6 68 27 22 74 c 1
 47 97 l 1
 89 52 139 22 220 22 c 0
 376 22 428 123 428 200 c 0
 428 275 384 320 279 354 c 0
 160 392 112 438 112 520 c 0
 112 599 178 693 324 693 c 0x7f
EndSplineSet
Substitution2: "'c2sc' Capitals to Small Capitals lookup 23 subtable" scedilla.sc
Substitution2: "'locl' Localized Forms in Latin lookup 5 subtable" Scommaaccent
Substitution2: "'locl' Localized Forms in Latin lookup 4 subtable" Scommaaccent
AlternateSubs2: "'aalt' Access All Alternates lookup 1 subtable" Scommaaccent scedilla.sc
Position2: "'cpsp' Capital Spacing lookup 0 subtable" dx=5 dy=0 dh=10 dv=0
EndChar
StartChar: scedilla
Encoding: 351 351 623
Width: 461
GlyphClass: 2
Flags: MW
HStem: -218 30<160.5 191.5 160.5 200> -198 21G<102 102> -93 23 -10 31<176 176 201 201> 500 31<217 285.5>
VStem: 86 35<375 430 375 436.5> 240 35 352 35<103.5 169>
AnchorPoint: "Anchor-14" 0 0 basechar 0
AnchorPoint: "Anchor-13" 0 0 basechar 0
AnchorPoint: "Anchor-12" 267 520 basechar 0
AnchorPoint: "Anchor-11" 0 0 basechar 0
AnchorPoint: "Anchor-10" 190 -218 basechar 0
LayerCount: 2
Back
Fore
SplineSet
258 500 m 0x7f
 176 500 121 461 121 399 c 0
 121 351 145 320 241 291 c 0
 347 258 387 214 387 142 c 0
 387 65 332 -7 201 -10 c 1
 191 -70 l 1
 248 -74 275 -95 275 -136 c 0
 275 -188 227 -218 173 -218 c 0xbf
 140 -218 118 -208 102 -198 c 1x7f
 117 -174 l 1
 130 -182 148 -188 173 -188 c 0xbf
 210 -188 239 -173 240 -138 c 0
 241 -107 220 -94 158 -93 c 1
 176 -10 l 1
 103 -6 55 22 17 57 c 1
 37 78 l 1
 80 43 123 21 192 21 c 0
 283 21 352 58 352 141 c 0
 352 197 325 231 226 263 c 0
 117 297 86 338 86 398 c 0
 86 475 158 531 258 531 c 0
 319 531 367 513 410 476 c 1
 389 455 l 1
 350 485 313 500 258 500 c 0x7f
EndSplineSet
Substitution2: "'smcp' Lowercase to Small Capitals lookup 28 subtable" scedilla.sc
Substitution2: "'locl' Localized Forms in Latin lookup 5 subtable" scommaaccent
Substitution2: "'locl' Localized Forms in Latin lookup 4 subtable" scommaaccent
AlternateSubs2: "'aalt' Access All Alternates lookup 1 subtable" scommaaccent scedilla.sc
EndChar
StartChar: scaron
Encoding: 353 353 622
Width: 461
GlyphClass: 2
Flags: MW
HStem: -10 31<157.5 237.5 157.5 262> 500 31<217 285.5> 718 20G<162 162 431 431>
VStem: 86 35<375 430 375 436.5> 352 35<102.5 169>
AnchorPoint: "Anchor-14" 0 0 basechar 0
AnchorPoint: "Anchor-13" 0 0 basechar 0
AnchorPoint: "Anchor-12" 299 758 basechar 0
AnchorPoint: "Anchor-11" 0 0 basechar 0
AnchorPoint: "Anchor-10" 193 0 basechar 0
LayerCount: 2
Back
Fore
SplineSet
416 758 m 1
 431 738 l 1
 292 637 l 1
 273 637 l 1
 162 738 l 1
 180 758 l 1
 287 673 l 1
 416 758 l 1
258 531 m 0
 319 531 367 513 410 476 c 1
 389 455 l 1
 350 485 313 500 258 500 c 0
 176 500 121 461 121 399 c 0
 121 351 145 320 241 291 c 0
 347 258 387 214 387 142 c 0
 387 63 330 -10 194 -10 c 0
 110 -10 58 19 17 57 c 1
 37 78 l 1
 80 43 123 21 192 21 c 0
 283 21 352 58 352 141 c 0
 352 197 325 231 226 263 c 0
 117 297 86 338 86 398 c 0
 86 475 158 531 258 531 c 0
EndSplineSet
Substitution2: "'smcp' Lowercase to Small Capitals lookup 28 subtable" scaron.sc
Substitution2: "'aalt' Access All Alternates lookup 0 subtable" scaron.sc
EndChar

StartChar: Tcedilla
Encoding: 354 354 99
Width: 479
GlyphClass: 2
Flags: MW
HStem: -218 30<177.5 206.5 177.5 216.5> -198 21G<119 119> -93 23 0 21G<185 195 185 185 220 220> 649 33<74 277 69 528 312 518 312 312>
VStem: 257 35
AnchorPoint: "Anchor-11" 203 0 basechar 0
AnchorPoint: "Anchor-10" 0 0 basechar 0
AnchorPoint: "Anchor-9" 290 682 basechar 0
AnchorPoint: "Anchor-8" 0 0 basechar 0
LayerCount: 2
Fore
SplineSet
528 682 m 1x7c
 518 649 l 1
 312 649 l 1
 220 0 l 1
 209 -70 l 1
 265 -74 292 -94 292 -134 c 0
 292 -183 243 -218 190 -218 c 0xbc
 157 -218 135 -208 119 -198 c 1x7c
 135 -173 l 1
 147 -182 165 -188 190 -188 c 0xbc
 223 -188 256 -172 257 -138 c 0
 258 -107 237 -94 175 -93 c 1
 195 0 l 1
 185 0 l 1
 277 649 l 1
 69 649 l 1
 74 682 l 1
 528 682 l 1x7c
EndSplineSet
Substitution2: "'c2sc' Capitals to Small Capitals lookup 23 subtable" tcedilla.sc
Substitution2: "'locl' Localized Forms in Latin lookup 5 subtable" uni021A
Substitution2: "'locl' Localized Forms in Latin lookup 4 subtable" uni021A
AlternateSubs2: "'aalt' Access All Alternates lookup 1 subtable" uni021A tcedilla.sc
Position2: "'cpsp' Capital Spacing lookup 0 subtable" dx=5 dy=0 dh=10 dv=0
EndChar
